<svg width="16" height="16" viewBox="0 0 16 16" fill="none" xmlns="http://www.w3.org/2000/svg">
<g clip-path="url(#clip0_2028_13)">
<path d="M5.99992 3.33337H4.66659C4.31296 3.33337 3.97382 3.47385 3.72378 3.7239C3.47373 3.97395 3.33325 4.31309 3.33325 4.66671V12.6667C3.33325 13.0203 3.47373 13.3595 3.72378 13.6095C3.97382 13.8596 4.31296 14 4.66659 14H11.3333C11.6869 14 12.026 13.8596 12.2761 13.6095C12.5261 13.3595 12.6666 13.0203 12.6666 12.6667V4.66671C12.6666 4.31309 12.5261 3.97395 12.2761 3.7239C12.026 3.47385 11.6869 3.33337 11.3333 3.33337H9.99992" stroke="white" stroke-width="1.25" stroke-linecap="round" stroke-linejoin="round"/>
<path d="M6 3.33333C6 2.97971 6.14048 2.64057 6.39052 2.39052C6.64057 2.14048 6.97971 2 7.33333 2H8.66667C9.02029 2 9.35943 2.14048 9.60948 2.39052C9.85952 2.64057 10 2.97971 10 3.33333C10 3.68696 9.85952 4.02609 9.60948 4.27614C9.35943 4.52619 9.02029 4.66667 8.66667 4.66667H7.33333C6.97971 4.66667 6.64057 4.52619 6.39052 4.27614C6.14048 4.02609 6 3.68696 6 3.33333Z" stroke="white" stroke-width="1.25" stroke-linecap="round" stroke-linejoin="round"/>
<path d="M6 8H10" stroke="white" stroke-width="1.25" stroke-linecap="round" stroke-linejoin="round"/>
<path d="M6 10.6666H10" stroke="white" stroke-width="1.25" stroke-linecap="round" stroke-linejoin="round"/>
</g>
<defs>
<clipPath id="clip0_2028_13">
<rect width="16" height="16" fill="white"/>
</clipPath>
</defs>
</svg>
