<svg width="13" height="16" viewBox="0 0 13 16" fill="none" xmlns="http://www.w3.org/2000/svg">
<path d="M0 13.6345V3.97437C0.000106186 3.34735 0.248825 2.74562 0.692198 2.30224C1.13557 1.85886 1.7373 1.61015 2.36432 1.61005H3.97513C4.39175 1.61026 4.72982 1.94807 4.72982 2.36474C4.72982 2.78142 4.39175 3.11923 3.97513 3.11944H2.36432C2.13761 3.11955 1.91968 3.20913 1.75939 3.36943C1.59907 3.52975 1.5095 3.74768 1.50939 3.97437V13.6345C1.50939 13.8612 1.59927 14.0792 1.75939 14.2394H1.76056C1.92075 14.3996 2.13757 14.4905 2.36432 14.4906H10.4148C10.6417 14.4906 10.8593 14.3998 11.0197 14.2394C11.18 14.0791 11.2697 13.8612 11.2697 13.6345V3.97437C11.2696 3.7477 11.1801 3.52979 11.0197 3.36943C10.8592 3.20911 10.6414 3.11944 10.4148 3.11944H8.80518C8.38837 3.11944 8.05049 2.78155 8.05049 2.36474C8.05049 1.94794 8.38837 1.61005 8.80518 1.61005H10.4148C11.0419 1.61005 11.6435 1.85897 12.0869 2.30224L12.2438 2.47559C12.5886 2.89632 12.779 3.42551 12.7791 3.97437V13.6345C12.7791 14.2615 12.5303 14.8632 12.0869 15.3066C11.6434 15.7502 11.0419 16 10.4148 16H2.36432C1.7374 15.9999 1.13567 15.7502 0.692198 15.3066C0.248926 14.8632 0 14.2614 0 13.6345Z" fill="white"/>
<path d="M8.05015 2.36432C8.05005 2.13763 7.96046 1.91971 7.80016 1.75939C7.63983 1.59908 7.42191 1.5095 7.19522 1.50939H5.58441C5.35772 1.5095 5.1398 1.59908 4.97948 1.75939C4.81917 1.91971 4.72959 2.13763 4.72949 2.36432C4.72949 2.59098 4.81932 2.80888 4.97948 2.96926C5.1398 3.12958 5.35772 3.22033 5.58441 3.22043H7.19522C7.42192 3.22033 7.63984 3.12958 7.80016 2.96926C7.96031 2.80888 8.05015 2.59098 8.05015 2.36432ZM9.55954 2.36432C9.55954 2.99132 9.31055 3.59302 8.86734 4.03645C8.42397 4.47982 7.82224 4.72972 7.19522 4.72982H5.58441C4.95739 4.72972 4.35567 4.47982 3.91229 4.03645C3.46908 3.59302 3.22009 2.99132 3.22009 2.36432C3.2202 1.7373 3.46894 1.13557 3.91229 0.692198C4.35566 0.248844 4.95739 0.000103062 5.58441 0H7.19522C7.82224 0.000103062 8.42397 0.248844 8.86734 0.692198C9.3107 1.13557 9.55944 1.7373 9.55954 2.36432Z" fill="white"/>
<path d="M8.80484 7.24512C9.22165 7.24512 9.55954 7.58301 9.55954 7.99981C9.55954 8.41662 9.22165 8.75451 8.80484 8.75451H3.97479C3.55798 8.75451 3.22009 8.41662 3.22009 7.99981C3.22009 7.58301 3.55798 7.24512 3.97479 7.24512H8.80484Z" fill="white"/>
<path d="M8.80484 10.4651C9.22165 10.4651 9.55954 10.803 9.55954 11.2198C9.55954 11.6366 9.22165 11.9745 8.80484 11.9745H3.97479C3.55798 11.9745 3.22009 11.6366 3.22009 11.2198C3.22009 10.803 3.55798 10.4651 3.97479 10.4651H8.80484Z" fill="white"/>
</svg>
