<svg width="80" height="80" viewBox="0 0 80 80" fill="none" xmlns="http://www.w3.org/2000/svg">
<path d="M18.766 37.647C19.77 44.917 27.673 57.185 31.498 62.411C42.796 78.088 61.445 71.319 73.639 50.831C85.833 30.343 75.612 23.039 47.099 22.148C18.587 21.258 17.511 28.56 18.766 37.647Z" fill="#4A70FA"/>
<path d="M20.53 45.464C21.77 43.241 27.707 42.57 30.52 42.512C26.938 39.457 29.372 36.61 31.037 35.568C27.867 32.79 33.046 24.92 36.031 21.332C32.816 21.795 26.834 22.096 28.625 19.596C31.243 15.846 40.968 13.752 45.504 13.173C63.931 0.847015 73.577 3.79802 74.781 11.958C75.746 18.485 70.246 29.492 67.375 34.179C66.686 37.825 62.553 50.151 59.97 49.977C57.903 49.838 57.73 44.711 57.903 42.165C49.636 47.443 44.699 47.605 43.263 47.025C40.921 50.775 38.499 49.63 37.58 48.588C37.752 51.25 37.752 56.644 36.374 56.921C34.997 57.199 34.997 54.491 35.169 53.102C34.824 55.706 33.619 60.845 31.552 60.567C29.485 60.289 30.691 56.053 31.552 53.97C29.485 57.442 19.496 68.38 17.946 66.122C16.706 64.317 21.333 58.426 23.802 55.706C20.357 56.574 15.707 57.789 16.396 56.053C16.947 54.664 23.286 50.151 26.386 48.068C23.916 48.125 19.29 47.686 20.53 45.464Z" fill="white"/>
<path fill-rule="evenodd" clip-rule="evenodd" d="M73.739 24.132C75.531 19.46 76.207 15.532 75.885 12.407C75.543 9.08397 74.065 6.64497 71.619 5.26697C69.208 3.91097 65.979 3.65597 62.249 4.39797C58.508 5.14297 54.184 6.90297 49.503 9.68497C48.084 10.527 46.6964 11.4209 45.343 12.365C45.277 12.351 45.2094 12.3459 45.142 12.35C42.819 12.476 36.948 13.393 31.777 16.08C30.167 16.916 28.972 17.75 28.253 18.545C27.564 19.305 27.093 20.311 27.692 21.24C27.956 21.65 28.374 21.933 28.84 22.13C29.311 22.328 29.887 22.462 30.548 22.542C31.534 22.662 32.768 22.667 34.24 22.545C31.926 25.41 30.378 28.055 29.403 30.198C28.577 32.015 28.932 33.976 29.977 35.518C29.35 35.918 28.665 36.48 28.179 37.165C27.835 37.65 27.564 38.233 27.521 38.889C27.477 39.56 27.676 40.239 28.152 40.883C28.362 41.168 28.626 41.488 28.932 41.833C28.0125 41.8312 27.0939 41.8933 26.183 42.019C24.38 42.27 22.39 42.826 20.86 43.966C19.965 44.633 19.32 45.441 19.507 46.366C19.597 46.81 19.861 47.153 20.157 47.406C20.452 47.658 20.815 47.856 21.193 48.013C21.945 48.326 22.895 48.537 23.839 48.656C22.595 49.4353 21.3706 50.2455 20.167 51.086C18.347 52.366 16.712 53.651 15.793 54.691C15.56 54.955 15.356 55.221 15.206 55.484C15.06 55.738 14.931 56.044 14.92 56.375C14.907 56.746 15.046 57.102 15.347 57.363C15.616 57.595 15.957 57.705 16.284 57.76C16.937 57.869 17.859 57.807 19.048 57.603C19.8139 57.4672 20.5751 57.3054 21.33 57.118C20.061 58.605 18.735 60.32 17.823 61.854C17.173 62.947 16.653 64.079 16.627 65.01C16.613 65.506 16.738 66.033 17.149 66.433C17.549 66.822 18.099 66.974 18.684 66.995C19.903 67.038 21.184 66.433 22.388 65.59C23.613 64.73 24.87 63.543 26.064 62.246C27.2512 60.942 28.371 59.5782 29.419 58.16C29.346 58.835 29.352 59.556 29.599 60.128C29.736 60.448 29.961 60.75 30.31 60.947C30.658 61.142 31.05 61.189 31.445 61.14C32.257 61.04 32.907 60.546 33.405 59.959C33.907 59.368 34.317 58.612 34.649 57.834C34.738 57.624 34.822 57.41 34.903 57.194C35.303 57.622 35.862 57.8 36.497 57.694C37.34 57.555 37.777 56.809 38.009 56.179C38.259 55.502 38.392 54.645 38.459 53.769C38.552 52.579 38.529 51.261 38.459 50.116C38.662 50.238 38.848 50.338 39.01 50.412C40.192 50.945 41.308 50.331 42.047 49.694C42.657 49.169 43.174 48.498 43.535 47.931C44.744 48.457 46.108 48.596 47.441 48.194C50.223 47.356 53.663 45.918 57.189 43.75C57.045 44.863 56.984 46.129 57.133 47.266C57.245 48.13 57.489 48.998 57.977 49.668C58.494 50.375 59.261 50.822 60.275 50.822C60.889 50.822 61.435 50.545 61.895 50.169C62.355 49.792 62.782 49.275 63.177 48.682C63.969 47.496 64.714 45.888 65.387 44.149C66.734 40.661 67.843 36.492 68.454 33.717C68.4596 33.6915 68.464 33.6658 68.467 33.64C70.6172 30.8194 72.3571 27.7085 73.635 24.4C73.6865 24.3181 73.7218 24.2271 73.739 24.132ZM36.866 49.015C35.7279 48.1459 34.6199 47.238 33.544 46.293C32.4762 45.3622 31.4374 44.3988 30.429 43.404C29.491 43.309 27.985 43.281 26.391 43.504C24.701 43.74 22.997 44.244 21.756 45.169C21.365 45.461 21.156 45.693 21.054 45.858C20.961 46.008 20.977 46.068 20.977 46.07C20.98 46.083 20.999 46.152 21.132 46.266C21.266 46.381 21.476 46.506 21.77 46.628C22.973 47.13 24.971 47.342 26.284 47.26C26.4516 47.25 26.6176 47.2966 26.7556 47.3922C26.8936 47.4878 26.9955 47.6269 27.0451 47.7873C27.0946 47.9477 27.0889 48.12 27.0289 48.2768C26.9689 48.4336 26.858 48.5657 26.714 48.652C24.7764 49.8052 22.8802 51.0266 21.029 52.314C19.213 53.59 17.708 54.789 16.918 55.684C16.7532 55.8643 16.6078 56.0614 16.484 56.272L16.531 56.28C16.923 56.346 17.637 56.323 18.794 56.124C19.93 55.929 21.429 55.576 23.354 55.029C23.5119 54.984 23.6801 54.992 23.833 55.0518C23.9858 55.1117 24.1148 55.22 24.2002 55.3602C24.2855 55.5004 24.3225 55.6647 24.3055 55.828C24.2885 55.9912 24.2184 56.1444 24.106 56.264C22.503 57.97 20.365 60.514 19.113 62.62C18.469 63.703 18.141 64.541 18.127 65.052C18.121 65.278 18.177 65.341 18.196 65.359C18.226 65.389 18.353 65.482 18.737 65.496C19.457 65.521 20.402 65.15 21.527 64.361C22.629 63.588 23.803 62.487 24.96 61.23C27.272 58.718 29.435 55.669 30.717 53.63C30.817 53.4707 30.9732 53.3549 31.1545 53.3053C31.3359 53.2558 31.5293 53.2762 31.6964 53.3625C31.8634 53.4488 31.992 53.5947 32.0565 53.7713C32.1211 53.9479 32.117 54.1423 32.045 54.316C31.595 55.409 31.069 56.996 30.919 58.244C30.842 58.889 30.882 59.317 30.976 59.535C31.014 59.623 31.044 59.638 31.046 59.639C31.049 59.641 31.102 59.671 31.26 59.652C31.556 59.615 31.893 59.422 32.262 58.988C32.629 58.557 32.968 57.953 33.268 57.246C33.765 56.079 34.114 54.733 34.315 53.677C34.347 53.436 34.387 53.212 34.428 53.017C34.4671 52.825 34.5797 52.6559 34.7418 52.5459C34.9039 52.4359 35.1026 52.3937 35.2955 52.4283C35.4883 52.4629 35.6599 52.5716 35.7737 52.7312C35.8874 52.8907 35.9342 53.0884 35.904 53.282C35.874 53.478 35.838 53.69 35.796 53.916C35.724 54.461 35.697 55.072 35.776 55.562C35.833 55.906 35.926 56.09 35.996 56.167L35.999 56.17C36.026 56.2 36.068 56.245 36.252 56.215C36.2603 56.2133 36.2681 56.2099 36.275 56.205C36.3028 56.1864 36.3278 56.1638 36.349 56.138C36.423 56.053 36.513 55.902 36.602 55.66C36.781 55.175 36.901 54.48 36.964 53.654C37.084 52.114 36.994 50.301 36.866 49.015ZM29.402 38.033C29.794 37.481 30.413 36.997 30.969 36.667L41.667 46.697C41.848 46.868 42.039 47.027 42.237 47.176C41.939 47.636 41.526 48.164 41.068 48.558C40.441 49.098 39.971 49.2 39.628 49.045C39.24 48.869 38.523 48.393 37.588 47.68C36.5421 46.8745 35.5226 46.0354 34.531 45.164C32.367 43.271 30.258 41.211 29.359 39.992C29.073 39.605 28.999 39.272 29.019 38.987C29.038 38.687 29.166 38.366 29.402 38.033ZM72.833 22.24C74.195 18.312 74.653 15.085 74.393 12.56C74.091 9.62997 72.83 7.67097 70.883 6.57497C68.9 5.45897 66.078 5.16497 62.541 5.86897C60.681 6.23897 58.643 6.88197 56.461 7.80597C60.617 9.71797 68.006 14.487 72.833 22.24ZM72.163 24.043C67.11 15.206 58.433 10.126 54.731 8.69997C54.6893 8.68389 54.6492 8.66414 54.611 8.64097C53.983 8.94097 53.345 9.26297 52.697 9.60797C57.333 11.728 65.831 17.225 71.211 26.248C71.5526 25.5237 71.8701 24.7883 72.163 24.043ZM66.303 36.237C64.0941 38.6563 61.608 40.8072 58.896 42.645C58.633 43.885 58.433 45.639 58.62 47.072C58.718 47.822 58.912 48.404 59.189 48.783C59.438 49.124 59.765 49.323 60.275 49.323C60.422 49.323 60.642 49.256 60.945 49.008C61.247 48.761 61.579 48.375 61.93 47.849C62.631 46.799 63.33 45.309 63.987 43.609C64.895 41.258 65.696 38.573 66.303 36.237ZM35.647 20.887L35.634 20.889C33.509 21.162 31.878 21.193 30.728 21.053C30.152 20.983 29.723 20.873 29.422 20.747C29.116 20.618 28.995 20.494 28.952 20.428C28.937 20.404 28.794 20.183 29.365 19.551C29.909 18.95 30.921 18.214 32.469 17.411C36.156 15.495 40.245 14.518 42.982 14.098C40.029 16.375 37.612 18.678 35.647 20.887ZM50.269 10.975C50.525 10.823 50.779 10.674 51.033 10.528C55.182 12.155 64.83 17.888 70.406 27.853C64.416 39.07 53.74 44.73 47.008 46.758C45.518 47.207 43.893 46.729 42.693 45.604L31.947 35.527C30.577 34.243 30.053 32.393 30.769 30.819C33.012 25.884 38.575 17.924 50.269 10.975ZM56.788 24.964C56.389 24.087 55.558 22.91 54.3 22.164C52.986 21.384 51.255 21.104 49.223 22.036C46.685 23.2 45.686 25.348 45.866 27.366C46.041 29.326 47.346 31.179 49.346 31.702C51.104 32.162 53.729 32.184 55.566 31.259C56.511 30.783 57.313 30.019 57.594 28.882C57.868 27.77 57.605 26.462 56.788 24.964ZM53.534 23.454C52.631 22.917 51.419 22.68 49.848 23.4C47.884 24.3 47.238 25.851 47.36 27.232C47.489 28.67 48.436 29.913 49.725 30.25C51.258 30.651 53.482 30.629 54.891 29.92C55.57 29.578 55.991 29.116 56.138 28.522C56.289 27.909 56.189 26.99 55.458 25.66L55.444 25.633L55.432 25.605C55.132 24.936 54.479 24.015 53.534 23.453V23.454ZM60.423 30.974C61.491 28.899 61.696 26.95 61.205 25.237C60.716 23.533 59.563 22.151 58.075 21.149C55.119 19.161 50.717 18.582 46.871 19.944C45.872 20.276 44.504 21.097 43.528 22.505C42.53 23.945 41.973 25.954 42.574 28.563C43.351 31.942 46.767 34.591 50.392 35.406C54.077 36.236 58.236 35.225 60.422 30.975L60.423 30.974ZM47.365 21.36C50.79 20.145 54.697 20.684 57.237 22.394C58.498 23.242 59.391 24.354 59.763 25.65C60.132 26.937 60.013 28.493 59.089 30.289C57.292 33.781 53.919 34.662 50.721 33.943C47.461 33.21 44.643 30.87 44.035 28.227C43.527 26.019 44.009 24.444 44.761 23.36C45.531 22.249 46.618 21.608 47.35 21.365L47.358 21.363L47.365 21.36ZM25.968 30.937C26.0411 31.0031 26.1004 31.083 26.1425 31.1721C26.1847 31.2612 26.2089 31.3577 26.2137 31.4562C26.2185 31.5546 26.2039 31.6531 26.1707 31.7459C26.1374 31.8387 26.0862 31.924 26.02 31.997C21.953 36.476 18.007 38.085 15.049 38.07C10.142 42.646 4.07601 42.637 1.56301 42.028C1.36966 41.9812 1.20283 41.8595 1.09922 41.6896C0.995606 41.5198 0.963695 41.3158 1.01051 41.1225C1.05732 40.9291 1.17901 40.7623 1.34883 40.6587C1.51864 40.5551 1.72266 40.5232 1.91601 40.57C3.92201 41.056 8.82201 41.114 13.076 37.785C12.4821 37.6105 11.9283 37.321 11.446 36.933C10.583 36.22 10.112 35.186 10.359 34.081C10.599 33.005 11.339 32.388 12.23 32.225C13.06 32.073 13.959 32.321 14.674 32.772C15.394 33.227 16.03 33.956 16.232 34.884C16.345 35.408 16.312 35.952 16.118 36.494C18.455 36.16 21.568 34.669 24.908 30.988C24.9742 30.915 25.0542 30.8557 25.1433 30.8137C25.2324 30.7716 25.329 30.7475 25.4274 30.7428C25.5259 30.738 25.6243 30.7528 25.717 30.7861C25.8098 30.8194 25.8951 30.8707 25.968 30.937ZM14.416 36.534C14.796 35.998 14.84 35.547 14.766 35.203C14.67 34.76 14.343 34.338 13.872 34.04C13.396 33.74 12.877 33.632 12.5 33.7C12.185 33.758 11.928 33.937 11.823 34.409C11.723 34.853 11.88 35.346 12.402 35.777C12.838 36.137 13.517 36.434 14.416 36.534ZM50.748 52.238C50.8276 52.1776 50.9185 52.1338 51.0153 52.109C51.1121 52.0842 51.2128 52.0791 51.3116 52.0938C51.4105 52.1085 51.5053 52.1428 51.5907 52.1947C51.6761 52.2466 51.7502 52.315 51.8088 52.396C51.8674 52.4769 51.9092 52.5688 51.9317 52.6661C51.9543 52.7634 51.9572 52.8643 51.9403 52.9627C51.9234 53.0612 51.8869 53.1553 51.8331 53.2395C51.7793 53.3237 51.7092 53.3962 51.627 53.453C47.594 56.368 45.777 59.283 45.199 61.553C45.735 61.4182 46.2981 61.4369 46.824 61.607C47.729 61.902 48.391 62.605 48.772 63.366C49.15 64.12 49.305 65.037 49.065 65.846C48.807 66.716 48.109 67.379 47.013 67.504C45.889 67.632 44.906 67.063 44.281 66.134C43.9413 65.6144 43.7084 65.0324 43.596 64.422C39.81 68.278 39.357 73.129 39.634 75.159C39.6531 75.3523 39.5966 75.5455 39.4763 75.698C39.3559 75.8505 39.1812 75.9505 38.9887 75.9769C38.7963 76.0033 38.6011 75.9541 38.4441 75.8396C38.2871 75.7251 38.1807 75.5543 38.147 75.363C37.8 72.813 38.427 66.815 43.519 62.443C43.816 59.515 45.841 55.785 50.748 52.238ZM46.358 63.033C46.016 62.922 45.558 62.92 44.981 63.239C44.988 64.132 45.213 64.829 45.526 65.296C45.903 65.856 46.383 66.066 46.846 66.014C47.336 65.958 47.538 65.721 47.626 65.421C47.734 65.061 47.682 64.54 47.431 64.039C47.183 63.545 46.794 63.176 46.357 63.033H46.358ZM24.755 36.785C24.9027 36.9181 24.9915 37.1045 25.0018 37.3031C25.0121 37.5017 24.9431 37.6962 24.81 37.844C18.672 44.65 11.714 45.244 8.85201 44.612C8.65773 44.5691 8.48844 44.4509 8.38135 44.2832C8.27427 44.1156 8.23817 43.9122 8.28101 43.718C8.32384 43.5237 8.44209 43.3544 8.60975 43.2473C8.7774 43.1402 8.98073 43.1041 9.17501 43.147C11.508 43.662 17.918 43.247 23.695 36.839C23.761 36.7658 23.8408 36.7063 23.9298 36.664C24.0189 36.6216 24.1154 36.5972 24.2138 36.5922C24.3123 36.5872 24.4107 36.6017 24.5036 36.6347C24.5965 36.6678 24.6819 36.7189 24.755 36.785ZM44.792 51.82C44.8762 51.7624 44.9712 51.7226 45.0713 51.703C45.1714 51.6834 45.2744 51.6844 45.3741 51.706C45.4737 51.7275 45.568 51.7692 45.651 51.8284C45.734 51.8877 45.8041 51.9632 45.8569 52.0504C45.9097 52.1376 45.9442 52.2347 45.9583 52.3357C45.9723 52.4367 45.9656 52.5396 45.9386 52.6379C45.9115 52.7362 45.8647 52.828 45.801 52.9076C45.7373 52.9872 45.658 53.053 45.568 53.101C39.136 57.003 37.988 62.209 38.145 64.141C38.1471 64.3311 38.0771 64.5149 37.9491 64.6555C37.8212 64.7961 37.6447 64.883 37.4552 64.8987C37.2657 64.9144 37.0774 64.8578 36.928 64.7402C36.7786 64.6226 36.6793 64.4528 36.65 64.265C36.443 61.736 37.899 56 44.792 51.82Z" fill="#554D56"/>
</svg>
