<svg width="80" height="80" viewBox="0 0 80 80" fill="none" xmlns="http://www.w3.org/2000/svg">
<path d="M54.604 10.467C47.31 6.78097 34.17 4.84397 26.97 5.00997C5.48401 5.34397 2.09001 32.684 13.174 56.71C24.258 80.734 40.565 80.002 59.356 54.693C78.146 29.385 63.72 15.076 54.604 10.467Z" fill="#26BFAD"/>
<path d="M32.886 18.748C33.186 22.018 38.003 22.339 40.375 22.092C38.003 22.587 32.362 24.99 28.767 30.637C17.159 50.327 32.137 70.017 48.987 67.787C65.837 65.559 71.079 54.785 72.952 44.382C74.45 36.061 68.084 27.788 64.714 24.692C67.71 22.463 68.458 17.262 63.965 16.519C60.37 15.925 58.723 19.739 58.348 21.72C53.855 20.234 47.988 20.606 45.618 20.977C46.865 19.739 48.388 16.519 44.494 13.547C39.626 9.832 32.511 14.661 32.886 18.748Z" fill="white"/>
<path d="M45.734 27.223C55.142 25.723 61.168 31.35 63.006 34.352C64.476 36.728 66.534 43.357 63.006 50.861C58.596 60.241 44.264 61.741 36.546 53.863C28.829 45.983 33.974 29.099 45.734 27.223Z" stroke="#554D56" stroke-width="1.5" stroke-linecap="round" stroke-linejoin="round"/>
<path d="M54.051 21.425C66.712 22.612 71.887 33.295 72.891 38.488C73.771 42.816 73.118 53.696 63.471 62.599C51.413 73.727 24.66 67.05 24.66 47.019C24.66 26.989 38.225 19.941 54.051 21.425Z" stroke="#554D56" stroke-width="1.5" stroke-linecap="round" stroke-linejoin="round"/>
<path d="M40.28 39.693L46.94 43.368L55.082 32.711M32.883 18.423C32.883 21.606 38.269 22.16 40.963 22.04C47.94 20.593 48.307 16.614 44.268 13.36C40.228 10.104 32.883 14.444 32.883 18.423ZM64.899 16.553C60.332 15.276 58.647 19.48 58.375 21.741L64.899 25.334C66.802 22.939 69.466 17.83 64.899 16.553Z" stroke="#554D56" stroke-width="1.5" stroke-linecap="round" stroke-linejoin="round"/>
</svg>
