<svg width="258" height="106" viewBox="0 0 258 106" fill="none" xmlns="http://www.w3.org/2000/svg">
<path d="M0 20C0 8.95433 8.9543 0 20 0H238C249.046 0 258 8.9543 258 20V73.5587C258 84.6044 249.073 93.5587 238.027 93.5587C215.945 93.5587 177.843 93.5587 135.45 93.5587C128.821 93.5587 119.669 106 112.875 106C103.543 106 96.5171 93.5587 87.075 93.5587C64.1443 93.5587 41.2307 93.5587 19.9987 93.5587C8.95299 93.5587 0 84.6044 0 73.5587V20Z" fill="#4A70FA"/>
<path d="M22.75 35.9149V29.0626H52.2557V35.9149H41.6705V63.9717H33.3523V35.9149H22.75ZM64.7116 49.0399V63.9717H56.3764V29.0626H64.4389V42.5967H64.7287C65.3196 40.983 66.2855 39.7217 67.6264 38.8126C68.9787 37.9035 70.6321 37.449 72.5866 37.449C74.4276 37.449 76.0298 37.858 77.3935 38.6762C78.7571 39.483 79.8139 40.6251 80.5639 42.1024C81.3253 43.5796 81.7003 45.3069 81.6889 47.2842V63.9717H73.3537V48.9205C73.3651 47.466 73.0014 46.3296 72.2628 45.5115C71.5241 44.6933 70.4844 44.2842 69.1435 44.2842C68.2685 44.2842 67.4957 44.4774 66.8253 44.8637C66.1662 45.2387 65.6491 45.7785 65.2741 46.483C64.9105 47.1876 64.723 48.0399 64.7116 49.0399ZM94.2727 64.4149C92.6023 64.4149 91.1193 64.1365 89.8239 63.5796C88.5398 63.0115 87.5227 62.1592 86.7727 61.0228C86.0341 59.8751 85.6648 58.4376 85.6648 56.7103C85.6648 55.2558 85.9205 54.0285 86.4318 53.0285C86.9432 52.0285 87.6477 51.216 88.5455 50.591C89.4432 49.966 90.4773 49.4944 91.6477 49.1762C92.8182 48.8467 94.0682 48.6251 95.3977 48.5115C96.8864 48.3751 98.0852 48.233 98.9943 48.0853C99.9034 47.9262 100.563 47.7046 100.972 47.4205C101.392 47.1251 101.602 46.7103 101.602 46.1762V46.091C101.602 45.216 101.301 44.5399 100.699 44.0626C100.097 43.5853 99.2841 43.3467 98.2614 43.3467C97.1591 43.3467 96.2727 43.5853 95.6023 44.0626C94.9318 44.5399 94.5057 45.199 94.3239 46.0399L86.6364 45.7671C86.8636 44.1762 87.4489 42.7558 88.392 41.5058C89.3466 40.2444 90.6534 39.2558 92.3125 38.5399C93.983 37.8126 95.9886 37.449 98.3295 37.449C100 37.449 101.54 37.6478 102.949 38.0455C104.358 38.4319 105.585 39.0001 106.631 39.7501C107.676 40.4887 108.483 41.3978 109.051 42.4774C109.631 43.5569 109.92 44.7899 109.92 46.1762V63.9717H102.08V60.324H101.875C101.409 61.2103 100.813 61.9603 100.085 62.574C99.3693 63.1876 98.5227 63.6478 97.5455 63.9546C96.5795 64.2615 95.4886 64.4149 94.2727 64.4149ZM96.8466 58.9603C97.7443 58.9603 98.5511 58.7785 99.267 58.4149C99.9943 58.0512 100.574 57.5512 101.006 56.9149C101.438 56.2671 101.653 55.5171 101.653 54.6649V52.1762C101.415 52.3012 101.125 52.4149 100.784 52.5171C100.455 52.6194 100.091 52.716 99.6932 52.8069C99.2955 52.8978 98.8864 52.9774 98.4659 53.0455C98.0455 53.1137 97.642 53.1762 97.2557 53.233C96.4716 53.358 95.8011 53.5512 95.2443 53.8126C94.6989 54.074 94.2784 54.4149 93.983 54.8353C93.6989 55.2444 93.5568 55.733 93.5568 56.3012C93.5568 57.1649 93.8636 57.824 94.4773 58.2785C95.1023 58.733 95.892 58.9603 96.8466 58.9603ZM123.352 49.0399V63.9717H115.017V37.7899H122.943V42.5967H123.233C123.813 40.9944 124.801 39.7387 126.199 38.8296C127.597 37.9092 129.261 37.449 131.193 37.449C133.034 37.449 134.631 37.8637 135.983 38.6933C137.347 39.5115 138.403 40.6592 139.153 42.1365C139.915 43.6024 140.29 45.3183 140.278 47.2842V63.9717H131.943V48.9205C131.955 47.466 131.585 46.3296 130.835 45.5115C130.097 44.6933 129.068 44.2842 127.75 44.2842C126.875 44.2842 126.102 44.4774 125.432 44.8637C124.773 45.2387 124.261 45.7785 123.898 46.483C123.545 47.1876 123.364 48.0399 123.352 49.0399ZM152.956 57.1024L152.99 47.1649H154.149L161.513 37.7899H170.956L160.013 51.2217H157.814L152.956 57.1024ZM145.439 63.9717V29.0626H153.774V63.9717H145.439ZM161.7 63.9717L154.848 53.0967L160.337 47.1819L171.331 63.9717H161.7ZM196.797 45.7842L189.143 45.9887C189.064 45.4433 188.848 44.9603 188.496 44.5399C188.143 44.108 187.683 43.7728 187.115 43.5342C186.558 43.2842 185.911 43.1592 185.172 43.1592C184.206 43.1592 183.382 43.3524 182.7 43.7387C182.03 44.1251 181.7 44.6478 181.712 45.3069C181.7 45.8183 181.905 46.2615 182.325 46.6365C182.757 47.0115 183.524 47.3126 184.626 47.5399L189.672 48.4944C192.286 48.9944 194.229 49.824 195.501 50.983C196.786 52.1421 197.433 53.6762 197.445 55.5853C197.433 57.3808 196.899 58.9433 195.842 60.2728C194.797 61.6024 193.365 62.6365 191.547 63.3751C189.729 64.1024 187.649 64.466 185.308 64.466C181.57 64.466 178.621 63.699 176.462 62.1649C174.314 60.6194 173.087 58.5512 172.78 55.9603L181.013 55.7558C181.195 56.7103 181.666 57.4376 182.428 57.9376C183.189 58.4376 184.161 58.6876 185.342 58.6876C186.411 58.6876 187.28 58.4887 187.95 58.091C188.621 57.6933 188.962 57.1649 188.973 56.5058C188.962 55.9149 188.7 55.4433 188.189 55.091C187.678 54.7274 186.876 54.4433 185.786 54.2387L181.217 53.3694C178.592 52.8921 176.638 52.0115 175.354 50.7274C174.07 49.4319 173.433 47.7842 173.445 45.7842C173.433 44.0342 173.899 42.5399 174.842 41.3012C175.786 40.0512 177.126 39.0967 178.865 38.4376C180.604 37.7785 182.655 37.449 185.018 37.449C188.564 37.449 191.359 38.1933 193.405 39.6819C195.45 41.1592 196.581 43.1933 196.797 45.7842ZM216.548 64.466C215.321 64.466 214.27 64.0342 213.395 63.1705C212.531 62.3069 212.105 61.2615 212.116 60.0342C212.105 58.8296 212.531 57.8012 213.395 56.949C214.27 56.0853 215.321 55.6535 216.548 55.6535C217.707 55.6535 218.73 56.0853 219.616 56.949C220.514 57.8012 220.969 58.8296 220.98 60.0342C220.969 60.8524 220.753 61.5967 220.332 62.2671C219.923 62.9376 219.384 63.4717 218.713 63.8694C218.054 64.2671 217.332 64.466 216.548 64.466ZM216.548 46.5001C215.321 46.5001 214.27 46.074 213.395 45.2217C212.531 44.358 212.105 43.3069 212.116 42.0683C212.105 40.8637 212.531 39.8353 213.395 38.983C214.27 38.1194 215.321 37.6876 216.548 37.6876C217.707 37.6876 218.73 38.1194 219.616 38.983C220.514 39.8353 220.969 40.8637 220.98 42.0683C220.969 42.8865 220.753 43.6308 220.332 44.3012C219.923 44.9717 219.384 45.5058 218.713 45.9035C218.054 46.3012 217.332 46.5001 216.548 46.5001ZM239.935 50.233C239.935 54.4376 239.366 58.3126 238.23 61.858C237.094 65.3921 235.321 68.6762 232.912 71.7103H224.832C225.753 70.5853 226.599 69.216 227.372 67.6024C228.156 65.9887 228.832 64.2217 229.401 62.3012C229.98 60.3808 230.429 58.3921 230.747 56.3353C231.077 54.2785 231.241 52.2444 231.241 50.233C231.241 47.5399 230.963 44.8296 230.406 42.1024C229.849 39.3637 229.088 36.8296 228.122 34.5001C227.156 32.1592 226.06 30.2387 224.832 28.7387H232.912C235.321 31.7728 237.094 35.0626 238.23 38.608C239.366 42.1421 239.935 46.0171 239.935 50.233Z" fill="white"/>
</svg>
