<svg width="39" height="30" viewBox="0 0 39 30" fill="none" xmlns="http://www.w3.org/2000/svg">
<path d="M25.6503 3.65818e-07C28.2192 -0.000142943 30.7013 0.926999 32.637 2.60983C34.5727 4.29266 35.831 6.61723 36.1791 9.1533L38.8924 23.0641C39.1339 24.301 38.9664 25.5826 38.4148 26.7165C37.8632 27.8504 36.9574 28.7755 35.8333 29.3528C34.7092 29.9302 33.4275 30.1286 32.1806 29.9184C30.9336 29.7082 29.7888 29.1006 28.9179 28.1869L22.2305 21.1742L16.6694 21.1759L10.0829 28.0864C9.21026 29.0022 8.06246 29.6106 6.81253 29.8198C5.5626 30.029 4.27829 29.8276 3.15322 29.2461C2.02815 28.6646 1.1233 27.7344 0.575057 26.5958C0.0268181 25.4572 -0.135086 24.1718 0.113752 22.9335L3.00762 8.51096C3.48959 6.11046 4.79149 3.95054 6.69177 2.39879C8.59204 0.847043 10.9733 -0.000642884 13.4302 3.65818e-07H25.6503ZM12.3676 5.29399C11.8978 5.29399 11.4474 5.47991 11.1152 5.81084C10.7831 6.14178 10.5965 6.59063 10.5965 7.05865V8.82331H8.82548C8.35577 8.82331 7.9053 9.00923 7.57317 9.34017C7.24103 9.67111 7.05444 10.12 7.05444 10.588C7.05444 11.056 7.24103 11.5048 7.57317 11.8358C7.9053 12.1667 8.35577 12.3526 8.82548 12.3526H10.5965V14.1173C10.5965 14.5853 10.7831 15.0342 11.1152 15.3651C11.4474 15.696 11.8978 15.882 12.3676 15.882C12.8373 15.882 13.2877 15.696 13.6199 15.3651C13.952 15.0342 14.1386 14.5853 14.1386 14.1173V12.3526H15.9096C16.3793 12.3526 16.8298 12.1667 17.1619 11.8358C17.4941 11.5048 17.6807 11.056 17.6807 10.588C17.6807 10.12 17.4941 9.67111 17.1619 9.34017C16.8298 9.00923 16.3793 8.82331 15.9096 8.82331H14.1386V7.05865C14.1386 6.59063 13.952 6.14178 13.6199 5.81084C13.2877 5.47991 12.8373 5.29399 12.3676 5.29399ZM30.0779 8.82331H22.9938C22.5241 8.82331 22.0736 9.00923 21.7415 9.34017C21.4093 9.67111 21.2227 10.12 21.2227 10.588C21.2227 11.056 21.4093 11.5048 21.7415 11.8358C22.0736 12.1667 22.5241 12.3526 22.9938 12.3526H30.0779C30.5476 12.3526 30.9981 12.1667 31.3302 11.8358C31.6624 11.5048 31.8489 11.056 31.8489 10.588C31.8489 10.12 31.6624 9.67111 31.3302 9.34017C30.9981 9.00923 30.5476 8.82331 30.0779 8.82331Z" fill="#161515"/>
</svg>
