<svg width="15" height="14" viewBox="0 0 15 14" fill="none" xmlns="http://www.w3.org/2000/svg">
<path d="M13.2607 9.18176V4.8183C13.2607 4.56727 13.4642 4.36377 13.7153 4.36377C13.9663 4.36377 14.1698 4.56727 14.1698 4.8183V9.18176C14.1698 9.43279 13.9663 9.63629 13.7153 9.63629C13.4642 9.63629 13.2607 9.43279 13.2607 9.18176Z" fill="#161515"/>
<path d="M6.97696 4.40634C7.11936 4.33951 7.28865 4.35073 7.42225 4.43972L13.9674 8.80318C14.0939 8.88748 14.1698 9.02974 14.1698 9.18172C14.1698 9.33369 14.0939 9.47595 13.9674 9.56025L7.42225 13.9237C7.26965 14.0254 7.07061 14.0254 6.91801 13.9237L0.372817 9.56025C0.246368 9.47595 0.17041 9.33369 0.17041 9.18172C0.17041 9.02974 0.246368 8.88748 0.372817 8.80318L6.91801 4.43972L6.97696 4.40634ZM1.44451 9.18172L7.17013 12.9983L12.895 9.18172L7.17013 5.3644L1.44451 9.18172Z" fill="#161515"/>
<path d="M6.97696 0.0429354C7.11936 -0.0238899 7.28865 -0.0126687 7.42225 0.0763148L13.9674 4.43978C14.0939 4.52408 14.1698 4.66634 14.1698 4.81831C14.1698 4.97029 14.0939 5.11255 13.9674 5.19685L7.42225 9.56031C7.26965 9.66195 7.07061 9.66195 6.91801 9.56031L0.372817 5.19685C0.246368 5.11255 0.17041 4.97029 0.17041 4.81831C0.17041 4.66634 0.246368 4.52408 0.372817 4.43978L6.91801 0.0763148L6.97696 0.0429354ZM1.44451 4.81831L7.17013 8.63492L12.895 4.81831L7.17013 1.00099L1.44451 4.81831Z" fill="#161515"/>
<path d="M0 9.18164V4.81836C0 4.47318 0.279822 4.19336 0.625 4.19336C0.970178 4.19336 1.25 4.47318 1.25 4.81836V9.18164C1.25 9.52682 0.970178 9.80664 0.625 9.80664C0.279822 9.80664 0 9.52682 0 9.18164Z" fill="#161515"/>
<path d="M6.71558 4.81836V0.454893C6.71558 0.203865 6.91907 0.000366211 7.1701 0.000366211C7.42113 0.000366211 7.62463 0.203865 7.62463 0.454893V4.81836C7.62463 5.06938 7.42113 5.27288 7.1701 5.27288C6.91907 5.27288 6.71558 5.06938 6.71558 4.81836Z" fill="#161515"/>
<path d="M6.71558 13.5453V9.18182C6.71558 8.93079 6.91907 8.72729 7.1701 8.72729C7.42113 8.72729 7.62463 8.93079 7.62463 9.18182V13.5453C7.62463 13.7963 7.42113 13.9998 7.1701 13.9998C6.91907 13.9998 6.71558 13.7963 6.71558 13.5453Z" fill="#161515"/>
</svg>
