<svg width="96" height="49" viewBox="0 0 96 49" fill="none" xmlns="http://www.w3.org/2000/svg">
<path d="M71.608 15.881C71.2858 14.7609 70.8331 13.7712 70.2501 12.912C69.667 12.0374 68.9535 11.3009 68.1096 10.7024C67.281 10.0887 66.3297 9.62069 65.2556 9.29847C64.1968 8.97625 63.023 8.81513 61.7341 8.81513C59.3251 8.81513 57.2077 9.41355 55.3817 10.6104C53.5711 11.8072 52.1595 13.5488 51.1468 15.835C50.1341 18.1059 49.6277 20.8832 49.6277 24.1668C49.6277 27.4504 50.1264 30.243 51.1238 32.5446C52.1211 34.8462 53.5328 36.6031 55.3587 37.8153C57.1846 39.0121 59.3405 39.6106 61.8262 39.6106C64.0818 39.6106 66.0074 39.2116 67.6032 38.4137C69.2143 37.6005 70.4419 36.4574 71.2858 34.9843C72.145 33.5113 72.5747 31.7698 72.5747 29.7597L74.6001 30.0589H62.4476V22.5557H82.1724V28.4938C82.1724 32.6367 81.2977 36.1965 79.5485 39.1733C77.7993 42.1346 75.3903 44.4209 72.3215 46.032C69.2527 47.6278 65.7389 48.4257 61.7802 48.4257C57.3611 48.4257 53.4791 47.4513 50.1341 45.5027C46.7891 43.5386 44.1806 40.7537 42.3086 37.1478C40.452 33.5267 39.5237 29.2303 39.5237 24.2589C39.5237 20.4382 40.0761 17.0318 41.1808 14.0398C42.3009 11.0323 43.866 8.48524 45.8761 6.39845C47.8862 4.31167 50.2261 2.72356 52.896 1.63414C55.5658 0.544712 58.4582 0 61.573 0C64.2429 0 66.7286 0.391272 69.0302 1.17382C71.3318 1.94102 73.3726 3.03044 75.1525 4.44209C76.9477 5.85374 78.4131 7.53391 79.5485 9.4826C80.684 11.4159 81.4128 13.5488 81.7351 15.881H71.608Z" fill="#5DD4D7"/>
<path d="M40.3218 14.2009C40.1377 12.3443 39.3474 10.9019 37.9511 9.87387C36.5548 8.84582 34.6598 8.33179 32.2662 8.33179C30.6397 8.33179 29.2664 8.56196 28.1463 9.02228C27.0262 9.46725 26.1669 10.0887 25.5685 10.8866C24.9854 11.6845 24.6939 12.5898 24.6939 13.6025C24.6632 14.4464 24.8397 15.1829 25.2233 15.812C25.6222 16.4411 26.1669 16.9858 26.8574 17.4461C27.5479 17.8911 28.3458 18.2824 29.2511 18.62C30.1564 18.9422 31.123 19.2184 32.1511 19.4485L36.386 20.4612C38.4421 20.9216 40.3295 21.5353 42.048 22.3025C43.7665 23.0697 45.2549 24.0134 46.5131 25.1335C47.7713 26.2536 48.7456 27.5732 49.4361 29.0922C50.1419 30.6113 50.5025 32.3528 50.5179 34.3169C50.5025 37.2015 49.766 39.7026 48.3083 41.8201C46.866 43.9222 44.7792 45.5564 42.048 46.7225C39.3321 47.8733 36.0561 48.4487 32.2201 48.4487C28.4148 48.4487 25.1005 47.8656 22.2772 46.6995C19.4693 45.5333 17.2751 43.8071 15.6946 41.5209C14.1296 39.2193 13.3087 36.373 13.2319 32.9819H22.8756C22.9831 34.5624 23.4357 35.882 24.2336 36.9407C25.0468 37.9841 26.1286 38.7743 27.4788 39.3114C28.8445 39.833 30.3865 40.0939 32.1051 40.0939C33.7929 40.0939 35.2583 39.8484 36.5011 39.3574C37.7593 38.8664 38.7337 38.1836 39.4242 37.309C40.1146 36.4343 40.4599 35.4293 40.4599 34.2939C40.4599 33.2351 40.1453 32.3452 39.5162 31.624C38.9025 30.9028 37.9972 30.2891 36.8003 29.7827C35.6188 29.2764 34.1688 28.816 32.4503 28.4018L27.3177 27.1129C23.3436 26.1462 20.2058 24.6348 17.9042 22.5787C15.6026 20.5226 14.4595 17.753 14.4748 14.2699C14.4595 11.4159 15.219 8.92254 16.7534 6.78973C18.3031 4.65691 20.4283 2.99208 23.1288 1.79525C25.8294 0.598415 28.8982 0 32.3352 0C35.8337 0 38.8871 0.598415 41.4956 1.79525C44.1194 2.99208 46.1602 4.65691 47.6179 6.78973C49.0755 8.92254 49.8274 11.3929 49.8734 14.2009H40.3218Z" fill="#4970FA"/>
<path d="M87.9287 16.7379C88.3191 16.3475 88.9522 16.3477 89.3428 16.7379L95.707 23.1022C96.0976 23.4927 96.0976 24.1257 95.707 24.5163L89.3428 30.8805C88.9522 31.2707 88.3191 31.2709 87.9287 30.8805C87.5383 30.4901 87.5385 29.857 87.9287 29.4665L92.5859 24.8092H0V22.8092H92.5859L87.9287 18.152C87.5385 17.7614 87.5383 17.1284 87.9287 16.7379Z" fill="#161515"/>
</svg>
