<svg width="234" height="95" viewBox="0 0 234 95" fill="none" xmlns="http://www.w3.org/2000/svg">
<path d="M61.4258 88.9412C38.9125 83.9383 33.3537 41.6912 33.3537 21.9574C33.3537 66.9108 22.2361 79.7692 5.55957 88.9412L61.4258 88.9412Z" fill="#0B5537"/>
<path d="M33.354 77.6974C33.6187 72.8031 38.9922 63.9232 58.3687 67.5568C53.0746 79.5987 36.2658 79.0353 33.354 77.6974Z" fill="#0CB24C"/>
<path d="M33.354 77.6974C33.0952 72.8031 27.8411 63.9232 8.89516 67.5568C14.0716 79.5987 30.5069 79.0353 33.354 77.6974Z" fill="#0CB24C"/>
<path d="M33.354 55.7219C33.5305 52.6922 37.1128 47.1951 50.0305 49.4445C46.5011 56.899 35.2952 56.5502 33.354 55.7219Z" fill="#0CB24C"/>
<path d="M33.354 55.7219C33.1775 52.6922 29.5952 47.1951 16.6775 49.4445C20.2069 56.899 31.4128 56.5502 33.354 55.7219Z" fill="#0CB24C"/>
<path d="M33.354 39.1103C33.5011 36.5467 36.4864 31.8953 47.2511 33.7986C44.3099 40.1063 34.9717 39.8112 33.354 39.1103Z" fill="#0CB24C"/>
<path d="M33.354 39.1103C33.2069 36.5467 30.2216 31.8953 19.4569 33.7986C22.3981 40.1063 31.7364 39.8112 33.354 39.1103Z" fill="#0CB24C"/>
<path d="M50.0308 11.1174H5.55908V88.9417H61.147V22.2356H66.7065V94.5002H0.000488281V5.55884H50.0308V11.1174Z" fill="#0B5537"/>
<ellipse cx="63.9271" cy="8.33823" rx="8.33824" ry="8.33823" fill="#F2EB0A"/>
<path d="M212.423 56.0684C212.423 57.3721 212.686 58.566 213.214 59.65C213.741 60.7194 214.481 61.5763 215.433 62.2209C216.385 62.8507 217.498 63.1657 218.773 63.1657C220.062 63.1657 221.183 62.8507 222.135 62.2209C223.087 61.5763 223.827 60.7194 224.354 59.65C224.881 58.566 225.145 57.3721 225.145 56.0684C225.145 54.7646 224.881 53.5781 224.354 52.5087C223.827 51.4393 223.087 50.5824 222.135 49.9378C221.183 49.2933 220.062 48.971 218.773 48.971C217.498 48.971 216.385 49.2933 215.433 49.9378C214.481 50.5824 213.741 51.4393 213.214 52.5087C212.686 53.5781 212.423 54.7646 212.423 56.0684ZM203.545 56.0684C203.545 53.9589 203.926 51.996 204.688 50.1795C205.464 48.3484 206.541 46.7517 207.918 45.3894C209.295 44.0271 210.906 42.965 212.752 42.2033C214.613 41.4415 216.619 41.0607 218.773 41.0607C220.97 41.0607 222.992 41.4415 224.837 42.2033C226.698 42.965 228.309 44.0271 229.672 45.3894C231.049 46.7517 232.111 48.3484 232.858 50.1795C233.619 51.996 234 53.9589 234 56.0684C234 58.1924 233.634 60.17 232.902 62.0011C232.169 63.8176 231.122 65.4143 229.759 66.7913C228.412 68.1536 226.808 69.2157 224.947 69.9774C223.087 70.7391 221.029 71.12 218.773 71.12C216.458 71.12 214.364 70.7391 212.489 69.9774C210.628 69.2157 209.031 68.1536 207.698 66.7913C206.365 65.4143 205.34 63.8176 204.622 62.0011C203.904 60.17 203.545 58.1924 203.545 56.0684Z" fill="#090808"/>
<path d="M187.304 48.971H181.041V41.588H202.07V48.971H195.807V70.5926H187.304V48.971Z" fill="#090808"/>
<path d="M169.842 62.6823C170.868 62.6823 171.857 62.5212 172.809 62.1989C173.776 61.8766 174.523 61.5543 175.05 61.2321L178.676 68.4393C177.973 69.0252 176.779 69.6185 175.094 70.2191C173.409 70.8197 171.425 71.12 169.139 71.12C167.001 71.12 164.979 70.7538 163.075 70.0213C161.17 69.2742 159.478 68.2269 157.999 66.8792C156.534 65.5315 155.384 63.9494 154.549 62.133C153.714 60.3019 153.297 58.3023 153.297 56.1343C153.297 53.9663 153.714 51.9667 154.549 50.1356C155.384 48.2898 156.534 46.6931 157.999 45.3454C159.464 43.9831 161.148 42.9284 163.053 42.1813C164.972 41.4342 167.001 41.0607 169.139 41.0607C171.425 41.0607 173.409 41.361 175.094 41.9616C176.779 42.5622 177.973 43.1554 178.676 43.7414L175.05 50.9486C174.523 50.6263 173.776 50.3041 172.809 49.9818C171.857 49.6595 170.868 49.4984 169.842 49.4984C168.451 49.4984 167.286 49.6961 166.349 50.0917C165.411 50.4872 164.657 51.0145 164.085 51.6737C163.529 52.3183 163.126 53.0287 162.877 53.8051C162.643 54.5669 162.525 55.3213 162.525 56.0684C162.525 56.8301 162.643 57.5992 162.877 58.3755C163.126 59.1519 163.529 59.8697 164.085 60.5289C164.657 61.1735 165.411 61.6935 166.349 62.089C167.286 62.4845 168.451 62.6823 169.842 62.6823Z" fill="#090808"/>
<path d="M133.321 41.588H141.649L153.602 70.5926H144.527L142.681 65.5608H132.332L130.464 70.5926H121.367L133.321 41.588ZM135.189 58.1778H139.825L137.54 51.7836H137.474L135.189 58.1778Z" fill="#090808"/>
<path d="M98.2371 41.588H111.245C113.003 41.588 114.556 41.9616 115.904 42.7086C117.251 43.4411 118.306 44.4958 119.068 45.8728C119.829 47.2351 120.21 48.8538 120.21 50.7289C120.21 52.5893 119.903 54.0981 119.287 55.2553C118.687 56.3979 117.962 57.2549 117.112 57.8262C116.262 58.3975 115.479 58.7637 114.761 58.9249L121.704 70.5926H112.168L106.191 59.5841H106.763V70.5926H98.2371V41.588ZM106.763 53.8271H108.169C108.945 53.8271 109.685 53.644 110.388 53.2777C111.106 52.9115 111.465 52.1571 111.465 51.0145C111.465 49.8719 111.121 49.1175 110.432 48.7513C109.744 48.3851 109.011 48.2019 108.235 48.2019H106.763V53.8271Z" fill="#090808"/>
<path d="M80.5273 48.971H74.2649V41.588H95.2933V48.971H89.0309V70.5926H80.5273V48.971Z" fill="#090808"/>
<path d="M234 80.9945L232.332 94.5001H229.292L230.005 88.753H225.13L224.416 94.5001H221.375L223.044 80.9945H226.084L225.38 86.6952H230.256L230.96 80.9945H234Z" fill="#161515"/>
<path d="M201.853 83.386H198.424L197.052 94.5001H194.049L195.402 83.386H191.954L192.25 80.9945H202.169L201.853 83.386Z" fill="#161515"/>
<path d="M173.334 92.09L173.037 94.5001H165.473L167.142 80.9945H170.163L168.792 92.09H173.334Z" fill="#161515"/>
<path d="M142.757 89.3555L142.098 85.4994C142.049 85.2584 141.993 84.9742 141.932 84.6467C141.876 84.313 141.82 83.9545 141.765 83.5714C141.616 83.9607 141.468 84.3222 141.32 84.6559C141.178 84.9834 141.054 85.2708 140.949 85.518L139.364 89.3555H142.757ZM146.77 94.5001H144.434C144.175 94.5001 143.971 94.4413 143.823 94.3239C143.68 94.2003 143.581 94.0397 143.526 93.8419L143.109 91.4133H138.52L137.519 93.8419C137.433 94.0088 137.294 94.1602 137.102 94.2961C136.917 94.4321 136.704 94.5001 136.463 94.5001H134.09L140.541 80.9945H143.637L146.77 94.5001Z" fill="#161515"/>
<path d="M110.07 83.3211L109.672 86.584H113.491L113.194 88.8272H109.394L108.976 92.1734H114.01L113.713 94.5001H105.649L107.317 80.9945H115.363L115.066 83.3211H110.07Z" fill="#161515"/>
<path d="M86.8899 80.9945L85.2214 94.5001H82.181L82.8947 88.753H78.019L77.3053 94.5001H74.2649L75.9334 80.9945H78.9738L78.2693 86.6952H83.145L83.8495 80.9945H86.8899Z" fill="#161515"/>
</svg>
