<svg width="16" height="16" viewBox="0 0 16 16" fill="none" xmlns="http://www.w3.org/2000/svg">
<g clip-path="url(#clip0_2038_335)">
<path d="M13.193 0H2.80702C1.25674 0 0 1.25674 0 2.80702V13.193C0 14.7433 1.25674 16 2.80702 16H13.193C14.7433 16 16 14.7433 16 13.193V2.80702C16 1.25674 14.7433 0 13.193 0Z" fill="white"/>
<path d="M16 11.0116V12.4647C15.9088 12.4735 15.815 12.478 15.7188 12.478C14.001 12.478 13.0339 11.0472 12.9922 9.25681C12.9909 9.1876 12.9914 9.11882 12.9929 9.0505C12.9939 9.00789 12.9956 8.96542 12.9977 8.92311C12.9988 8.9005 12.9998 8.87927 13.0016 8.85558C13.0032 8.83188 13.0049 8.80819 13.0069 8.7845C13.0688 7.99402 13.3233 7.2906 13.7433 6.77013C14.0042 6.44703 14.3177 6.20088 14.6733 6.03625C14.9856 5.87902 15.4246 5.79224 15.7824 5.79224H15.7978C15.8656 5.79224 15.933 5.7945 16 5.79897V6.19877C15.9289 6.17928 15.8528 6.16883 15.7719 6.16749C15.0482 6.18241 14.617 7.04921 14.5633 8.25017H16V8.58864H14.5308L14.5304 8.58896C14.4641 9.75911 15.1046 10.748 16 11.0116Z" fill="#161515"/>
<path d="M13.0643 3.82239L13.0769 3.81963V3.72192H10.5002L8.10767 9.34519L5.71513 3.72192H2.93842V3.81963L2.95089 3.82239C3.4212 3.92855 3.65998 4.08686 3.65998 4.6578V11.3419C3.65998 11.9128 3.42028 12.0711 2.94997 12.1773L2.9375 12.1801V12.2781H4.82141V12.1804L4.80895 12.1776C4.33863 12.0714 4.09984 11.9131 4.09984 11.3422V5.04552L7.17333 12.2781H7.34764L10.5107 4.84381V11.5073C10.4704 11.9582 10.2338 12.0974 9.80789 12.1936L9.79527 12.1965V12.2935H13.0769V12.1965L13.0643 12.1936C12.638 12.0974 12.3957 11.9582 12.3554 11.5073L12.3532 4.6578H12.3554C12.3554 4.08686 12.5941 3.92855 13.0643 3.82239Z" fill="#161515"/>
</g>
<defs>
<clipPath id="clip0_2038_335">
<rect width="16" height="16" fill="white"/>
</clipPath>
</defs>
</svg>
