<svg width="16" height="16" viewBox="0 0 16 16" fill="none" xmlns="http://www.w3.org/2000/svg">
<g clip-path="url(#clip0_2268_62)">
<path d="M13.193 0H2.80702C1.25674 0 0 1.25674 0 2.80702V13.193C0 14.7433 1.25674 16 2.80702 16H13.193C14.7433 16 16 14.7433 16 13.193V2.80702C16 1.25674 14.7433 0 13.193 0Z" fill="#161515"/>
<path d="M16 11.0114V12.4646C15.9088 12.4734 15.815 12.4779 15.7188 12.4779C14.001 12.4779 13.0339 11.0471 12.9922 9.25669C12.9909 9.18747 12.9914 9.11869 12.9929 9.05038C12.9939 9.00777 12.9956 8.9653 12.9977 8.92299C12.9988 8.90038 12.9998 8.87915 13.0016 8.85546C13.0032 8.83176 13.0049 8.80807 13.0069 8.78438C13.0688 7.9939 13.3233 7.29047 13.7433 6.77C14.0042 6.44691 14.3177 6.20076 14.6733 6.03613C14.9856 5.8789 15.4246 5.79211 15.7824 5.79211H15.7978C15.8656 5.79211 15.933 5.79438 16 5.79885V6.19865C15.9289 6.17916 15.8528 6.16871 15.7719 6.16736C15.0482 6.18229 14.617 7.04908 14.5633 8.25005H16V8.58852H14.5308L14.5304 8.58883C14.4641 9.75899 15.1046 10.7479 16 11.0114Z" fill="white"/>
<path d="M13.0643 3.82227L13.0769 3.8195V3.7218H10.5002L8.10767 9.34507L5.71513 3.7218H2.93842V3.8195L2.95089 3.82227C3.4212 3.92843 3.65998 4.08674 3.65998 4.65768V11.3418C3.65998 11.9127 3.42028 12.071 2.94997 12.1772L2.9375 12.1799V12.2779H4.82141V12.1802L4.80895 12.1775C4.33863 12.0713 4.09984 11.913 4.09984 11.3421V5.0454L7.17333 12.2779H7.34764L10.5107 4.84369V11.5071C10.4704 11.9581 10.2338 12.0973 9.80789 12.1935L9.79527 12.1964V12.2933H13.0769V12.1964L13.0643 12.1935C12.638 12.0973 12.3957 11.9581 12.3554 11.5071L12.3532 4.65768H12.3554C12.3554 4.08674 12.5941 3.92843 13.0643 3.82227Z" fill="white"/>
</g>
<defs>
<clipPath id="clip0_2268_62">
<rect width="16" height="16" fill="white"/>
</clipPath>
</defs>
</svg>
