<svg width="60" height="60" viewBox="0 0 60 60" fill="none" xmlns="http://www.w3.org/2000/svg">
<g clip-path="url(#clip0_2038_177)">
<path d="M49.4737 0H10.5263C4.71279 0 0 4.71279 0 10.5263V49.4737C0 55.2872 4.71279 60 10.5263 60H49.4737C55.2872 60 60 55.2872 60 49.4737V10.5263C60 4.71279 55.2872 0 49.4737 0Z" fill="#161515"/>
<path d="M60.0001 41.2929V46.7422C59.6579 46.7752 59.3064 46.7921 58.9454 46.7921C52.5037 46.7921 48.877 41.4265 48.7207 34.7126C48.716 34.4531 48.7178 34.1951 48.7235 33.939C48.727 33.7792 48.7334 33.6199 48.7415 33.4612C48.7455 33.3765 48.7495 33.2968 48.7559 33.208C48.7622 33.1191 48.7686 33.0303 48.7761 32.9415C49.008 29.9771 49.9623 27.3393 51.5373 25.3875C52.5158 24.1759 53.6916 23.2529 55.0249 22.6355C56.1961 22.0459 57.8421 21.7205 59.1839 21.7205H59.2419C59.4962 21.7205 59.7488 21.729 60.0001 21.7457V23.245C59.7335 23.1719 59.4482 23.1327 59.1447 23.1276C56.431 23.1836 54.8138 26.4341 54.6124 30.9377H60.0001V32.207H54.4907L54.4889 32.2082C54.2405 36.5962 56.6422 40.3047 60.0001 41.2929Z" fill="white"/>
<path d="M48.9911 14.3335L49.0385 14.3232V13.9568H39.3758L30.4038 35.044L21.4317 13.9568H11.0191V14.3232L11.0658 14.3335C12.8295 14.7316 13.7249 15.3253 13.7249 17.4663V42.5316C13.7249 44.6726 12.8261 45.2663 11.0624 45.6644L11.0156 45.6748V46.0423H18.0803V45.6759L18.0336 45.6656C16.2698 45.2675 15.3744 44.6738 15.3744 42.5328V18.9203L26.9 46.0423H27.5537L39.415 18.1639V43.1518C39.2639 44.8428 38.3766 45.365 36.7796 45.7256L36.7322 45.7365V46.1H49.0385V45.7365L48.9911 45.7256C47.3924 45.365 46.4837 44.8428 46.3326 43.1518L46.3245 17.4663H46.3326C46.3326 15.3253 47.228 14.7316 48.9911 14.3335Z" fill="white"/>
</g>
<defs>
<clipPath id="clip0_2038_177">
<rect width="60" height="60" fill="white"/>
</clipPath>
</defs>
</svg>
