<svg width="50" height="50" viewBox="0 0 50 50" fill="none" xmlns="http://www.w3.org/2000/svg">
<path d="M25.1104 3.50414C25.05 3.2958 24.9646 3.06872 24.6812 3.0708C24.4291 3.0708 24.3187 3.25622 24.3187 3.43122C24.3187 3.6708 24.477 3.78122 24.7354 3.91456L24.7458 3.9208C25 4.04997 25.3021 4.20414 25.3041 4.56455C25.3041 4.9083 25.0146 5.1833 24.5791 5.18539C24.4458 5.18539 24.3396 5.16039 24.2583 5.13747C24.1771 5.1083 24.127 5.08539 24.0979 5.06872C24.0708 4.99997 24.0271 4.71872 24.0083 4.56247L24.1021 4.53956C24.1562 4.73956 24.3041 5.06872 24.6396 5.06872C24.8854 5.06872 25.0312 4.91455 25.0312 4.67497C25.0312 4.4333 24.85 4.31872 24.6041 4.18955L24.5854 4.17914C24.375 4.06872 24.0646 3.90413 24.0625 3.5458C24.0625 3.23122 24.3125 2.96247 24.7354 2.96039C24.8854 2.96039 25.0229 2.9958 25.1479 3.03331C25.1604 3.13955 25.175 3.25206 25.1979 3.42289L25.2062 3.48539L25.1104 3.50622V3.50414Z" fill="#161515"/>
<path d="M23.4145 5.18125C23.4312 5.07709 23.4624 4.76459 23.4687 4.65417H23.3687C23.3416 4.7875 23.2937 4.90417 23.2458 4.97709C23.1833 5.07084 23.0958 5.10625 22.8499 5.13542C22.6874 5.15417 22.5729 5.16459 22.5062 5.13334C22.4437 5.09792 22.4145 5.03125 22.3979 4.87917L22.327 4.26459L22.6354 4.22917C22.9187 4.19584 22.9437 4.2125 23.0124 4.44167L23.1062 4.43125L23.0333 3.80625L22.9395 3.81667C22.9229 4.03959 22.9104 4.06667 22.6166 4.10209L22.3104 4.1375L22.2249 3.4C22.2124 3.30209 22.2187 3.29584 22.3208 3.28334L22.5666 3.25417C22.7999 3.22709 22.8916 3.23959 22.9437 3.30209C22.9937 3.36876 23.0354 3.4375 23.0791 3.56875L23.1708 3.54167C23.1624 3.49375 23.152 3.43959 23.1437 3.38542C23.1208 3.25834 23.0979 3.13334 23.0916 3.07709L21.6416 3.24584L21.652 3.3375C21.9083 3.33125 21.9354 3.3375 21.9687 3.62917L22.1187 4.92292C22.1499 5.18542 22.127 5.21459 21.8333 5.27292L21.8437 5.36459L23.4104 5.18334L23.4145 5.18125Z" fill="#161515"/>
<path fill-rule="evenodd" clip-rule="evenodd" d="M19.7166 3.64581C20.1208 3.54998 20.4395 3.5604 20.6812 3.69998C20.8729 3.81456 21.0395 4.02081 21.1125 4.32081C21.2041 4.70206 21.125 5.02081 20.925 5.26456C20.7312 5.50623 20.4354 5.66039 20.0437 5.75415L19.2896 5.9354L19.2687 5.84998C19.5375 5.76456 19.5583 5.73956 19.4937 5.46873L19.1875 4.19373C19.1229 3.92081 19.0937 3.91456 18.8437 3.95206L18.8208 3.86039L19.7145 3.64581L19.7166 3.64581ZM19.7625 5.38123C19.8208 5.6229 19.9395 5.65831 20.1729 5.60206C20.7687 5.4604 20.9354 4.9479 20.8125 4.43956C20.7333 4.11248 20.5458 3.85832 20.2541 3.76873C20.0895 3.7104 19.8958 3.71665 19.6812 3.76873C19.5479 3.79998 19.4687 3.83748 19.4416 3.86665C19.4145 3.89581 19.4145 3.93332 19.4416 4.05831L19.7583 5.38123H19.7625Z" fill="#161515"/>
<path d="M16.8709 4.8479C16.823 4.7104 16.8772 4.63956 17.0397 4.55623L17.0022 4.4729L16.298 4.78957L16.3355 4.8729C16.5459 4.79165 16.6355 4.7979 16.7105 4.92498C16.7563 5.00415 16.8313 5.1354 16.9542 5.4104L17.2855 6.14373L17.2772 6.1479L15.3584 5.21248L14.9167 5.41249L14.9542 5.49582C15.1001 5.44373 15.1751 5.43957 15.2688 5.4854C15.3542 5.53332 15.3667 5.54165 15.4647 5.7604L15.7605 6.41665C15.8834 6.69165 15.9397 6.83749 15.973 6.9354C16.023 7.08748 15.9667 7.1604 15.798 7.2479L15.8355 7.33123L16.5417 7.01248L16.5042 6.92915C16.2959 7.00832 16.2105 7.00415 16.1272 6.85832C16.0792 6.77499 16.0063 6.63749 15.8813 6.36249L15.5438 5.61457H15.5501L17.5251 6.60207L17.6167 6.5604L17.0751 5.35832C16.9501 5.08124 16.8959 4.94374 16.8667 4.84999L16.8709 4.8479Z" fill="#161515"/>
<path fill-rule="evenodd" clip-rule="evenodd" d="M14.8313 6.63959C15.2042 7.23959 15.0146 7.86667 14.5063 8.18334C14.0042 8.49584 13.3605 8.35417 13.0271 7.82292C12.7146 7.32292 12.7751 6.64167 13.3584 6.27917C13.8292 5.98542 14.4834 6.08542 14.8292 6.64167L14.8313 6.63959ZM13.2646 7.56667C13.5896 8.08751 14.1126 8.28959 14.5042 8.04584C14.8126 7.85417 14.9292 7.42292 14.5959 6.88959C14.2313 6.30417 13.7313 6.18334 13.3688 6.41042C13.0584 6.60417 12.9417 7.04792 13.2646 7.56667Z" fill="#161515"/>
<path d="M12.448 9.47498L12.5042 9.5479L13.1897 9.01665L13.1334 8.94373C12.9084 9.09165 12.8792 9.09581 12.7063 8.8729L11.9042 7.83748C11.7334 7.61873 11.7417 7.5854 11.9438 7.40623L11.8876 7.33331L11.2021 7.86456L11.2584 7.93748C11.4834 7.78956 11.5146 7.78748 11.6855 8.00831L12.4876 9.04373C12.6584 9.26456 12.6501 9.29582 12.4501 9.47498H12.448Z" fill="#161515"/>
<path d="M10.9418 8.72707C10.8084 8.63748 10.7313 8.5979 10.6668 8.5854C10.5751 8.56457 10.5188 8.5854 10.3397 8.75207L10.1709 8.9104L11.2709 10.0875C11.448 10.2771 11.4897 10.2833 11.7292 10.0854L11.7918 10.1521L11.1043 10.7937L11.0417 10.7271C11.2459 10.5104 11.2418 10.4666 11.0667 10.2792L9.96675 9.10207L9.81883 9.23957C9.62091 9.42499 9.58966 9.48957 9.6105 9.5729C9.61883 9.63957 9.66258 9.72499 9.73341 9.85832L9.66466 9.9229C9.54175 9.76874 9.40841 9.60207 9.29175 9.46457L9.33966 9.42082C9.42508 9.44374 9.4605 9.42082 9.52716 9.35832L10.4709 8.47498C10.5355 8.41457 10.5417 8.38332 10.5376 8.30207L10.5876 8.25415C10.6897 8.36457 10.8647 8.52707 11.0063 8.65415L10.9438 8.72707L10.9418 8.72707Z" fill="#161515"/>
<path d="M10.3165 11.5333C10.2728 11.4187 10.1395 11.2 10.054 11.0687L9.96447 11.1187C10.1082 11.4541 10.1332 11.7062 9.91655 11.9604C9.59572 12.3396 9.04363 12.3458 8.57488 11.95C8.19572 11.6291 8.03113 11.1083 8.38322 10.6916C8.6103 10.4208 8.84572 10.3625 9.16447 10.5208L9.2103 10.4312C9.08739 10.3479 8.98738 10.2854 8.86447 10.2104L8.78947 10.1625C8.7728 10.1771 8.74988 10.1937 8.7228 10.2125C8.62905 10.2812 8.48113 10.3916 8.3478 10.5479C7.87697 11.1062 7.88321 11.8041 8.40821 12.2479C8.80613 12.5833 9.46655 12.675 9.99155 12.0521C10.1436 11.8729 10.2707 11.6187 10.3124 11.5354L10.3165 11.5333Z" fill="#161515"/>
<path fill-rule="evenodd" clip-rule="evenodd" d="M8.5334 13.8771L8.45632 13.8271C8.54798 13.6396 8.54173 13.6021 8.41256 13.5667C8.31465 13.5396 8.18548 13.5104 8.03965 13.475L7.89173 13.4396L7.5084 14.0229L7.5209 14.0396C7.61048 14.1583 7.69381 14.2688 7.78131 14.375C7.91465 14.5479 7.9584 14.5417 8.11256 14.35L8.18965 14.4L7.80006 14.9938L7.72298 14.9438C7.81256 14.7563 7.8209 14.7063 7.64173 14.4521L6.57715 12.9417L6.6084 12.8417C6.81048 12.8896 7.01881 12.9417 7.23131 12.9917C7.62923 13.0875 8.0334 13.1875 8.41881 13.2771C8.71048 13.3438 8.76048 13.325 8.89173 13.1583L8.96881 13.2083L8.52923 13.8792L8.5334 13.8771ZM6.8959 13.1833L6.89173 13.1896C7.0584 13.4167 7.22715 13.6458 7.38756 13.8625L7.41881 13.9063L7.75006 13.4021L6.89381 13.1854L6.8959 13.1833Z" fill="#161515"/>
<path fill-rule="evenodd" clip-rule="evenodd" d="M7.61245 15.3854C7.63329 15.3521 7.64995 15.3188 7.66662 15.2834L7.59578 15.2334C7.54578 15.2896 7.4812 15.3417 7.35412 15.3771C7.2437 15.4104 7.13537 15.4334 6.9312 15.4646C6.7562 15.4875 6.49787 15.5125 6.37703 15.5146C6.38953 15.25 6.31245 15.0188 6.06037 14.8938C5.88537 14.8063 5.71453 14.8167 5.57912 14.8979C5.44995 14.9729 5.35412 15.1042 5.24787 15.3188L4.88745 16.0459L4.9687 16.0875C5.10203 15.8688 5.12287 15.85 5.37287 15.9729L6.55204 16.5563C6.80204 16.6792 6.8062 16.7146 6.70412 16.9646L6.78745 17.0063L7.1687 16.2354L7.08745 16.1938C6.95412 16.4209 6.92287 16.4375 6.67287 16.3146L6.2062 16.0834L6.25203 15.9896C6.32703 15.8375 6.38745 15.8042 6.4937 15.7959C6.53328 15.7917 6.57495 15.7896 6.6187 15.7854C6.77912 15.7729 6.9562 15.7563 7.10829 15.7334C7.36453 15.6959 7.48954 15.6042 7.61037 15.3896L7.61245 15.3854ZM6.25412 15.5313C6.27704 15.6334 6.25412 15.7417 6.17704 15.8917L6.10829 16.0334L5.38745 15.675C5.30829 15.6354 5.27912 15.6063 5.27496 15.5792C5.2687 15.5479 5.2812 15.4917 5.32496 15.4063C5.43537 15.1834 5.65621 15.0334 5.97287 15.1896C6.1312 15.2688 6.22496 15.3729 6.25621 15.5313L6.25412 15.5313Z" fill="#161515"/>
<path d="M6.1209 17.2562C6.21674 17.3104 6.4834 17.477 6.56882 17.5395L6.03132 19.0229L5.9459 18.9916C6.02507 18.7041 6.01048 18.6708 5.76048 18.5791L4.53548 18.1354C4.2584 18.0354 4.23965 18.0562 4.13132 18.2895L4.0459 18.2583L4.54382 16.8854C4.59798 16.9041 4.71881 16.9395 4.84173 16.977C4.89381 16.9916 4.94798 17.0083 4.9959 17.0229L4.97923 17.1166C4.83965 17.0979 4.76048 17.1041 4.67923 17.1187C4.59798 17.1375 4.54798 17.2145 4.46673 17.4354L4.38131 17.6687C4.3459 17.7645 4.35006 17.7729 4.44381 17.8062L5.14173 18.0583L5.2459 17.7687C5.3459 17.4916 5.32715 17.4666 5.13548 17.352L5.16881 17.2625L5.76048 17.477L5.72715 17.5666C5.49173 17.527 5.46465 17.5416 5.36881 17.8083L5.26256 18.1L5.84381 18.3104C5.98756 18.3625 6.06048 18.3687 6.11881 18.327C6.17715 18.2812 6.21881 18.175 6.27506 18.0208C6.36048 17.7875 6.36673 17.6916 6.31048 17.5958C6.26881 17.5208 6.1834 17.425 6.07506 17.3395L6.1209 17.252L6.1209 17.2562Z" fill="#161515"/>
<path d="M3.99161 19.1958C4.05202 19.1688 4.13744 19.1604 4.29994 19.1625L4.31244 19.0688C4.12494 19.0396 3.88744 19 3.7416 18.9646L3.72494 19.0313C3.77285 19.0958 3.78535 19.1271 3.7666 19.2125L3.46452 20.4688C3.44369 20.5583 3.42702 20.5979 3.34369 20.625L3.3291 20.6896C3.50202 20.7375 3.70618 20.8042 3.8916 20.8646L3.91452 20.7729C3.78327 20.7021 3.69993 20.6542 3.65618 20.6042C3.59368 20.5458 3.58327 20.475 3.64577 20.2104L3.69368 20.0125L5.26035 20.3875C5.51243 20.4479 5.53743 20.4813 5.48743 20.775L5.57701 20.7959L5.79576 19.8833L5.70618 19.8625C5.61452 20.1604 5.57702 20.1771 5.32493 20.1188L3.76035 19.7438L3.81452 19.5188C3.87285 19.2792 3.90618 19.2313 3.99576 19.1979L3.99161 19.1958Z" fill="#161515"/>
<path d="M3.35621 21.4396C3.34579 21.6229 3.37912 21.7062 3.52079 21.7354C3.61662 21.7583 3.76246 21.7812 4.06454 21.8146L5.37495 21.9583L5.36454 22.0583L3.5062 23.2562V23.2625L4.32287 23.3521C4.62287 23.3854 4.77912 23.3916 4.87495 23.3937C5.0437 23.3958 5.08953 23.325 5.12704 23.1062L5.2187 23.1166L5.13329 23.8875L5.04162 23.8771C5.05204 23.6875 5.0187 23.6021 4.86245 23.5666C4.76245 23.5458 4.60829 23.5187 4.30828 23.4854L3.59162 23.4062C3.35412 23.3791 3.33953 23.3854 3.2562 23.4354C3.16662 23.4916 3.13329 23.5604 3.10412 23.7125L3.01245 23.7021L3.06662 23.2208L4.84995 22.0437V22.0333L4.04995 21.9458C3.74995 21.9125 3.59995 21.9083 3.50828 21.9083C3.36036 21.9083 3.30828 21.9812 3.27078 22.2041L3.17912 22.1937L3.26453 21.4271L3.3562 21.4375L3.35621 21.4396Z" fill="#161515"/>
<path d="M5.03968 25.2688H5.13135L5.1376 24.4021H5.04593C5.02509 24.6688 5.00843 24.6959 4.72718 24.6938L3.41885 24.6834C3.13968 24.6813 3.12093 24.6542 3.10426 24.3854H3.0126L3.00635 25.2521H3.09801C3.11885 24.9834 3.13968 24.9584 3.41676 24.9604L4.7251 24.9709C5.00426 24.9729 5.02301 25 5.03968 25.2688Z" fill="#161515"/>
<path fill-rule="evenodd" clip-rule="evenodd" d="M37.5876 38.3958H12.4063C12.3001 38.3958 12.2126 38.3083 12.2126 38.202C12.2126 38.0958 12.3001 38.0083 12.4063 38.0083H21.8938C22.373 37.752 22.7272 37.4833 22.7813 37.2125C22.9313 36.4625 23.2313 34.8166 22.7813 33.2437C22.3313 32.0666 21.2001 31.2583 19.8959 30.7041C19.5084 30.7604 19.0417 30.9208 18.6647 31.3083C18.9959 31.5895 19.2334 31.7354 19.2626 31.752C19.2626 31.752 17.9042 32.7104 17.5897 33.5187C17.3917 33.2625 16.6147 32.4854 16.3063 32.377C16.4501 32.0729 17.1792 30.9812 18.0022 30.6333C18.0834 30.7625 18.2167 30.9083 18.3647 31.0479C18.6022 30.825 18.9147 30.6062 19.3126 30.477C17.9209 29.977 16.4272 29.7312 15.3792 29.6104C15.3522 29.9729 15.3542 30.3791 15.3855 30.9041C13.273 30.5541 11.0938 31.4604 11.0938 31.4604C11.073 31.352 10.6563 29.1958 11.1459 27.9604C12.0563 27.6229 14.4272 28.002 15.6313 28.2604C15.5334 28.5979 15.4647 28.8958 15.4209 29.2104C16.448 29.052 17.3855 29.027 18.2334 29.0895C17.9147 28.6458 17.3397 28.052 16.3417 27.5979C15.3792 27.1583 14.6709 26.5895 14.2167 26.152C13.7813 26.3354 13.3709 26.5583 13.123 26.7416C12.9126 25.4541 12.2022 23.6354 11.3167 22.8687C11.3167 22.8687 13.5438 22.3333 14.4688 21.6354C14.4792 21.7062 14.4876 21.7812 14.498 21.8583C14.6459 22.9708 14.9022 24.8833 15.5542 25.7875C15.2272 25.7937 14.8709 25.8854 14.4355 26.0604C15.0292 26.5666 15.7584 27.0166 16.8417 27.302C16.7876 27.0562 16.7355 26.6833 16.7959 26.2062C16.6251 26.2062 16.5438 26.2229 16.3626 26.2541C16.3042 25.725 16.2438 24.6895 16.4292 24.3145C16.9813 24.1583 17.8897 24.4312 17.9355 24.4458C17.9355 24.4458 17.4501 25.3416 17.5084 26.2645C17.2709 26.227 17.2605 26.2291 17.0959 26.225C17.0667 26.7583 17.1147 27.0895 17.2584 27.4C18.5605 27.8145 19.1667 28.6354 19.5522 29.2562C20.3001 29.3958 20.8584 29.5583 21.4292 29.7625C21.4188 29.5166 21.3938 29.1083 21.2147 28.7708C21.0688 28.8104 20.9563 28.8625 20.7876 28.9437C20.6272 28.0333 19.9459 27.275 19.9459 27.275C19.9938 27.2479 20.8084 26.7729 21.3792 26.7937C21.648 27.1166 21.8313 28.1375 21.898 28.6645C21.6959 28.677 21.6751 28.6645 21.4897 28.7125C21.7042 29.1562 21.7667 29.5312 21.8063 29.902C22.2105 30.0562 22.5667 30.2083 22.873 30.3395L22.998 30.3937C23.2751 28.2125 22.2042 26.4312 21.4688 25.4958C20.9688 25.8687 20.4917 26.2687 20.2897 26.475C19.8959 24.9541 17.6501 22.95 17.6501 22.95C17.7397 22.9062 19.548 21.9625 20.148 21.1979C21.5542 21.9937 22.6355 24.1104 22.8376 24.6875C22.5917 24.7437 22.173 24.9958 21.7397 25.302C22.0667 25.5437 22.4605 25.8875 22.8813 26.3708C23.0772 26.5937 23.2501 26.852 23.4105 27.1354C23.623 26.9479 23.9105 26.65 24.1188 26.2625C23.8147 26.1562 23.5272 26.0687 23.3813 26.0395C24.0188 25.3416 24.2938 23.5479 24.2938 23.5479C24.3459 23.5791 25.4167 24.1812 26.0001 24.2333C26.0605 25.2041 25.348 26.4479 25.1209 26.7375C25.0063 26.625 24.7126 26.4875 24.3938 26.3625C24.2751 26.7583 24.0438 27.1958 23.6688 27.6291C24.023 28.3791 24.3042 29.2458 24.5772 30.0916C24.6522 30.3208 24.7251 30.5479 24.8001 30.7708C27.5022 28.5187 26.723 24.3354 26.1647 22.3937C25.7959 22.6354 25.4126 22.9375 24.9272 23.3729C23.7667 21.2812 21.4626 20.0062 21.4626 20.0062C21.5417 19.9125 23.1397 18.052 24.5584 17.6208C25.4876 18.1833 26.8001 20.5208 27.4105 21.7541C27.0376 21.9062 26.7209 22.0583 26.4084 22.2437C27.0667 23.1708 27.5313 24.3312 27.7959 25.5312C28.1501 25.1895 28.573 24.875 28.9751 24.6083C28.8272 24.4895 28.6938 24.3958 28.6022 24.3645C28.748 24.0604 29.4772 22.9687 30.3001 22.6208C30.5813 23.077 31.5126 23.7125 31.5584 23.7395C31.5584 23.7395 30.2001 24.6979 29.8876 25.5062C29.7792 25.3687 29.5022 25.0791 29.223 24.8229C28.6001 25.5812 28.2084 26.5645 28.023 27.1166C28.0938 28.1145 28.023 29.0729 27.7959 29.8729C28.4251 29.4812 29.2917 29.2375 30.248 29.1062C30.348 28.1895 31.1126 27.4895 31.7688 27.0541C31.5042 26.7312 31.2313 26.4729 30.8897 26.1854C31.7438 25.2979 33.4938 23.6541 34.4397 23.425C35.5355 24.175 36.4001 26.1937 36.4417 26.2979C36.4417 26.2979 34.1292 26.7666 32.5751 28.2395C32.3397 27.8416 32.1355 27.5312 31.9355 27.2666C31.3459 27.9812 31.1647 28.7 31.1126 29.0187C32.2605 28.9375 33.473 28.9895 34.5355 29.1208C34.6313 28.5895 34.6855 28.0937 34.6313 27.8437C35.2397 27.7791 37.6147 27.8687 38.9292 28.8062C38.4897 29.6729 38.398 31.7104 38.3959 31.8104C38.3959 31.8104 35.6292 30.6208 34.0876 30.9062C34.1855 30.6458 34.3397 30.0791 34.4626 29.4916C32.2792 29.452 30.9063 29.7541 29.8188 30.3104C30.5459 30.3749 31.0209 30.4729 31.3272 30.5687C31.4334 30.3395 31.5105 30.1291 31.5167 30.0062C31.8501 30.0604 33.1022 30.4562 33.6647 31.1479C33.3042 31.5458 32.9563 32.6166 32.9417 32.6708C32.9417 32.6708 31.6417 31.6333 30.7792 31.5583C30.8834 31.4124 31.0209 31.2166 31.1896 30.8687C30.6688 30.7291 29.9105 30.6208 29.2105 30.7333C28.8084 30.9916 28.473 31.1916 28.098 31.5208C27.6397 31.9208 27.2959 32.452 27.0605 33.0374C27.2376 33.2979 27.3501 33.6708 27.3501 34.0895C27.3501 34.7666 27.0605 35.3291 26.6709 35.4729C26.723 36.4104 27.0084 37.252 27.5042 37.7395C27.6042 37.8291 27.7251 37.9208 27.8688 38.0062H37.5855C37.6917 38.0062 37.7792 38.0937 37.7792 38.1999C37.7792 38.3062 37.6917 38.3937 37.5855 38.3937L37.5876 38.3958ZM26.7897 33.9395C26.8251 33.5437 26.6855 33.2062 26.4772 33.1895C26.2688 33.1708 26.0709 33.477 26.0355 33.8729C26.0022 34.2687 26.1417 34.6041 26.348 34.6229C26.5563 34.6416 26.7522 34.3354 26.7897 33.9395Z" fill="#161515"/>
<path d="M25.8041 5.05207L25.7979 5.14373L26.6645 5.1979L26.6708 5.10623C26.4041 5.07082 26.3791 5.05207 26.3958 4.77081L26.477 3.46456C26.4937 3.18748 26.5208 3.16873 26.7916 3.16456L26.7978 3.0729L25.9312 3.02081L25.9249 3.11248C26.1916 3.1479 26.2166 3.17081 26.1999 3.4479L26.1208 4.75415C26.1041 5.03123 26.077 5.04998 25.8062 5.05415L25.8041 5.05207Z" fill="#161515"/>
<path d="M29.402 4.67499C29.2041 4.67291 29.1874 4.68749 29.1562 4.87707L29.1124 5.15207C29.0937 5.26457 29.0812 5.36874 29.0853 5.45832L29.0291 5.46249C28.8291 5.47916 28.5791 5.49791 28.3416 5.46249C27.6312 5.34791 27.227 4.82916 27.3312 4.18957C27.452 3.43957 28.1124 3.17291 28.7458 3.27499C28.9728 3.31249 29.177 3.39791 29.2958 3.44583C29.3166 3.45416 29.3353 3.46249 29.3499 3.46874C29.3416 3.58333 29.3291 3.76458 29.3208 3.98124L29.227 3.98541C29.2124 3.57916 28.9853 3.43333 28.6791 3.38333C28.1853 3.30416 27.7645 3.60625 27.6687 4.20416C27.5937 4.66874 27.7812 5.25625 28.4041 5.35624C28.5145 5.37499 28.6187 5.36666 28.6958 5.34375C28.7666 5.31875 28.8103 5.28541 28.8333 5.15L28.877 4.875C28.9145 4.64166 28.8958 4.61875 28.5833 4.54166L28.5978 4.45416L29.4187 4.58749L29.4041 4.67499L29.402 4.67499Z" fill="#161515"/>
<path d="M32.1125 4.46667C32.1666 4.33333 32.2541 4.31458 32.4333 4.35833L32.4604 4.27083L31.7208 4.04791L31.6937 4.13541C31.9062 4.2125 31.9687 4.27708 31.9416 4.42291C31.925 4.5125 31.8937 4.66041 31.8062 4.95L31.5729 5.72083H31.5625L30.7312 3.75L30.2666 3.61041L30.2395 3.69791C30.3833 3.75416 30.4437 3.8 30.4833 3.89791C30.5166 3.98958 30.5187 4.00416 30.45 4.23333L30.2416 4.92291C30.1541 5.21041 30.1 5.35833 30.0604 5.45208C29.9979 5.6 29.9083 5.61875 29.7229 5.57291L29.6958 5.66041L30.4375 5.88541L30.4646 5.79791C30.2562 5.72083 30.1958 5.6625 30.227 5.49791C30.2458 5.40416 30.2812 5.25208 30.3687 4.96249L30.6062 4.17708H30.6125L31.45 6.22291L31.5479 6.25207L31.9291 4.98958C32.0166 4.69791 32.0666 4.55832 32.1062 4.46874L32.1125 4.46667Z" fill="#161515"/>
<path fill-rule="evenodd" clip-rule="evenodd" d="M35.8896 8.43958C36.3896 8.76874 37.0396 8.68124 37.4292 8.09166C37.7896 7.54583 37.6104 6.90833 37.1458 6.60208C36.5729 6.22291 35.9271 6.45208 35.6021 6.94374C35.2563 7.46875 35.3958 8.1125 35.8896 8.43958ZM36.0104 8.37916C35.625 8.12499 35.5917 7.56458 35.9292 7.05208C36.2667 6.54166 36.7187 6.46249 37.0229 6.66458C37.3812 6.9 37.4792 7.40625 37.1 7.98125C36.7542 8.50625 36.3125 8.57916 36.0104 8.37916Z" fill="#161515"/>
<path d="M40.2334 9.22085C40.0771 9.1021 39.9896 9.08752 39.8896 9.1771C39.825 9.23752 39.7271 9.3396 39.5292 9.56669L39.35 9.77085C39.0959 10.0625 38.8688 10.2334 38.5959 10.2584C38.3792 10.2771 38.1688 10.1854 38.0063 10.0438C37.8626 9.91877 37.7501 9.76043 37.7146 9.58127C37.6646 9.3396 37.7584 9.09377 38.0084 8.80418L38.5459 8.18752C38.7396 7.9646 38.7292 7.93752 38.548 7.7521L38.6084 7.68335L39.248 8.2396L39.1876 8.30835C38.9813 8.15002 38.9501 8.14793 38.7563 8.37085L38.2667 8.93335C37.9209 9.33127 37.8813 9.69585 38.1876 9.96252C38.5438 10.2729 38.9126 10.0729 39.2667 9.6646L39.4292 9.4771C39.6271 9.25002 39.7105 9.1396 39.7667 9.05419C39.8355 8.94585 39.8105 8.87085 39.648 8.70835L39.7084 8.6396L40.2959 9.1521L40.2355 9.22085H40.2334Z" fill="#161515"/>
<path d="M41.8813 11.3271C41.998 11.2417 42.0813 11.2729 42.2105 11.4042L42.2792 11.3437L41.7688 10.7646L41.7001 10.825C41.8396 11.0021 41.8584 11.0896 41.7584 11.2C41.6959 11.2687 41.5917 11.3771 41.3646 11.575L40.7605 12.1062L40.7542 12.0979L41.0876 9.98958L40.7667 9.625L40.698 9.68541C40.7896 9.81042 40.8167 9.88125 40.8001 9.98333C40.7792 10.0792 40.7751 10.0937 40.5959 10.25L40.0542 10.725C39.8271 10.9229 39.7042 11.0208 39.6209 11.0792C39.4896 11.1729 39.4042 11.1396 39.2709 11.0042L39.2021 11.0646L39.7146 11.6479L39.7834 11.5875C39.6459 11.4125 39.6251 11.3292 39.7396 11.2062C39.8042 11.1354 39.9167 11.025 40.1417 10.8271L40.7584 10.2854L40.7626 10.2896L40.3959 12.4687L40.4626 12.5458L41.4542 11.675C41.6834 11.475 41.798 11.3812 41.8792 11.3271H41.8813Z" fill="#161515"/>
<path fill-rule="evenodd" clip-rule="evenodd" d="M43.248 12.7187C43.4771 13.0646 43.5771 13.3687 43.5292 13.6437C43.4876 13.8646 43.3521 14.0917 43.0959 14.2625C42.7688 14.4792 42.4417 14.5146 42.1459 14.4104C41.8522 14.3104 41.6042 14.0854 41.3813 13.75L40.9521 13.1042L41.0251 13.0562C41.198 13.2792 41.2271 13.2917 41.4605 13.1375L42.5542 12.4125C42.7896 12.2562 42.7855 12.2271 42.6626 12.0062L42.7417 11.9542L43.2501 12.7208L43.248 12.7187ZM41.6355 13.3583C41.4292 13.4958 41.4355 13.6208 41.5688 13.8187C41.9063 14.3292 42.4459 14.3104 42.8813 14.0208C43.1626 13.8354 43.3355 13.5687 43.3188 13.2667C43.3167 13.0917 43.2438 12.9125 43.123 12.7292C43.048 12.6146 42.9876 12.5521 42.9501 12.5375C42.9126 12.5229 42.8771 12.5354 42.7709 12.6062L41.6376 13.3583L41.6355 13.3583Z" fill="#161515"/>
<path fill-rule="evenodd" clip-rule="evenodd" d="M42.998 16.3583L42.9168 16.4L43.2751 17.1187L43.3563 17.0771C43.2793 16.8771 43.2855 16.8271 43.4918 16.6083C43.7626 16.3229 44.0501 16.0229 44.3313 15.7291C44.4834 15.5708 44.6355 15.4125 44.7792 15.2604L44.7084 15.1833L42.8688 15.3416C42.5605 15.3666 42.523 15.3354 42.4043 15.1646L42.323 15.2062L42.6397 15.8416L42.7209 15.8C42.6313 15.5708 42.648 15.5291 42.8647 15.5021C43.0001 15.4791 43.1397 15.4625 43.2876 15.4458H43.3063L43.6167 16.0666C43.5792 16.1062 43.5417 16.1458 43.5042 16.1833C43.4042 16.2896 43.3147 16.3812 43.2438 16.452C43.148 16.5479 43.1126 16.5333 42.9959 16.3604L42.998 16.3583ZM44.3376 15.325V15.3312L43.7209 15.9604L43.4522 15.4208C43.7355 15.3896 44.0376 15.3562 44.3376 15.325Z" fill="#161515"/>
<path d="M45.4687 18.3958C45.6041 18.3083 45.6708 18.2521 45.7062 18.1979C45.7625 18.1208 45.7646 18.0625 45.6812 17.8312L45.6021 17.6125L44.0896 18.1646C43.8458 18.2541 43.825 18.2896 43.9125 18.5875L43.8271 18.6187L43.5042 17.7354L43.5896 17.7041C43.7104 17.9771 43.75 17.9916 43.9937 17.9021L45.5062 17.35L45.4375 17.1583C45.3437 16.9021 45.2958 16.85 45.2125 16.8375C45.1458 16.8187 45.0521 16.8271 44.9021 16.8375L44.8687 16.7479C45.0583 16.6958 45.2646 16.6375 45.4354 16.5833L45.4583 16.6458C45.4042 16.7146 45.4125 16.7562 45.4437 16.8437L45.8875 18.0583C45.9187 18.1416 45.9458 18.1583 46.0229 18.1875L46.0458 18.2521C45.9042 18.3041 45.6854 18.4021 45.5125 18.4812L45.4708 18.3958L45.4687 18.3958Z" fill="#161515"/>
<path d="M44.1916 19.4854L44.1021 19.5083L44.3229 20.3479L44.4125 20.325C44.3625 20.0604 44.3729 20.0313 44.6437 19.9604L45.9104 19.6271C46.1791 19.5563 46.2041 19.5771 46.2916 19.8313L46.3812 19.8083L46.1604 18.9688L46.0708 18.9917C46.1208 19.2563 46.1083 19.2875 45.8395 19.3583L44.5729 19.6917C44.3041 19.7625 44.277 19.7417 44.1916 19.4875V19.4854Z" fill="#161515"/>
<path fill-rule="evenodd" clip-rule="evenodd" d="M45.8707 22.7979C45.1728 22.9083 44.6686 22.4854 44.577 21.8937C44.4853 21.3083 44.8686 20.7708 45.4895 20.6749C46.0707 20.5833 46.6749 20.9062 46.7811 21.5854C46.8666 22.1354 46.5186 22.6958 45.8707 22.7979ZM45.629 20.9895C45.0207 21.0854 44.6311 21.4874 44.702 21.9437C44.7582 22.302 45.1103 22.5791 45.7311 22.4812C46.4124 22.375 46.7207 21.9624 46.654 21.5374C46.5978 21.1749 46.2353 20.8937 45.6311 20.9895H45.629Z" fill="#161515"/>
<path d="M46.7312 25.3437C46.875 25.352 46.9208 25.4291 46.9375 25.6125H47.0291L47.002 24.8375L46.9104 24.8416C46.9062 25.0687 46.8666 25.1479 46.7187 25.1687C46.627 25.1812 46.477 25.2 46.177 25.2104L45.3729 25.2395V25.2291L46.9645 23.8062L46.9479 23.3229L46.8562 23.327C46.8479 23.4812 46.825 23.5541 46.7458 23.6229C46.6687 23.6854 46.6562 23.6916 46.4187 23.7L45.7 23.725C45.3979 23.7354 45.2416 23.7312 45.1395 23.725C44.9791 23.7145 44.9333 23.6333 44.9166 23.4437L44.825 23.4479L44.852 24.2229L44.9437 24.2187C44.9479 23.9958 44.9854 23.9187 45.152 23.8979C45.2458 23.8854 45.4041 23.8687 45.7041 23.8583L46.525 23.8291V23.8354L44.8604 25.2895L44.8645 25.3916L46.1833 25.3437C46.4874 25.3333 46.6354 25.3333 46.7333 25.3437L46.7312 25.3437Z" fill="#161515"/>
<path d="M11.6749 21.0854C11.2457 19.9396 9.34155 18.5729 9.34155 18.5729C9.40822 18.5313 10.7291 17.6521 11.1311 17.0104C12.2874 17.5125 13.2978 19.0625 13.4999 19.4917C13.0603 19.6417 11.9603 20.7271 11.6749 21.0854Z" fill="#161515"/>
<path d="M38.8417 15.3292C38.8417 15.3292 37.5938 16.2646 37.0854 17.5854C36.4188 17.1396 36.0542 16.9833 35.4958 16.8396C35.7542 16.0667 36.3313 14.5917 36.8292 14.1854C37.6875 14.3208 38.7625 15.2625 38.8375 15.3292H38.8417Z" fill="#161515"/>
<path d="M24.6646 14.6729C25.1875 14.7271 26.375 14.4396 26.75 14.2479C26.6354 14.7688 27.1062 16.5479 27.352 17.1958C27.052 17.0875 25.977 17.3688 25.2687 17.6208C25.3687 16.2854 24.6646 14.6729 24.6646 14.6729Z" fill="#161515"/>
<path d="M29.077 20.5063C28.9061 21.548 28.5374 22.5834 27.8312 23.2375C28.352 22.2313 28.5041 21.0709 28.5707 20.3084C28.1541 20.1646 27.7374 20.0688 27.4312 20.073C28.052 19.1417 28.2395 17.2167 28.3478 16.1021C28.3562 16.025 28.3624 15.9521 28.3687 15.8813C29.3207 16.5459 31.5645 17 31.5645 17C30.7062 17.798 30.0603 19.6396 29.8957 20.9355C29.6978 20.8 29.4061 20.6438 29.077 20.5042V20.5063Z" fill="#161515"/>
<path d="M30.0833 16.0333C30.5353 15.125 31.4853 12.6083 31.3937 11.8333C31.9124 12.1687 33.5958 12.7646 34.3645 12.7604C34.3645 12.7604 33.1041 15.0041 33.052 16.9604C32.0583 16.4875 30.5374 15.9208 30.0833 16.0333Z" fill="#161515"/>
<path d="M35.9688 21.9896C37.1979 21.2021 38.7479 19.6625 39.1396 18.4105C39.1396 18.4105 40.6792 20.4584 41.8083 21.1C41.7417 21.1417 41.6688 21.1834 41.5917 21.2292C40.5188 21.875 38.6667 22.9896 38.0292 24.0625C37.7083 23.3605 36.5958 22.348 35.9688 21.9896Z" fill="#161515"/>
<path d="M38.2563 28.3021C38.3813 27.7791 37.7209 26.0375 37.1709 24.9C39.4188 24.8271 41.9834 23.3646 41.9834 23.3646C41.9855 24.2479 42.6813 26.175 43.0688 26.7687C42.1792 26.6687 39.2938 27.7771 38.2563 28.3041V28.3021Z" fill="#161515"/>
<path d="M31.6001 20.7166C32.9834 19.975 34.4022 17.3187 34.4022 17.3187C34.4668 17.3958 35.8084 18.9291 36.6959 19.3312C36.2543 20.8854 34.4543 22.4396 33.9397 22.7687C33.8397 22.5646 33.4813 22.1958 33.1272 21.8771C32.6459 22.3333 32.2314 22.9562 31.898 24.1708C31.8209 23.1396 32.2314 22.2187 32.7855 21.5937C32.2834 21.1687 31.8626 20.8708 31.6022 20.7146L31.6001 20.7166Z" fill="#161515"/>
<path d="M17.1271 15.6312C17.1271 15.6312 15.8896 13.8416 14.8354 13.425C15.1729 13.1666 16.2 12.1625 16.3459 11.7562C16.7417 11.95 18.1646 12.9166 18.6084 13.9958C18.0042 14.3583 17.1667 15.5708 17.1292 15.6312L17.1271 15.6312Z" fill="#161515"/>
<path d="M29.4582 14.4667C28.4645 14.3229 27.9687 14.3417 27.2603 14.4812C27.1332 13.4687 26.9874 11.4854 27.3332 10.7562C28.3874 10.4417 30.1374 10.9375 30.2249 10.9646C30.2249 10.9646 29.3207 12.6979 29.4582 14.4667Z" fill="#161515"/>
<path d="M18.3708 20.923C17.6354 20.9667 16.1562 21.3855 15.5437 21.8834C15.45 20.6105 14.2667 18.7542 13.5792 17.675C13.5292 17.5959 13.4812 17.523 13.4375 17.4521C14.7604 17.3813 17.1 16.2084 17.1 16.2084C16.8896 17.5313 17.6042 19.6438 18.3688 20.923H18.3708Z" fill="#161515"/>
<path d="M11.6437 24.525C11.3603 24.8979 11.2687 26.5167 11.3062 27.6187C9.49157 26.8833 6.93115 27.1437 6.93115 27.1437C7.24157 26.4396 7.36865 24.6583 7.26865 24.05C7.94365 24.4437 10.6312 24.5792 11.6437 24.525Z" fill="#161515"/>
<path d="M21.7293 16.9875C20.8897 14.9833 18.9355 13.6021 18.9355 13.6021C19.0168 13.525 20.6439 12.0041 21.9689 11.7562C22.7522 12.3562 23.7043 14.5958 24.1355 15.7708C23.671 15.9041 23.5189 15.9312 23.1126 16.1437C23.3189 16.4687 23.3418 17.0416 23.2335 17.475C23.1501 17.0541 22.7751 16.5666 22.6085 16.4271C22.3501 16.5791 22.0626 16.7521 21.7335 16.9875H21.7293Z" fill="#161515"/>
<path d="M26.2083 12.8688C25.325 12.8125 24.7188 12.8625 23.5354 13.175C23.4292 11.1417 22.0583 9.30211 22.0583 9.30211C22.1604 9.26045 24.2083 8.43753 25.5375 8.63961C26.0708 9.41878 26.2042 11.6979 26.2083 12.8688Z" fill="#161515"/>
<path d="M17.7501 17.2979C17.7501 17.2979 19.2876 16.6166 19.8605 15.9896C19.8689 16.0166 19.8772 16.0437 19.8876 16.0708C19.896 16.0958 19.9043 16.1229 19.9126 16.15C20.1689 16.9333 20.6064 18.2791 21.198 18.8458C20.7022 18.9458 19.8897 19.5083 19.5668 19.8562C19.2439 18.9541 18.4876 17.7354 17.748 17.3L17.7501 17.2979Z" fill="#161515"/>
<path fill-rule="evenodd" clip-rule="evenodd" d="M0 25C0 11.1917 11.1938 0 25 0C38.8062 0 50 11.1917 50 25C50 38.8083 38.8083 50 25 50C11.1938 50 0 38.8083 0 25ZM0.687501 25C0.687501 38.4271 11.5729 49.3125 25 49.3125C38.4271 49.3125 49.3125 38.4271 49.3125 25C49.3125 11.5729 38.4292 0.687497 25 0.687497C11.5708 0.687497 0.687501 11.5729 0.687501 25Z" fill="#161515"/>
<path d="M28.2938 43.2937C28.2938 43.6479 28.2272 43.9562 28.0938 44.2167C27.9605 44.4771 27.7876 44.6896 27.5751 44.8563C27.3605 45.0229 27.1188 45.1479 26.8501 45.2292C26.5813 45.3104 26.3043 45.3521 26.0188 45.3521H24.2917V45.1437C24.348 45.1437 24.423 45.1396 24.5126 45.1292C24.6042 45.1167 24.6647 45.1042 24.6938 45.0917C24.7522 45.0667 24.7938 45.0292 24.8209 44.9792C24.848 44.9292 24.8626 44.8667 24.8626 44.7979V41.7917C24.8626 41.725 24.8501 41.6646 24.8272 41.6125C24.8063 41.5604 24.7605 41.5188 24.6959 41.4875C24.6355 41.4583 24.5688 41.4354 24.5001 41.4229C24.4292 41.4083 24.3688 41.4 24.3188 41.3958V41.1875H26.1397C26.3897 41.1875 26.6376 41.2271 26.8792 41.3042C27.123 41.3813 27.3334 41.4833 27.5126 41.6146C27.7584 41.7896 27.9501 42.0167 28.0876 42.2979C28.2272 42.5792 28.2959 42.9125 28.2959 43.2937H28.2938ZM27.5751 43.2917C27.5751 43.0125 27.5376 42.7583 27.4626 42.5333C27.3876 42.3062 27.2793 42.1083 27.1376 41.9396C27.0022 41.7792 26.8355 41.6521 26.6376 41.5604C26.4418 41.4687 26.223 41.4229 25.9834 41.4229C25.9043 41.4229 25.8126 41.4229 25.7105 41.4292C25.6105 41.4292 25.5355 41.4333 25.4876 41.4354V44.6396C25.4876 44.8187 25.5397 44.9417 25.6438 45.0104C25.748 45.0792 25.9063 45.1125 26.123 45.1125C26.3709 45.1125 26.5897 45.0687 26.7751 44.9812C26.9605 44.8937 27.1126 44.7708 27.2272 44.6146C27.348 44.45 27.4376 44.2604 27.4918 44.0458C27.548 43.8291 27.5772 43.5771 27.5772 43.2937L27.5751 43.2917Z" fill="#161515"/>
<path d="M23.2438 45.3521H21.9167V45.1583C22.0042 45.1479 22.0792 45.1396 22.1396 45.1292C22.2021 45.1187 22.2334 45.0937 22.2334 45.0521C22.2334 45.0354 22.2229 45.0062 22.2042 44.9708C22.1854 44.9333 22.1646 44.9 22.1459 44.8687C22.0959 44.7917 22.0292 44.6896 21.9438 44.5625C21.8604 44.4333 21.7563 44.2792 21.6334 44.1021C21.5313 44.2292 21.4375 44.3542 21.3521 44.475C21.2667 44.5937 21.175 44.7208 21.0813 44.8562C21.0667 44.875 21.0521 44.9 21.0375 44.9292C21.0229 44.9583 21.0167 44.9812 21.0167 45C21.0167 45.0437 21.0438 45.0792 21.0979 45.1083C21.1542 45.1354 21.2396 45.1542 21.35 45.1646V45.3521H20.2771V45.1708C20.4104 45.1312 20.5167 45.0854 20.5979 45.0292C20.6792 44.9729 20.7563 44.9021 20.8229 44.8208C20.8833 44.7416 20.9688 44.6354 21.075 44.4979C21.1854 44.3604 21.325 44.175 21.4979 43.9396C21.3979 43.7958 21.275 43.6229 21.1313 43.4167C20.9875 43.2083 20.8709 43.0375 20.775 42.9C20.725 42.825 20.6646 42.7666 20.5979 42.7208C20.5333 42.675 20.4417 42.65 20.3208 42.65V42.4562H21.5813V42.65C21.5188 42.65 21.4563 42.6542 21.3958 42.6625C21.3354 42.6708 21.3042 42.6875 21.3042 42.7146C21.3042 42.7312 21.3104 42.7521 21.3208 42.7729C21.3313 42.7937 21.3479 42.8187 21.3646 42.8437C21.4083 42.9104 21.475 43.0125 21.5646 43.1521C21.6563 43.2917 21.7563 43.4375 21.8604 43.5917C21.9292 43.4979 22.0084 43.3875 22.0979 43.2625C22.1896 43.1375 22.275 43.0187 22.35 42.9042C22.3584 42.8917 22.3667 42.8729 22.3729 42.8542C22.3813 42.8333 22.3854 42.8125 22.3854 42.7917C22.3854 42.75 22.3521 42.7187 22.2834 42.6937C22.2167 42.6687 22.1521 42.65 22.0917 42.6417V42.4542H23.1604V42.6354C23.0104 42.675 22.8917 42.7208 22.8084 42.7771C22.725 42.8292 22.6521 42.8917 22.5938 42.9625C22.5292 43.0417 22.4521 43.1417 22.3625 43.2583C22.275 43.375 22.15 43.5396 21.9896 43.7521C22.1688 44.0021 22.3125 44.2083 22.425 44.3687C22.5375 44.5292 22.65 44.6937 22.7625 44.8646C22.8188 44.95 22.8813 45.0187 22.95 45.0708C23.0208 45.1187 23.1167 45.1479 23.2375 45.1562V45.35L23.2438 45.3521Z" fill="#161515"/>
<path d="M19.4396 45.3521H17.5625V45.1437C17.6146 45.1396 17.6917 45.1333 17.7917 45.1271C17.8917 45.1187 17.9625 45.1083 18.0021 45.0917C18.0667 45.0667 18.1146 45.0312 18.1437 44.9896C18.1729 44.9437 18.1875 44.8833 18.1875 44.8042V41.7854C18.1875 41.7167 18.1771 41.6604 18.1542 41.6146C18.1333 41.5687 18.0812 41.5292 18.0021 41.4979C17.9438 41.475 17.8688 41.4521 17.7792 41.4333C17.6917 41.4125 17.6187 41.4 17.5625 41.3958V41.1875H19.4396V41.3958C19.3792 41.3958 19.3062 41.4062 19.2229 41.4187C19.1396 41.4312 19.0646 41.4458 19.0021 41.4646C18.9271 41.4875 18.8771 41.5271 18.8521 41.5792C18.8271 41.6312 18.8146 41.6917 18.8146 41.7562V44.7708C18.8146 44.8354 18.8292 44.8937 18.8563 44.9437C18.8854 44.9917 18.9354 45.0312 19.0021 45.0604C19.0438 45.075 19.1104 45.0937 19.2021 45.1125C19.2958 45.1292 19.375 45.1396 19.4396 45.1417V45.35L19.4396 45.3521Z" fill="#161515"/>
<path d="M29.1333 41.1854V41.3938C29.1854 41.3979 29.2562 41.4104 29.3458 41.4292C29.4354 41.4479 29.5083 41.4709 29.5604 41.4958C29.6291 41.5271 29.6729 41.5688 29.6958 41.6188C29.7166 41.6667 29.7291 41.725 29.7291 41.7896V44.7958C29.7291 44.8667 29.7145 44.9271 29.6875 44.9771C29.6625 45.025 29.6208 45.0625 29.5625 45.0896C29.5333 45.1042 29.4687 45.1146 29.3708 45.125C29.2729 45.1334 29.1937 45.1375 29.1354 45.1417V45.35H30.9416V45.1417C30.8916 45.1417 30.8166 45.1292 30.7187 45.1083C30.6208 45.0896 30.5562 45.0729 30.527 45.0583C30.4625 45.0271 30.4166 44.9854 30.3916 44.9354C30.3666 44.8854 30.3541 44.8271 30.3541 44.7625V43.3271H30.6312C31.0229 43.3271 31.1145 43.375 31.175 43.425C31.2145 43.4584 31.2499 43.5125 31.2833 43.5875C31.3187 43.6625 31.3416 43.7229 31.3458 43.7479H31.5687V42.6667H31.3458C31.3354 42.7375 31.3145 42.8042 31.2812 42.8688C31.2499 42.9313 31.2145 42.9771 31.1749 43.0063C31.1187 43.05 31.0229 43.0896 30.6312 43.0896H30.3541V41.425H31.4666C31.8583 41.425 31.95 41.4729 32.0104 41.5229C32.0499 41.5563 32.0854 41.6104 32.1187 41.6854C32.1541 41.7604 32.1812 41.8458 32.1812 41.8458H32.4041V41.1833H29.1354L29.1333 41.1854Z" fill="#161515"/>
<path d="M8.77498 38.4021C8.71665 38.4021 8.66039 38.3771 8.62081 38.3292C6.00831 35.1209 4.40623 31.2563 3.99164 27.15C3.98123 27.0417 4.06039 26.9438 4.16873 26.9334C4.27914 26.9229 4.37498 27.0021 4.38539 27.1104C4.79164 31.1396 6.36248 34.9334 8.92706 38.0792C8.99581 38.1646 8.98331 38.2896 8.89789 38.3584C8.8604 38.3875 8.81664 38.4021 8.77289 38.4021H8.77498Z" fill="#161515"/>
<path d="M41.2251 38.4021C41.1813 38.4021 41.1376 38.3875 41.1001 38.3584C41.0146 38.2896 41.0021 38.1646 41.0709 38.0792C43.6355 34.9313 45.2063 31.1396 45.6126 27.1104C45.623 27.0021 45.7188 26.9229 45.8292 26.9334C45.9376 26.9438 46.0167 27.0417 46.0063 27.15C45.5917 31.2563 43.9917 35.1229 41.3771 38.3292C41.3376 38.3771 41.2813 38.4021 41.223 38.4021H41.2251Z" fill="#161515"/>
<path d="M34.1895 5L34.1416 5.09584C34.1645 5.11042 34.1937 5.13125 34.2291 5.16042C34.2666 5.18959 34.2937 5.21667 34.3124 5.23959C34.3374 5.26876 34.3478 5.29792 34.3458 5.32709C34.3458 5.35417 34.3354 5.38334 34.3208 5.41251L33.6333 6.78334C33.6166 6.81459 33.5978 6.83959 33.5729 6.85626C33.5499 6.87292 33.5229 6.87917 33.4895 6.87917C33.4729 6.87917 33.4416 6.86876 33.3937 6.85209C33.3479 6.83334 33.3104 6.81876 33.2833 6.80626L33.2354 6.90209L34.0583 7.31459L34.1062 7.21876C34.0833 7.20626 34.052 7.18334 34.0124 7.15209C33.9729 7.12084 33.9479 7.09792 33.9374 7.08542C33.9145 7.05625 33.9041 7.02709 33.9041 6.99792C33.9041 6.96875 33.9124 6.93959 33.927 6.91042L34.2562 6.25625L34.3833 6.31875C34.5624 6.40834 34.5937 6.45209 34.6083 6.4875C34.6187 6.5125 34.6228 6.54584 34.6208 6.5875C34.6208 6.62917 34.6166 6.6625 34.6124 6.675L34.7145 6.72708L34.9624 6.23334L34.8603 6.18125C34.8395 6.2125 34.8145 6.2375 34.7853 6.25834C34.7562 6.27917 34.7312 6.29167 34.7062 6.29583C34.6708 6.30208 34.6187 6.3 34.4395 6.21042L34.3124 6.14792L34.6937 5.3875L35.202 5.64167C35.3812 5.73125 35.4124 5.775 35.427 5.81042C35.4374 5.83542 35.4416 5.86875 35.4395 5.91042C35.4395 5.95208 35.4312 5.99792 35.4312 5.99792L35.5333 6.05L35.6853 5.74792L34.1937 5L34.1895 5Z" fill="#161515"/>
</svg>
