<svg width="16" height="16" viewBox="0 0 16 16" fill="none" xmlns="http://www.w3.org/2000/svg">
<g clip-path="url(#clip0_2267_45)">
<path d="M11.5834 7.99998C11.5834 7.58005 11.4168 7.17712 11.1198 6.88019C10.8229 6.58326 10.42 6.41665 10 6.41665C9.58011 6.41665 9.17718 6.58326 8.88025 6.88019C8.58332 7.17712 8.41671 7.58005 8.41671 7.99998C8.41671 8.41991 8.58332 8.82284 8.88025 9.11977C9.17718 9.4167 9.58011 9.58331 10 9.58331C10.42 9.58331 10.8229 9.4167 11.1198 9.11977C11.4168 8.82284 11.5834 8.41991 11.5834 7.99998ZM12.4167 7.99998C12.4167 8.64092 12.1622 9.25575 11.709 9.70896C11.2558 10.1622 10.641 10.4166 10 10.4166C9.3591 10.4166 8.74427 10.1622 8.29106 9.70896C7.83784 9.25575 7.58337 8.64092 7.58337 7.99998C7.58337 7.35904 7.83784 6.74421 8.29106 6.291C8.74427 5.83778 9.3591 5.58331 10 5.58331C10.641 5.58331 11.2558 5.83778 11.709 6.291C12.1622 6.74421 12.4167 7.35904 12.4167 7.99998Z" fill="#090808"/>
<path d="M11.5834 3.99998C11.5834 3.58005 11.4168 3.17712 11.1198 2.88019C10.8229 2.58326 10.42 2.41665 10 2.41665H6.00004C5.58011 2.41665 5.17718 2.58326 4.88025 2.88019C4.58332 3.17712 4.41671 3.58005 4.41671 3.99998C4.41671 4.41991 4.58332 4.82284 4.88025 5.11977C5.17718 5.4167 5.58011 5.58331 6.00004 5.58331H10C10.42 5.58331 10.8229 5.4167 11.1198 5.11977C11.4168 4.82284 11.5834 4.41991 11.5834 3.99998ZM12.4167 3.99998C12.4167 4.64092 12.1622 5.25575 11.709 5.70896C11.2558 6.16218 10.641 6.41665 10 6.41665H6.00004C5.3591 6.41665 4.74427 6.16218 4.29106 5.70896C3.83784 5.25575 3.58337 4.64092 3.58337 3.99998C3.58337 3.35904 3.83784 2.74421 4.29106 2.291C4.74427 1.83778 5.3591 1.58331 6.00004 1.58331H10C10.641 1.58331 11.2558 1.83778 11.709 2.291C12.1622 2.74421 12.4167 3.35904 12.4167 3.99998Z" fill="#090808"/>
<path d="M7.58331 10.4166H5.99998C5.68684 10.4166 5.3808 10.5096 5.12042 10.6836C4.86009 10.8575 4.65694 11.1046 4.53709 11.3939C4.41728 11.6831 4.38622 12.0015 4.44725 12.3086C4.50834 12.6157 4.65876 12.8983 4.88019 13.1198C5.10162 13.3412 5.38425 13.4916 5.69139 13.5527C5.99844 13.6137 6.31686 13.5827 6.6061 13.4629C6.89535 13.343 7.14244 13.1399 7.31639 12.8795C7.49036 12.6192 7.58331 12.3131 7.58331 12V10.4166ZM8.41665 12C8.41665 12.478 8.27464 12.945 8.0091 13.3424C7.74362 13.7397 7.36654 14.0495 6.92511 14.2324C6.48357 14.4153 5.99737 14.4636 5.52863 14.3704C5.05984 14.2772 4.62897 14.0469 4.291 13.709C3.95302 13.371 3.72279 12.9401 3.62954 12.4713C3.53633 12.0026 3.58467 11.5164 3.76756 11.0748C3.94846 10.6383 4.25354 10.265 4.64451 9.99998C4.51876 9.91475 4.39996 9.81793 4.291 9.70896C3.83778 9.25575 3.58331 8.64092 3.58331 7.99998C3.58331 7.35904 3.83778 6.74421 4.291 6.291C4.74421 5.83778 5.35904 5.58331 5.99998 5.58331C6.2301 5.58331 6.41665 5.76986 6.41665 5.99998C6.41665 6.2301 6.2301 6.41665 5.99998 6.41665C5.58005 6.41665 5.17712 6.58326 4.88019 6.88019C4.58326 7.17712 4.41665 7.58005 4.41665 7.99998C4.41665 8.41991 4.58326 8.82284 4.88019 9.11977C5.17712 9.4167 5.58005 9.58331 5.99998 9.58331H7.58331V1.99998C7.58331 1.76986 7.76986 1.58331 7.99998 1.58331C8.2301 1.58331 8.41665 1.76986 8.41665 1.99998V12Z" fill="#090808"/>
</g>
<defs>
<clipPath id="clip0_2267_45">
<rect width="16" height="16" fill="white"/>
</clipPath>
</defs>
</svg>
