<svg width="99" height="94" viewBox="0 0 99 94" fill="none" xmlns="http://www.w3.org/2000/svg">
<path d="M47 0C72.9581 0 94 21.0419 94 47C94 72.9581 72.9581 94 47 94C21.479 94 0.7144 73.6631 0.0187998 48.316L0 47L0.0187998 45.684C0.7144 20.3369 21.479 0 47 0ZM30.55 28.2C27.5668 28.1995 24.6952 29.3338 22.5175 31.3727C20.3398 33.4116 19.0192 36.2024 18.8235 39.1792L18.8 39.95V61.1L18.8329 61.6499C18.9688 62.7922 19.5189 63.8451 20.379 64.609C21.2392 65.3728 22.3496 65.7948 23.5 65.7948C24.6504 65.7948 25.7608 65.3728 26.621 64.609C27.4811 63.8451 28.0312 62.7922 28.1671 61.6499L28.2 61.1V56.4H32.9V61.1L32.9329 61.6499C33.0688 62.7922 33.6189 63.8451 34.479 64.609C35.3392 65.3728 36.4496 65.7948 37.6 65.7948C38.7504 65.7948 39.8608 65.3728 40.721 64.609C41.5811 63.8451 42.1312 62.7922 42.2671 61.6499L42.3 61.1V39.95L42.2765 39.1792C42.0808 36.2024 40.7602 33.4116 38.5825 31.3727C36.4048 29.3338 33.5332 28.1995 30.55 28.2ZM61.1 28.2H56.4C55.1535 28.2 53.958 28.6952 53.0766 29.5766C52.1952 30.458 51.7 31.6535 51.7 32.9V61.1C51.7 62.3465 52.1952 63.542 53.0766 64.4234C53.958 65.3048 55.1535 65.8 56.4 65.8H61.1C64.8395 65.8 68.4259 64.3145 71.0702 61.6702C73.7145 59.0259 75.2 55.4395 75.2 51.7V42.3C75.2 38.5604 73.7145 34.9741 71.0702 32.3298C68.4259 29.6855 64.8395 28.2 61.1 28.2ZM61.1 37.6C62.3465 37.6 63.542 38.0952 64.4234 38.9766C65.3048 39.858 65.8 41.0535 65.8 42.3V51.7C65.7998 52.8512 65.3772 53.9623 64.6122 54.8225C63.8473 55.6828 62.7932 56.2324 61.6499 56.3671L61.1 56.4V37.6ZM30.55 37.6C31.1 37.5998 31.6327 37.7926 32.0552 38.1447C32.4778 38.4968 32.7634 38.986 32.8624 39.527L32.9 39.95V47H28.2V39.95L28.2376 39.527C28.3366 38.986 28.6222 38.4968 29.0448 38.1447C29.4673 37.7926 30 37.5998 30.55 37.6Z" fill="#161515"/>
<circle cx="82.5" cy="16.5" r="16.5" fill="#161515"/>
<path d="M94.4805 16.625C94.4805 15.0681 94.1736 13.5263 93.5778 12.0879C92.982 10.6497 92.1087 9.34292 91.0079 8.24209C89.9071 7.14126 88.6003 6.26799 87.1621 5.67219C85.7237 5.0764 84.1819 4.76948 82.625 4.76948C81.0681 4.76948 79.5263 5.0764 78.0879 5.67219C76.6497 6.26799 75.3429 7.14126 74.2421 8.24209C73.1413 9.34292 72.268 10.6497 71.6722 12.0879C71.0764 13.5263 70.7695 15.0681 70.7695 16.625C70.7695 18.1819 71.0764 19.7237 71.6722 21.1621C72.268 22.6003 73.1413 23.9071 74.2421 25.0079C75.3429 26.1087 76.6497 26.982 78.0879 27.5778C79.5263 28.1736 81.0681 28.4805 82.625 28.4805C84.1819 28.4805 85.7237 28.1736 87.1621 27.5778C88.6003 26.982 89.9071 26.1087 91.0079 25.0079C92.1087 23.9071 92.982 22.6003 93.5778 21.1621C94.1736 19.7237 94.4805 18.1819 94.4805 16.625ZM96.25 16.625C96.25 18.4143 95.8979 20.1864 95.2132 21.8394C94.5285 23.4924 93.5241 24.9938 92.259 26.259C90.9938 27.5241 89.4924 28.5285 87.8394 29.2132C86.1864 29.8979 84.4143 30.25 82.625 30.25C80.8357 30.25 79.0636 29.8979 77.4106 29.2132C75.7576 28.5285 74.2562 27.5241 72.991 26.259C71.7259 24.9938 70.7215 23.4924 70.0368 21.8394C69.3521 20.1864 69 18.4143 69 16.625C69 14.8357 69.3521 13.0636 70.0368 11.4106C70.7215 9.75758 71.7259 8.25615 72.991 6.99101C74.2562 5.72586 75.7576 4.72152 77.4106 4.03681C79.0636 3.35208 80.8357 3 82.625 3C84.4143 3 86.1864 3.35208 87.8394 4.03681C89.4924 4.72152 90.9938 5.72586 92.259 6.99101C93.5241 8.25615 94.5285 9.75758 95.2132 11.4106C95.8979 13.0636 96.25 14.8357 96.25 16.625Z" fill="#F1EFFF"/>
<path d="M82.6251 19.9863C83.4018 19.9863 84.1706 20.1417 84.8867 20.4425C85.6029 20.7435 86.2521 21.1843 86.7958 21.7392C87.1377 22.0882 87.1324 22.6483 86.7833 22.9903C86.4344 23.3321 85.8743 23.3265 85.5323 22.9779C85.1533 22.5911 84.7002 22.2835 84.201 22.0738C83.702 21.8642 83.1663 21.7558 82.6251 21.7558C82.0838 21.7558 81.5481 21.8642 81.0491 22.0738C80.55 22.2835 80.0968 22.5911 79.7179 22.9779C79.3759 23.3265 78.8157 23.3321 78.4668 22.9903C78.1178 22.6483 78.1124 22.0882 78.4543 21.7392C78.998 21.1843 79.6473 20.7435 80.3634 20.4425C81.0796 20.1417 81.8483 19.9863 82.6251 19.9863Z" fill="#F1EFFF"/>
<path d="M76.3363 11.7521C76.6818 11.4065 77.2432 11.4065 77.5887 11.7521L80.4199 14.5832C80.7654 14.9287 80.7654 15.4902 80.4199 15.8357C80.0744 16.1812 79.513 16.1812 79.1675 15.8357L76.3363 13.0045C75.9908 12.659 75.9908 12.0976 76.3363 11.7521Z" fill="#F1EFFF"/>
<path d="M79.1675 11.7521C79.513 11.4065 80.0744 11.4065 80.4199 11.7521C80.7654 12.0976 80.7654 12.659 80.4199 13.0045L77.5887 15.8357C77.2432 16.1812 76.6818 16.1812 76.3363 15.8357C75.9908 15.4902 75.9908 14.9287 76.3363 14.5832L79.1675 11.7521Z" fill="#F1EFFF"/>
<path d="M84.8299 11.7521C85.1754 11.4065 85.7369 11.4065 86.0824 11.7521L88.9136 14.5832C89.2591 14.9287 89.2591 15.4902 88.9136 15.8357C88.5681 16.1812 88.0066 16.1812 87.6611 15.8357L84.8299 13.0045C84.4844 12.659 84.4844 12.0976 84.8299 11.7521Z" fill="#F1EFFF"/>
<path d="M87.6611 11.7521C88.0066 11.4065 88.5681 11.4065 88.9136 11.7521C89.2591 12.0976 89.2591 12.659 88.9136 13.0045L86.0824 15.8357C85.7369 16.1812 85.1754 16.1812 84.8299 15.8357C84.4844 15.4902 84.4844 14.9287 84.8299 14.5832L87.6611 11.7521Z" fill="#F1EFFF"/>
</svg>
