<svg width="80" height="80" viewBox="0 0 80 80" fill="none" xmlns="http://www.w3.org/2000/svg">
<path d="M61.801 7.647C54.32 3.839 40.84 1.839 33.454 2.01C11.412 2.355 7.92999 30.593 19.3 55.407C30.671 80.22 47.4 79.464 66.676 53.325C85.953 27.185 71.153 12.406 61.801 7.647Z" fill="#712DCF"/>
<path d="M16.12 29.839C10.505 34.403 4.631 41.154 1 46C0.446001 47.963 0.682001 52.85 6 55.5C11.319 58.15 14.519 58.794 16.858 56.892L33.108 41.617C36.248 42.108 42.637 42.464 43.08 39.961C43.523 37.458 38.956 36.341 36.617 36.096C49.174 31.68 45.481 29.839 41.603 30.023C38.501 30.171 34.647 31.68 33.108 32.416C43.08 23.214 41.972 21.742 36.986 22.846C32.998 23.729 29.661 26.036 28.492 27.078C31.446 22.846 36.137 14.896 31.262 16.957C26.387 19.018 21.844 24.563 20.182 27.078C19.628 23.766 17.412 19.901 14.827 21.374C12.759 22.551 14.827 27.508 16.119 29.839H16.12Z" fill="white"/>
<path d="M57.112 14.013L68.56 3.70697C71.884 4.44297 78.42 7.97697 77.978 16.221C73.546 22.405 67.268 26.772 64.682 28.183C64.497 31.067 63.426 36.87 60.619 37.017C57.933 37.157 59.543 31.917 60.819 28.939C59.718 31.369 57.139 35.634 54.341 35.913C51.386 36.207 54.956 29.778 57.111 26.527C42.929 37.863 49.355 28.429 54.341 22.294C41.784 24.061 46.647 19.35 50.648 16.774C39.863 5.73097 50.464 10.332 57.112 14.013ZM43.261 60.021C42.818 64.291 45.661 73.823 47.139 78.056C59.105 81.884 66.898 76.461 69.299 73.271C67.969 68.266 64.928 59.285 63.574 55.421C65.236 51.433 67.932 43.348 65.421 42.906C62.909 42.464 59.942 48.856 58.773 52.108C59.388 48.918 60.176 42.538 58.403 42.538C56.63 42.538 54.833 49.408 54.156 52.844C53.971 49.654 53.233 43.311 51.756 43.458C50.278 43.605 49.909 50.39 49.909 53.764C49.355 50.881 47.767 45.372 45.846 46.403C43.926 47.433 45.046 52.843 45.846 55.42C44.554 54.316 37.536 52.844 36.983 55.42C36.539 57.481 40.983 59.346 43.261 60.021Z" fill="white"/>
<path d="M1 45.5C4.5 40.5 10.507 34.403 16.12 29.839C14.828 27.508 12.76 22.551 14.828 21.374C17.413 19.901 19.629 23.766 20.183 27.078C21.845 24.563 26.388 19.018 31.263 16.957C36.138 14.896 31.447 22.846 28.493 27.078C29.663 26.036 32.999 23.729 36.987 22.846C41.973 21.742 43.081 23.214 33.109 32.416C34.649 31.68 38.502 30.171 41.604 30.023C45.482 29.839 49.175 31.68 36.618 36.096C38.958 36.342 43.524 37.458 43.081 39.961C42.638 42.464 36.249 42.108 33.109 41.617L16.86 56.892" stroke="#554D56" stroke-width="1.5" stroke-linecap="round" stroke-linejoin="round"/>
<path d="M68.56 3.70697L57.113 14.013C50.465 10.333 39.865 5.73097 50.65 16.773C46.648 19.35 41.786 24.061 54.343 22.294C49.357 28.429 42.931 37.864 57.113 26.527C54.958 29.778 51.388 36.207 54.343 35.913C57.297 35.618 60.006 30.883 60.991 28.551C59.698 31.435 57.814 37.164 60.621 37.017C63.428 36.87 64.499 31.067 64.684 28.183C67.269 26.773 73.548 22.405 77.98 16.221M47.139 78.056C45.662 73.823 42.818 64.29 43.261 60.021C40.983 59.346 36.539 57.481 36.982 55.421C37.536 52.844 44.554 54.316 45.846 55.421C45.046 52.844 43.926 47.433 45.846 46.403C47.766 45.372 49.355 50.881 49.909 53.763C49.909 50.39 50.279 43.605 51.755 43.458C53.233 43.311 53.971 49.654 54.156 52.844C54.833 49.408 56.63 42.538 58.403 42.538C60.176 42.538 59.388 48.918 58.773 52.108C59.943 48.856 62.909 42.464 65.421 42.906C67.931 43.348 65.236 51.433 63.574 55.42C64.928 59.285 67.969 68.266 69.298 73.271" stroke="#554D56" stroke-width="1.5" stroke-linecap="round" stroke-linejoin="round"/>
</svg>
