<svg width="15" height="15" viewBox="0 0 15 15" fill="none" xmlns="http://www.w3.org/2000/svg">
<path d="M1.26623 7.01299C1.5352 7.01299 1.75325 7.23103 1.75325 7.5C1.75325 7.76897 1.5352 7.98701 1.26623 7.98701H0.487013C0.218043 7.98701 0 7.76897 0 7.5C0 7.23103 0.218043 7.01299 0.487013 7.01299H1.26623ZM14.513 7.01299C14.782 7.01299 15 7.23103 15 7.5C15 7.76897 14.782 7.98701 14.513 7.98701H13.7338C13.4648 7.98701 13.2468 7.76897 13.2468 7.5C13.2468 7.23103 13.4648 7.01299 13.7338 7.01299H14.513ZM2.16873 2.16873C2.35892 1.97854 2.66721 1.97854 2.8574 2.16873L3.403 2.71434C3.59297 2.90455 3.59312 3.21289 3.403 3.403C3.21289 3.59312 2.90455 3.59297 2.71434 3.403L2.16873 2.8574C1.97854 2.66721 1.97854 2.35892 2.16873 2.16873ZM12.1426 2.16873C12.3328 1.97854 12.6411 1.97854 12.8313 2.16873C13.0215 2.35892 13.0215 2.66721 12.8313 2.8574L12.2857 3.403C12.0955 3.59296 11.7871 3.59312 11.597 3.403C11.4069 3.21289 11.407 2.90455 11.597 2.71434L12.1426 2.16873ZM7.01299 1.26623V0.487013C7.01299 0.218043 7.23103 0 7.5 0C7.76897 0 7.98701 0.218043 7.98701 0.487013V1.26623C7.98701 1.5352 7.76897 1.75325 7.5 1.75325C7.23103 1.75325 7.01299 1.5352 7.01299 1.26623Z" fill="white"/>
<path d="M7.50001 3.11688C8.41992 3.11688 9.31663 3.40617 10.0629 3.94404C10.8092 4.48194 11.367 5.24156 11.6579 6.11429C11.9487 6.98686 11.9579 7.92863 11.6838 8.80656C11.4138 9.6707 10.8823 10.4291 10.1641 10.9791C9.92224 11.2235 9.73948 11.5202 9.63069 11.8466C9.51951 12.1801 9.48868 12.5352 9.54013 12.883C9.54363 12.9066 9.54546 12.9307 9.54546 12.9545C9.54546 13.497 9.33018 14.0175 8.94659 14.4011C8.56299 14.7847 8.0425 15 7.50001 15C6.95752 15 6.43702 14.7847 6.05343 14.4011C5.66983 14.0175 5.45455 13.497 5.45455 12.9545C5.45455 12.9307 5.45638 12.9066 5.45988 12.883C5.51133 12.5352 5.4805 12.1801 5.36932 11.8466C5.26048 11.52 5.0772 11.2235 4.83513 10.9791C4.11716 10.4292 3.58614 9.67051 3.31626 8.80656C3.04209 7.92863 3.05133 6.98686 3.34213 6.11429C3.63304 5.24156 4.19081 4.48194 4.9371 3.94404C5.68338 3.40617 6.58009 3.11688 7.50001 3.11688ZM7.50001 4.09091C6.7845 4.09091 6.08675 4.31631 5.5063 4.73468C4.9261 5.15298 4.49217 5.74318 4.26594 6.42172C4.03967 7.10051 4.03281 7.83368 4.24615 8.51664C4.45951 9.19952 4.8822 9.79801 5.45455 10.2273C5.47227 10.2406 5.48903 10.2551 5.50478 10.2706C5.86328 10.6255 6.13357 11.0599 6.29313 11.5384C6.44704 12.0001 6.49255 12.4907 6.42934 12.9728C6.43407 13.2504 6.54547 13.5158 6.74209 13.7125C6.94302 13.9134 7.21585 14.026 7.50001 14.026C7.78417 14.026 8.05699 13.9134 8.25792 13.7125C8.45454 13.5158 8.56518 13.2504 8.56991 12.9728C8.50672 12.4907 8.55298 12.0001 8.70689 11.5384C8.86644 11.0599 9.13673 10.6255 9.49524 10.2706L9.54546 10.2273C10.1178 9.79801 10.5405 9.19952 10.7539 8.51664C10.9672 7.83368 10.9603 7.10051 10.7341 6.42172C10.5078 5.74318 10.0739 5.15298 9.49372 4.73468C8.91326 4.31631 8.21551 4.09091 7.50001 4.09091Z" fill="white"/>
<path d="M9.29192 10.9091C9.56089 10.9091 9.77893 11.1272 9.77893 11.3961C9.77893 11.6651 9.56089 11.8831 9.29192 11.8831H5.70781C5.43884 11.8831 5.22079 11.6651 5.22079 11.3961C5.22079 11.1272 5.43884 10.9091 5.70781 10.9091H9.29192Z" fill="white"/>
</svg>
