<svg width="235" height="84" viewBox="0 0 235 84" fill="none" xmlns="http://www.w3.org/2000/svg">
<path d="M2.28766 77.0005V57.272H14.2642V59.4868H4.7486V66.2681H13.4849V68.4556H4.7486V77.0005H2.28766ZM21.4562 77.2739C20.0981 77.2739 18.9269 76.9731 17.9425 76.3716C16.9672 75.77 16.2153 74.9224 15.6866 73.8286C15.1671 72.7257 14.9073 71.4315 14.9073 69.9458V69.9321C14.9073 68.4647 15.1717 67.175 15.7003 66.063C16.229 64.9419 16.9718 64.0715 17.9288 63.4517C18.8859 62.8228 20.0115 62.5083 21.3058 62.5083C22.6001 62.5083 23.712 62.8091 24.6417 63.4106C25.5805 64.0031 26.3006 64.8371 26.8019 65.9126C27.3032 66.9881 27.5538 68.2368 27.5538 69.6587V70.5337H16.0968V68.6743H26.378L25.1749 70.397V69.481C25.1749 68.3781 25.0063 67.4666 24.6691 66.7466C24.3409 66.0265 23.8852 65.4933 23.3019 65.147C22.7185 64.7915 22.0486 64.6138 21.2921 64.6138C20.5356 64.6138 19.8566 64.8006 19.255 65.1743C18.6534 65.5389 18.1795 66.0858 17.8331 66.8149C17.4868 67.535 17.3136 68.4237 17.3136 69.481V70.397C17.3136 71.3996 17.4822 72.2563 17.8195 72.9673C18.1658 73.6782 18.6534 74.2251 19.2823 74.6079C19.9113 74.9816 20.6541 75.1685 21.5109 75.1685C22.1124 75.1685 22.6502 75.0773 23.1241 74.895C23.5981 74.7127 23.9946 74.4621 24.3136 74.1431C24.6326 73.8241 24.8605 73.4595 24.9972 73.0493L25.0382 72.9263H27.3761L27.3488 73.063C27.2303 73.6463 27.0024 74.1932 26.6652 74.7036C26.337 75.214 25.9132 75.6652 25.3937 76.0571C24.8741 76.4399 24.2817 76.7407 23.6163 76.9595C22.951 77.1691 22.2309 77.2739 21.4562 77.2739ZM33.5563 77.2739C32.6175 77.2739 31.7927 77.0962 31.0817 76.7407C30.3708 76.3853 29.8148 75.884 29.4138 75.2368C29.0218 74.5897 28.8259 73.8377 28.8259 72.981V72.9536C28.8259 72.1424 29.0264 71.4406 29.4274 70.8481C29.8376 70.2557 30.4255 69.7863 31.1911 69.4399C31.9658 69.0936 32.8955 68.8885 33.9802 68.8247L39.2438 68.5239V70.3696L34.2536 70.6704C33.3057 70.7251 32.5674 70.953 32.0388 71.354C31.5192 71.755 31.2595 72.2882 31.2595 72.9536V72.981C31.2595 73.6646 31.5147 74.2069 32.0251 74.6079C32.5446 75.009 33.2328 75.2095 34.0895 75.2095C34.8369 75.2095 35.5069 75.0545 36.0993 74.7446C36.7009 74.4256 37.1748 73.9927 37.5212 73.4458C37.8766 72.8989 38.0544 72.2837 38.0544 71.6001V67.4028C38.0544 66.5369 37.7809 65.8579 37.2341 65.3657C36.6963 64.8644 35.9307 64.6138 34.9372 64.6138C34.0257 64.6138 33.2874 64.8143 32.7223 65.2153C32.1664 65.6073 31.82 66.1222 31.6833 66.7603L31.6559 66.8833H29.3591L29.3727 66.7329C29.4457 65.9491 29.71 65.2381 30.1657 64.6001C30.6305 63.9621 31.2686 63.4562 32.0798 63.0825C32.891 62.6997 33.8526 62.5083 34.9645 62.5083C36.0856 62.5083 37.0518 62.6997 37.863 63.0825C38.6833 63.4653 39.3167 64.0076 39.7634 64.7095C40.21 65.4022 40.4333 66.2225 40.4333 67.1704V77.0005H38.0544V74.6899H37.9997C37.7263 75.2095 37.3617 75.6652 36.9059 76.0571C36.4502 76.4399 35.9352 76.7407 35.361 76.9595C34.7959 77.1691 34.1944 77.2739 33.5563 77.2739ZM47.5159 77.2739C46.2125 77.2739 45.2372 76.964 44.5901 76.3442C43.9429 75.7244 43.6194 74.7355 43.6194 73.3774V64.7505H41.5413V62.7817H43.6194V58.9399H46.0803V62.7817H48.7873V64.7505H46.0803V73.3638C46.0803 74.1203 46.2444 74.6353 46.5725 74.9087C46.9006 75.173 47.3837 75.3052 48.0217 75.3052C48.1676 75.3052 48.3043 75.3006 48.4319 75.2915C48.5686 75.2733 48.6871 75.2596 48.7873 75.2505V77.1782C48.6415 77.1965 48.4501 77.2147 48.2131 77.2329C47.9853 77.2603 47.7528 77.2739 47.5159 77.2739ZM55.6375 77.2739C54.5984 77.2739 53.7098 77.0597 52.9715 76.6313C52.2423 76.203 51.6818 75.5968 51.2898 74.813C50.907 74.02 50.7156 73.0858 50.7156 72.0103V62.7817H53.0945V71.5864C53.0945 72.744 53.3634 73.6326 53.9012 74.2524C54.448 74.8631 55.2684 75.1685 56.3621 75.1685C56.9272 75.1685 57.4331 75.0728 57.8797 74.8813C58.3354 74.6899 58.7273 74.4211 59.0555 74.0747C59.3836 73.7192 59.6342 73.2954 59.8074 72.8032C59.9806 72.3019 60.0672 71.7505 60.0672 71.1489V62.7817H62.4461V77.0005H60.0672V74.9771H60.0125C59.7573 75.4146 59.4246 75.8065 59.0145 76.1528C58.6134 76.4992 58.1303 76.7726 57.5652 76.9731C57.0001 77.1737 56.3576 77.2739 55.6375 77.2739ZM64.9896 77.0005V62.7817H67.3685V65.188H67.4232C67.6602 64.3677 68.0703 63.716 68.6537 63.2329C69.237 62.7498 69.9297 62.5083 70.7318 62.5083C70.9414 62.5083 71.1283 62.522 71.2923 62.5493C71.4655 62.5675 71.5977 62.5858 71.6888 62.604V64.9146C71.5977 64.8781 71.4336 64.8462 71.1966 64.8188C70.9688 64.7915 70.709 64.7778 70.4173 64.7778C69.8067 64.7778 69.2689 64.9146 68.8041 65.188C68.3483 65.4614 67.9929 65.8579 67.7377 66.3774C67.4916 66.8879 67.3685 67.5031 67.3685 68.2231V77.0005H64.9896ZM78.2382 77.2739C76.8801 77.2739 75.7089 76.9731 74.7245 76.3716C73.7493 75.77 72.9973 74.9224 72.4687 73.8286C71.9491 72.7257 71.6894 71.4315 71.6894 69.9458V69.9321C71.6894 68.4647 71.9537 67.175 72.4823 66.063C73.011 64.9419 73.7538 64.0715 74.7109 63.4517C75.6679 62.8228 76.7935 62.5083 78.0878 62.5083C79.3821 62.5083 80.4941 62.8091 81.4238 63.4106C82.3626 64.0031 83.0826 64.8371 83.5839 65.9126C84.0852 66.9881 84.3359 68.2368 84.3359 69.6587V70.5337H72.8788V68.6743H83.1601L81.957 70.397V69.481C81.957 68.3781 81.7883 67.4666 81.4511 66.7466C81.123 66.0265 80.6672 65.4933 80.0839 65.147C79.5006 64.7915 78.8307 64.6138 78.0741 64.6138C77.3176 64.6138 76.6386 64.8006 76.037 65.1743C75.4355 65.5389 74.9615 66.0858 74.6152 66.8149C74.2688 67.535 74.0956 68.4237 74.0956 69.481V70.397C74.0956 71.3996 74.2642 72.2563 74.6015 72.9673C74.9478 73.6782 75.4355 74.2251 76.0644 74.6079C76.6933 74.9816 77.4361 75.1685 78.2929 75.1685C78.8945 75.1685 79.4322 75.0773 79.9062 74.895C80.3801 74.7127 80.7766 74.4621 81.0956 74.1431C81.4146 73.8241 81.6425 73.4595 81.7792 73.0493L81.8202 72.9263H84.1581L84.1308 73.063C84.0123 73.6463 83.7844 74.1932 83.4472 74.7036C83.1191 75.214 82.6952 75.6652 82.1757 76.0571C81.6562 76.4399 81.0637 76.7407 80.3984 76.9595C79.733 77.1691 79.0129 77.2739 78.2382 77.2739ZM91.5278 77.2739C90.3156 77.2739 89.2537 76.9731 88.3423 76.3716C87.4399 75.7609 86.7381 74.9041 86.2368 73.8013C85.7355 72.6893 85.4848 71.3859 85.4848 69.8911V69.8774C85.4848 68.3826 85.7355 67.0838 86.2368 65.981C86.7472 64.8781 87.4536 64.0259 88.3559 63.4243C89.2583 62.8136 90.3019 62.5083 91.4868 62.5083C92.1613 62.5083 92.7856 62.6177 93.3598 62.8364C93.9432 63.0461 94.4627 63.3514 94.9184 63.7524C95.3742 64.1444 95.7479 64.6138 96.0395 65.1606H96.0942V57.272H98.4731V77.0005H96.0942V74.5942H96.0395C95.7479 75.1502 95.3787 75.6287 94.9321 76.0298C94.4855 76.4217 93.9751 76.7271 93.4009 76.9458C92.8358 77.1646 92.2114 77.2739 91.5278 77.2739ZM91.9927 75.1685C92.7947 75.1685 93.5057 74.9497 94.1255 74.5122C94.7453 74.0747 95.2283 73.4595 95.5747 72.6665C95.9302 71.8735 96.1079 70.9484 96.1079 69.8911V69.8774C96.1079 68.8201 95.9302 67.8996 95.5747 67.1157C95.2192 66.3228 94.7316 65.7075 94.1118 65.27C93.5011 64.8325 92.7947 64.6138 91.9927 64.6138C91.1541 64.6138 90.4295 64.828 89.8188 65.2563C89.2082 65.6847 88.7388 66.2909 88.4106 67.0747C88.0825 67.8586 87.9184 68.7928 87.9184 69.8774V69.8911C87.9184 70.9757 88.0825 71.9146 88.4106 72.7075C88.7388 73.5005 89.2082 74.1112 89.8188 74.5396C90.4295 74.9588 91.1541 75.1685 91.9927 75.1685ZM149.365 69.9595V67.772H154.533C155.946 67.772 157.04 67.4074 157.815 66.6782C158.589 65.9399 158.977 64.9237 158.977 63.6294V63.6021C158.977 62.2987 158.589 61.2824 157.815 60.5532C157.04 59.8241 155.946 59.4595 154.533 59.4595H149.365V57.272H155.162C156.402 57.272 157.496 57.5363 158.443 58.0649C159.391 58.5936 160.134 59.3319 160.672 60.2798C161.219 61.2277 161.492 62.326 161.492 63.5747V63.6021C161.492 64.8507 161.219 65.9536 160.672 66.9106C160.134 67.8677 159.391 68.6151 158.443 69.1528C157.496 69.6906 156.402 69.9595 155.162 69.9595H149.365ZM148.135 77.0005V57.272H150.596V77.0005H148.135ZM163.393 77.0005V62.7817H165.772V65.188H165.827C166.064 64.3677 166.474 63.716 167.057 63.2329C167.641 62.7498 168.333 62.5083 169.135 62.5083C169.345 62.5083 169.532 62.522 169.696 62.5493C169.869 62.5675 170.001 62.5858 170.092 62.604V64.9146C170.001 64.8781 169.837 64.8462 169.6 64.8188C169.372 64.7915 169.113 64.7778 168.821 64.7778C168.21 64.7778 167.673 64.9146 167.208 65.188C166.752 65.4614 166.396 65.8579 166.141 66.3774C165.895 66.8879 165.772 67.5031 165.772 68.2231V77.0005H163.393ZM176.683 77.2739C175.37 77.2739 174.217 76.9731 173.224 76.3716C172.239 75.77 171.469 74.9178 170.913 73.8149C170.366 72.703 170.093 71.395 170.093 69.8911V69.8638C170.093 68.3507 170.366 67.0474 170.913 65.9536C171.469 64.8507 172.239 64.0031 173.224 63.4106C174.217 62.8091 175.366 62.5083 176.669 62.5083C177.982 62.5083 179.13 62.8091 180.114 63.4106C181.108 64.0031 181.878 64.8507 182.425 65.9536C182.981 67.0474 183.259 68.3507 183.259 69.8638V69.8911C183.259 71.4041 182.981 72.7121 182.425 73.8149C181.878 74.9178 181.113 75.77 180.128 76.3716C179.144 76.9731 177.995 77.2739 176.683 77.2739ZM176.696 75.1685C177.535 75.1685 178.26 74.9634 178.87 74.5532C179.49 74.134 179.969 73.5324 180.306 72.7485C180.652 71.9556 180.825 71.0031 180.825 69.8911V69.8638C180.825 68.7518 180.652 67.8039 180.306 67.02C179.969 66.2362 179.486 65.6392 178.857 65.229C178.237 64.8188 177.508 64.6138 176.669 64.6138C175.849 64.6138 175.124 64.8234 174.495 65.2427C173.876 65.6528 173.392 66.2498 173.046 67.0337C172.7 67.8084 172.527 68.7518 172.527 69.8638V69.8911C172.527 71.0031 172.7 71.9556 173.046 72.7485C173.392 73.5324 173.876 74.134 174.495 74.5532C175.124 74.9634 175.858 75.1685 176.696 75.1685ZM190.451 77.2739C189.239 77.2739 188.177 76.9731 187.265 76.3716C186.363 75.7609 185.661 74.9041 185.16 73.8013C184.659 72.6893 184.408 71.3859 184.408 69.8911V69.8774C184.408 68.3826 184.659 67.0838 185.16 65.981C185.67 64.8781 186.377 64.0259 187.279 63.4243C188.181 62.8136 189.225 62.5083 190.41 62.5083C191.084 62.5083 191.709 62.6177 192.283 62.8364C192.866 63.0461 193.386 63.3514 193.842 63.7524C194.297 64.1444 194.671 64.6138 194.963 65.1606H195.017V57.272H197.396V77.0005H195.017V74.5942H194.963C194.671 75.1502 194.302 75.6287 193.855 76.0298C193.409 76.4217 192.898 76.7271 192.324 76.9458C191.759 77.1646 191.135 77.2739 190.451 77.2739ZM190.916 75.1685C191.718 75.1685 192.429 74.9497 193.049 74.5122C193.668 74.0747 194.151 73.4595 194.498 72.6665C194.853 71.8735 195.031 70.9484 195.031 69.8911V69.8774C195.031 68.8201 194.853 67.8996 194.498 67.1157C194.142 66.3228 193.655 65.7075 193.035 65.27C192.424 64.8325 191.718 64.6138 190.916 64.6138C190.077 64.6138 189.353 64.828 188.742 65.2563C188.131 65.6847 187.662 66.2909 187.334 67.0747C187.006 67.8586 186.842 68.7928 186.842 69.8774V69.8911C186.842 70.9757 187.006 71.9146 187.334 72.7075C187.662 73.5005 188.131 74.1112 188.742 74.5396C189.353 74.9588 190.077 75.1685 190.916 75.1685ZM204.903 77.2739C203.864 77.2739 202.975 77.0597 202.237 76.6313C201.507 76.203 200.947 75.5968 200.555 74.813C200.172 74.02 199.981 73.0858 199.981 72.0103V62.7817H202.36V71.5864C202.36 72.744 202.629 73.6326 203.166 74.2524C203.713 74.8631 204.534 75.1685 205.627 75.1685C206.192 75.1685 206.698 75.0728 207.145 74.8813C207.601 74.6899 207.993 74.4211 208.321 74.0747C208.649 73.7192 208.899 73.2954 209.073 72.8032C209.246 72.3019 209.332 71.7505 209.332 71.1489V62.7817H211.711V77.0005H209.332V74.9771H209.278C209.022 75.4146 208.69 75.8065 208.28 76.1528C207.879 76.4992 207.396 76.7726 206.83 76.9731C206.265 77.1737 205.623 77.2739 204.903 77.2739ZM220.147 77.2739C218.807 77.2739 217.641 76.9731 216.647 76.3716C215.663 75.7609 214.902 74.9041 214.364 73.8013C213.826 72.6893 213.557 71.3813 213.557 69.8774V69.8638C213.557 68.369 213.831 67.0701 214.378 65.9673C214.925 64.8644 215.69 64.0122 216.675 63.4106C217.659 62.8091 218.807 62.5083 220.12 62.5083C221.305 62.5083 222.321 62.7407 223.169 63.2056C224.016 63.6613 224.682 64.2537 225.165 64.9829C225.657 65.7121 225.953 66.4823 226.054 67.2935L226.067 67.4028H223.743L223.716 67.2935C223.543 66.5825 223.16 65.9582 222.567 65.4204C221.984 64.8826 221.168 64.6138 220.12 64.6138C219.3 64.6138 218.58 64.8325 217.96 65.27C217.34 65.6984 216.857 66.3091 216.511 67.1021C216.164 67.8859 215.991 68.8156 215.991 69.8911V69.9048C215.991 71.0076 216.164 71.951 216.511 72.7349C216.866 73.5187 217.354 74.1203 217.974 74.5396C218.602 74.9588 219.327 75.1685 220.147 75.1685C221.123 75.1685 221.911 74.9224 222.513 74.4302C223.123 73.9289 223.529 73.2817 223.729 72.4888L223.757 72.3794H226.095L226.081 72.4751C225.953 73.3774 225.621 74.1932 225.083 74.9224C224.554 75.6424 223.866 76.2166 223.018 76.645C222.18 77.0643 221.223 77.2739 220.147 77.2739ZM232.343 77.2739C231.04 77.2739 230.065 76.964 229.417 76.3442C228.77 75.7244 228.447 74.7355 228.447 73.3774V64.7505H226.369V62.7817H228.447V58.9399H230.908V62.7817H233.615V64.7505H230.908V73.3638C230.908 74.1203 231.072 74.6353 231.4 74.9087C231.728 75.173 232.211 75.3052 232.849 75.3052C232.995 75.3052 233.132 75.3006 233.259 75.2915C233.396 75.2733 233.514 75.2596 233.615 75.2505V77.1782C233.469 77.1965 233.277 77.2147 233.04 77.2329C232.813 77.2603 232.58 77.2739 232.343 77.2739Z" fill="#DED5D5"/>
<path d="M104.921 44.1005L104.158 42.0505L109.001 40.2474C110.325 39.7544 111.223 39.0311 111.694 38.0775C112.163 37.1153 112.171 36.0277 111.72 34.8148L111.71 34.7892C111.255 33.5677 110.538 32.7504 109.557 32.3374C108.577 31.9244 107.425 31.9643 106.101 32.4572L101.257 34.2604L100.494 32.2104L105.927 30.1878C107.088 29.7553 108.206 29.6214 109.278 29.7861C110.351 29.9507 111.305 30.3834 112.14 31.0842C112.983 31.7817 113.622 32.7156 114.058 33.8858L114.068 33.9114C114.503 35.0817 114.632 36.2106 114.453 37.2983C114.283 38.3828 113.848 39.3424 113.147 40.1771C112.446 41.0118 111.515 41.6454 110.354 42.078L104.921 44.1005ZM106.224 51.1284L99.341 32.6397L101.647 31.781L108.531 50.2697L106.224 51.1284ZM120.524 45.8046L115.563 32.4794L117.792 31.6494L118.632 33.9044L118.683 33.8853C118.619 33.0339 118.776 32.28 119.154 31.6238C119.532 30.9676 120.097 30.4995 120.849 30.2196C121.045 30.1465 121.225 30.0941 121.388 30.0625C121.557 30.0192 121.687 29.9901 121.779 29.9754L122.585 32.1408C122.487 32.1384 122.322 32.1657 122.091 32.2228C121.868 32.2767 121.619 32.3545 121.346 32.4563C120.774 32.6693 120.317 32.9851 119.977 33.4035C119.646 33.8188 119.451 34.3144 119.393 34.8903C119.34 35.4545 119.44 36.074 119.691 36.7488L122.753 44.9746L120.524 45.8046ZM133.074 41.424C131.844 41.8819 130.658 42.0023 129.517 41.7852C128.385 41.5649 127.366 41.035 126.46 40.1954C125.559 39.3441 124.847 38.2138 124.322 36.8044L124.313 36.7788C123.785 35.3608 123.586 34.0439 123.717 32.8281C123.853 31.6006 124.279 30.5375 124.995 29.6388C125.716 28.7284 126.688 28.0458 127.909 27.591C129.139 27.1331 130.32 27.0143 131.453 27.2346C132.591 27.4432 133.608 27.9688 134.505 28.8116C135.408 29.6426 136.123 30.7671 136.651 32.185L136.661 32.2106C137.189 33.6286 137.384 34.9513 137.248 36.1789C137.121 37.4032 136.7 38.469 135.988 39.3762C135.275 40.2835 134.304 40.966 133.074 41.424ZM132.352 39.4461C133.138 39.1535 133.745 38.7085 134.175 38.111C134.609 37.5018 134.848 36.7711 134.89 35.9189C134.938 35.0549 134.768 34.1018 134.38 33.0597L134.371 33.0341C133.983 31.992 133.49 31.1641 132.891 30.5503C132.302 29.9334 131.641 29.5425 130.908 29.3775C130.184 29.2094 129.43 29.2716 128.644 29.5642C127.875 29.8504 127.269 30.2997 126.826 30.9121C126.388 31.5127 126.144 32.2407 126.093 33.0962C126.038 33.9431 126.205 34.8876 126.593 35.9297L126.603 35.9553C126.991 36.9974 127.485 37.8296 128.087 38.4519C128.685 39.0656 129.347 39.4608 130.074 39.6375C130.807 39.8024 131.566 39.7386 132.352 39.4461ZM140.765 43.3894C140.697 43.4148 140.628 43.4403 140.56 43.4657C140.483 43.4943 140.409 43.5171 140.337 43.534L139.607 41.5736C139.667 41.5514 139.727 41.5291 139.787 41.5069C139.838 41.4878 139.894 41.4671 139.953 41.4448C140.679 41.1745 141.137 40.8486 141.325 40.4672C141.523 40.0825 141.483 39.5186 141.206 38.7755L136.026 24.8609L138.255 24.0309L143.426 37.9199C143.929 39.2695 143.964 40.3843 143.533 41.2645C143.114 42.15 142.191 42.8583 140.765 43.3894ZM136.301 22.1909C135.917 22.334 135.537 22.3198 135.162 22.1482C134.787 21.9766 134.527 21.6986 134.384 21.3143C134.238 20.9213 134.252 20.5416 134.427 20.175C134.599 19.7999 134.877 19.5408 135.261 19.3977C135.654 19.2514 136.034 19.2657 136.4 19.4404C136.772 19.6035 137.031 19.8814 137.178 20.2743C137.321 20.6587 137.306 21.0385 137.135 21.4136C136.972 21.7855 136.694 22.0446 136.301 22.1909ZM151.307 34.6355C150.035 35.1094 148.832 35.2361 147.7 35.0158C146.576 34.7924 145.575 34.2603 144.698 33.4198C143.827 32.5675 143.132 31.4452 142.613 30.0529L142.608 30.0401C142.096 28.6648 141.894 27.3639 142.002 26.1374C142.106 24.9023 142.498 23.8274 143.179 22.9126C143.856 21.9893 144.802 21.3019 146.014 20.8503C147.227 20.3987 148.374 20.2926 149.456 20.532C150.542 20.7597 151.508 21.29 152.353 22.123C153.198 22.956 153.869 24.0388 154.365 25.3713L154.67 26.1913L143.933 30.1888L143.284 28.4463L152.919 24.8591L152.393 26.8932L152.073 26.0348C151.688 25.0012 151.212 24.2059 150.645 23.6487C150.086 23.0884 149.473 22.7477 148.806 22.6267C148.135 22.4971 147.445 22.5643 146.736 22.8282C146.027 23.0922 145.456 23.5042 145.023 24.0643C144.586 24.6159 144.333 25.2937 144.263 26.0979C144.189 26.8936 144.337 27.7868 144.706 28.7777L145.026 29.6361C145.375 30.5757 145.832 31.3198 146.396 31.8684C146.969 32.4138 147.617 32.7562 148.34 32.8955C149.06 33.0263 149.821 32.9422 150.624 32.6433C151.188 32.4334 151.66 32.1604 152.04 31.8241C152.421 31.4879 152.705 31.1147 152.893 30.7044C153.08 30.2942 153.167 29.873 153.152 29.4409L153.147 29.3113L155.338 28.4956L155.36 28.6332C155.453 29.2213 155.43 29.8133 155.292 30.4093C155.163 31.0021 154.923 31.5728 154.573 32.1214C154.219 32.6614 153.769 33.15 153.222 33.5871C152.672 34.0157 152.033 34.3652 151.307 34.6355ZM164.274 29.8078C163.019 30.2753 161.82 30.4005 160.679 30.1834C159.544 29.9545 158.532 29.4172 157.643 28.5712C156.751 27.7168 156.043 26.5848 155.518 25.1754L155.513 25.1626C154.991 23.7618 154.795 22.4492 154.922 21.2248C155.05 20.0004 155.47 18.9346 156.183 18.0274C156.895 17.1202 157.867 16.4376 159.097 15.9797C160.207 15.5663 161.241 15.4295 162.197 15.5694C163.151 15.7007 163.981 16.0238 164.688 16.5386C165.404 17.0502 165.95 17.6686 166.327 18.3938L166.378 18.4916L164.2 19.3025L164.136 19.2095C163.726 18.6037 163.149 18.1522 162.406 17.8549C161.672 17.5545 160.814 17.5871 159.831 17.9528C159.063 18.239 158.464 18.6953 158.036 19.3215C157.605 19.9393 157.365 20.6801 157.317 21.5441C157.266 22.3995 157.428 23.3312 157.803 24.3391L157.808 24.352C158.193 25.3855 158.684 26.2092 159.282 26.8229C159.889 27.4335 160.556 27.8271 161.283 28.0038C162.019 28.1773 162.771 28.1209 163.54 27.8347C164.454 27.4944 165.107 26.9887 165.499 26.3175C165.896 25.6347 166.05 24.8867 165.962 24.0736L165.949 23.9615L168.14 23.1458L168.161 23.2403C168.356 24.1305 168.329 25.011 168.079 25.882C167.835 26.7412 167.39 27.5195 166.745 28.2167C166.106 28.9022 165.282 29.4326 164.274 29.8078ZM175.704 25.5526C174.482 26.0073 173.46 26.0572 172.637 25.7022C171.815 25.3471 171.166 24.5332 170.693 23.2605L167.682 15.1757L165.735 15.9008L165.048 14.0557L166.996 13.3307L165.655 9.73029L167.961 8.87165L169.302 12.472L171.839 11.5275L172.526 13.3725L169.989 14.317L172.994 22.389C173.258 23.098 173.591 23.5234 173.994 23.6651C174.394 23.7984 174.893 23.7537 175.491 23.5311C175.627 23.4802 175.754 23.4282 175.87 23.3751C175.992 23.3103 176.098 23.2562 176.189 23.2127L176.862 25.0193C176.732 25.0872 176.559 25.1711 176.343 25.2709C176.139 25.376 175.926 25.4699 175.704 25.5526Z" fill="#FF0000"/>
<path d="M101.473 43.8524L174.778 16.5606L175.35 18.0981L102.046 45.3899L101.473 43.8524Z" fill="#FF0000"/>
<path d="M109 81.0005L120 67.0005L132 81.0005" stroke="#FF0000" stroke-width="3" stroke-linecap="round"/>
</svg>
