<svg width="54" height="54" viewBox="0 0 54 54" fill="none" xmlns="http://www.w3.org/2000/svg">
<path d="M27.1193 3.78455C27.054 3.55955 26.9618 3.3143 26.6558 3.31655C26.3835 3.31655 26.2642 3.5168 26.2642 3.70579C26.2642 3.96454 26.4352 4.08379 26.7142 4.2278L26.7255 4.23455C27 4.37405 27.3263 4.54055 27.3285 4.9298C27.3285 5.30104 27.0158 5.59805 26.5455 5.60029C26.4015 5.60029 26.2868 5.5733 26.199 5.54855C26.1113 5.51705 26.0572 5.4923 26.0258 5.47429C25.9965 5.40004 25.9493 5.0963 25.929 4.92755L26.0303 4.9028C26.0888 5.1188 26.2485 5.47429 26.6108 5.47429C26.8762 5.47429 27.0338 5.30779 27.0338 5.04904C27.0338 4.78804 26.838 4.66429 26.5725 4.52479L26.5523 4.51354C26.325 4.39429 25.9898 4.21654 25.9875 3.82955C25.9875 3.4898 26.2575 3.19954 26.7143 3.1973C26.8763 3.1973 27.0248 3.23555 27.1598 3.27605C27.1733 3.3908 27.189 3.5123 27.2138 3.6968L27.2228 3.7643L27.1193 3.7868V3.78455Z" fill="#4B4545"/>
<path d="M25.2878 5.59565C25.3058 5.48315 25.3395 5.14565 25.3463 5.0264H25.2383C25.209 5.1704 25.1573 5.2964 25.1055 5.37515C25.038 5.4764 24.9435 5.51465 24.678 5.54615C24.5025 5.5664 24.3788 5.57765 24.3068 5.5439C24.2393 5.50565 24.2078 5.43365 24.1898 5.2694L24.1133 4.60565L24.4463 4.5674C24.7523 4.5314 24.7793 4.5494 24.8535 4.7969L24.9548 4.78565L24.876 4.11065L24.7748 4.1219C24.7568 4.36265 24.7433 4.3919 24.426 4.43015L24.0953 4.4684L24.003 3.6719C23.9895 3.56615 23.9963 3.5594 24.1065 3.5459L24.372 3.5144C24.624 3.48515 24.723 3.49865 24.7793 3.56615C24.8333 3.63815 24.8783 3.7124 24.9255 3.85415L25.0245 3.8249C25.0155 3.77315 25.0043 3.71465 24.9953 3.65615C24.9705 3.5189 24.9458 3.3839 24.939 3.32315L23.373 3.5054L23.3843 3.6044C23.661 3.59765 23.6903 3.6044 23.7263 3.9194L23.8883 5.31665C23.922 5.60015 23.8973 5.63165 23.58 5.69465L23.5913 5.79365L25.2833 5.5979L25.2878 5.59565Z" fill="#4B4545"/>
<path fill-rule="evenodd" clip-rule="evenodd" d="M21.294 3.93756C21.7305 3.83405 22.0747 3.84531 22.3357 3.99605C22.5427 4.11981 22.7227 4.34255 22.8015 4.66655C22.9005 5.0783 22.815 5.42255 22.599 5.6858C22.3897 5.9468 22.0702 6.1133 21.6472 6.21456L20.8327 6.4103L20.8102 6.31805C21.1005 6.2258 21.123 6.1988 21.0532 5.9063L20.7225 4.5293C20.6527 4.23455 20.6212 4.2278 20.3512 4.2683L20.3265 4.1693L21.2917 3.93755L21.294 3.93756ZM21.3435 5.81181C21.4065 6.07281 21.5347 6.11106 21.7867 6.05031C22.4302 5.89731 22.6102 5.34381 22.4775 4.79481C22.392 4.44155 22.1895 4.16706 21.8745 4.07031C21.6967 4.00731 21.4875 4.01406 21.2557 4.07031C21.1117 4.10405 21.0262 4.14456 20.997 4.17606C20.9677 4.20756 20.9677 4.24806 20.997 4.38306L21.339 5.81181H21.3435Z" fill="#4B4545"/>
<path d="M18.2205 5.23581C18.1688 5.08731 18.2273 5.01081 18.4028 4.92081L18.3623 4.83081L17.6018 5.17281L17.6423 5.26281C17.8695 5.17506 17.9663 5.18181 18.0473 5.31906C18.0968 5.40456 18.1778 5.54631 18.3105 5.84331L18.6682 6.63531L18.6593 6.63981L16.587 5.62956L16.11 5.84556L16.1505 5.93556C16.308 5.87931 16.389 5.87481 16.4902 5.92431C16.5825 5.97606 16.596 5.98506 16.7017 6.22131L17.0212 6.93006C17.154 7.22706 17.2147 7.38456 17.2507 7.49031C17.3047 7.65456 17.244 7.73331 17.0617 7.82781L17.1022 7.91781L17.865 7.57356L17.8245 7.48356C17.5995 7.56906 17.5072 7.56456 17.4172 7.40706C17.3655 7.31706 17.2867 7.16856 17.1518 6.87156L16.7873 6.06381H16.794L18.927 7.13031L19.026 7.08531L18.441 5.78706C18.306 5.48781 18.2475 5.33931 18.216 5.23806L18.2205 5.23581Z" fill="#4B4545"/>
<path fill-rule="evenodd" clip-rule="evenodd" d="M16.0178 7.17079C16.4205 7.81879 16.2158 8.49604 15.6668 8.83804C15.1245 9.17554 14.4293 9.02255 14.0693 8.44879C13.7318 7.9088 13.797 7.17305 14.427 6.78154C14.9355 6.46429 15.642 6.5723 16.0155 7.17305L16.0178 7.17079ZM14.3258 8.17205C14.6768 8.73455 15.2415 8.9528 15.6645 8.68955C15.9975 8.48255 16.1235 8.0168 15.7635 7.4408C15.3698 6.80855 14.8298 6.67805 14.4383 6.9233C14.103 7.13254 13.977 7.61179 14.3258 8.17205Z" fill="#4B4545"/>
<path d="M13.4437 10.233L13.5045 10.3118L14.2447 9.73805L14.184 9.6593C13.941 9.81905 13.9095 9.82355 13.7227 9.5828L12.8565 8.46455C12.672 8.2283 12.681 8.1923 12.8992 7.9988L12.8385 7.92004L12.0982 8.4938L12.159 8.57255C12.402 8.41279 12.4357 8.41055 12.6202 8.64905L13.4865 9.7673C13.671 10.0058 13.662 10.0395 13.446 10.233H13.4437Z" fill="#4B4545"/>
<path d="M11.817 9.42527C11.673 9.32852 11.5897 9.28577 11.52 9.27227C11.421 9.24977 11.3602 9.27227 11.1667 9.45227L10.9845 9.62327L12.1725 10.8945C12.3637 11.0993 12.4087 11.106 12.6675 10.8923L12.735 10.9643L11.9925 11.6573L11.925 11.5853C12.1455 11.3513 12.141 11.304 11.952 11.1015L10.764 9.83027L10.6042 9.97877C10.3905 10.179 10.3567 10.2488 10.3792 10.3388C10.3882 10.4108 10.4355 10.503 10.512 10.647L10.4377 10.7168C10.305 10.5503 10.161 10.3703 10.035 10.2218L10.0867 10.1745C10.179 10.1993 10.2172 10.1745 10.2892 10.107L11.3085 9.15302C11.3782 9.08777 11.385 9.05402 11.3805 8.96627L11.4345 8.91452C11.5447 9.03377 11.7337 9.20927 11.8867 9.34652L11.8192 9.42527L11.817 9.42527Z" fill="#4B4545"/>
<path d="M11.142 12.456C11.0947 12.3322 10.9507 12.096 10.8585 11.9542L10.7617 12.0082C10.917 12.3705 10.944 12.6427 10.71 12.9172C10.3635 13.3267 9.76723 13.3335 9.26098 12.906C8.85148 12.5595 8.67373 11.997 9.05398 11.547C9.29923 11.2545 9.55348 11.1915 9.89773 11.3625L9.94723 11.2657C9.81449 11.1757 9.70648 11.1082 9.57373 11.0272L9.49273 10.9755C9.47473 10.9912 9.44998 11.0092 9.42073 11.0295C9.31948 11.1037 9.15973 11.223 9.01573 11.3917C8.50723 11.9947 8.51398 12.7485 9.08098 13.2277C9.51073 13.59 10.224 13.689 10.791 13.0162C10.9552 12.8227 11.0925 12.5482 11.1375 12.4582L11.142 12.456Z" fill="#4B4545"/>
<path fill-rule="evenodd" clip-rule="evenodd" d="M9.21602 14.9872L9.13277 14.9332C9.23177 14.7307 9.22502 14.6902 9.08552 14.652C8.97977 14.6227 8.84027 14.5912 8.68277 14.553L8.52302 14.5147L8.10902 15.1447L8.12252 15.1627C8.21927 15.291 8.30927 15.4102 8.40377 15.525C8.54777 15.7117 8.59502 15.705 8.76152 15.498L8.84477 15.552L8.42402 16.1932L8.34077 16.1392C8.43752 15.9367 8.44652 15.8827 8.25302 15.6082L7.10327 13.977L7.13702 13.869C7.35527 13.9207 7.58027 13.977 7.80977 14.031C8.23952 14.1345 8.67602 14.2425 9.09227 14.3392C9.40727 14.4112 9.46127 14.391 9.60302 14.211L9.68627 14.265L9.21152 14.9895L9.21602 14.9872ZM7.44752 14.238L7.44302 14.2447C7.62302 14.49 7.80527 14.7375 7.97852 14.9715L8.01227 15.0187L8.37002 14.4742L7.44527 14.2402L7.44752 14.238Z" fill="#4B4545"/>
<path fill-rule="evenodd" clip-rule="evenodd" d="M8.22149 16.6162C8.24399 16.5802 8.26199 16.5442 8.27999 16.5059L8.20349 16.4519C8.14949 16.5127 8.07974 16.5689 7.94249 16.6072C7.82324 16.6432 7.70624 16.6679 7.48574 16.7017C7.29674 16.7264 7.01774 16.7534 6.88724 16.7557C6.90074 16.4699 6.81749 16.2202 6.54524 16.0852C6.35624 15.9907 6.17174 16.0019 6.02549 16.0897C5.88599 16.1707 5.78249 16.3124 5.66774 16.5442L5.27849 17.3294L5.36624 17.3744C5.51024 17.1382 5.53274 17.1179 5.80274 17.2507L7.07624 17.8807C7.34624 18.0134 7.35074 18.0517 7.24049 18.3217L7.33049 18.3667L7.74224 17.5342L7.65449 17.4892C7.51049 17.7344 7.47674 17.7524 7.20674 17.6197L6.70273 17.3699L6.75223 17.2687C6.83324 17.1044 6.89848 17.0684 7.01324 17.0594C7.05599 17.0549 7.10099 17.0527 7.14824 17.0482C7.32149 17.0347 7.51274 17.0167 7.67699 16.9919C7.95374 16.9514 8.08874 16.8524 8.21924 16.6207L8.22149 16.6162ZM6.75449 16.7737C6.77924 16.8839 6.75449 17.0009 6.67124 17.1629L6.59699 17.3159L5.81849 16.9289C5.73299 16.8862 5.70149 16.8547 5.69699 16.8254C5.69024 16.7917 5.70374 16.7309 5.75099 16.6387C5.87024 16.3979 6.10874 16.2359 6.45074 16.4047C6.62174 16.4902 6.72299 16.6027 6.75674 16.7737L6.75449 16.7737Z" fill="#4B4545"/>
<path d="M6.61051 18.6367C6.71401 18.6952 7.00201 18.8752 7.09426 18.9427L6.51376 20.5447L6.42151 20.511C6.50701 20.2005 6.49126 20.1645 6.22126 20.0655L4.89826 19.5862C4.59901 19.4782 4.57876 19.5007 4.46176 19.7527L4.36951 19.719L4.90726 18.2362C4.96576 18.2565 5.09626 18.2947 5.229 18.3352C5.28526 18.351 5.34375 18.369 5.39551 18.3847L5.37751 18.486C5.22676 18.4657 5.14125 18.4725 5.0535 18.4882C4.96576 18.5085 4.91175 18.5917 4.824 18.8302L4.73175 19.0822C4.6935 19.1857 4.698 19.1947 4.79925 19.2307L5.55301 19.503L5.66551 19.1902C5.7735 18.891 5.75326 18.864 5.54626 18.7402L5.58226 18.6435L6.22126 18.8752L6.18525 18.972C5.931 18.9292 5.90176 18.945 5.79826 19.233L5.68351 19.548L6.31125 19.7752C6.4665 19.8315 6.54525 19.8382 6.60826 19.7932C6.67126 19.7437 6.71625 19.629 6.77701 19.4625C6.86926 19.2105 6.87601 19.107 6.81526 19.0035C6.77026 18.9225 6.67801 18.819 6.561 18.7267L6.6105 18.6322L6.61051 18.6367Z" fill="#4B4545"/>
<path d="M4.31099 20.7314C4.37624 20.7022 4.46849 20.6932 4.64399 20.6954L4.65749 20.5942C4.45499 20.5627 4.1985 20.5199 4.04099 20.4817L4.02299 20.5537C4.07474 20.6234 4.08824 20.6572 4.06799 20.7494L3.74174 22.1062C3.71924 22.2029 3.70124 22.2457 3.61124 22.2749L3.59549 22.3447C3.78224 22.3964 4.00274 22.4684 4.20299 22.5337L4.22774 22.4347C4.08599 22.3582 3.99599 22.3064 3.94874 22.2524C3.88124 22.1894 3.86999 22.1129 3.93749 21.8272L3.98924 21.6134L5.68124 22.0184C5.95349 22.0837 5.98049 22.1197 5.92649 22.4369L6.02323 22.4594L6.25949 21.4739L6.16274 21.4514C6.06374 21.7732 6.02324 21.7912 5.75099 21.7282L4.06124 21.3232L4.11974 21.0802C4.18274 20.8214 4.21874 20.7697 4.31549 20.7337L4.31099 20.7314Z" fill="#4B4545"/>
<path d="M3.62475 23.1549C3.6135 23.3529 3.6495 23.4429 3.8025 23.4744C3.906 23.4991 4.0635 23.5239 4.38975 23.5599L5.805 23.7151L5.79375 23.8231L3.78675 25.1169V25.1236L4.66875 25.2204C4.99275 25.2564 5.1615 25.2631 5.265 25.2654C5.44724 25.2676 5.49674 25.1911 5.53725 24.9549L5.63625 24.9661L5.544 25.7986L5.445 25.7874C5.45625 25.5826 5.42025 25.4904 5.2515 25.4521C5.1435 25.4296 4.97699 25.4004 4.65299 25.3644L3.87899 25.2789C3.62249 25.2496 3.60674 25.2564 3.51674 25.3104C3.42 25.3711 3.384 25.4454 3.3525 25.6096L3.25349 25.5984L3.31199 25.0786L5.23799 23.8074V23.7961L4.37399 23.7016C4.04999 23.6656 3.88799 23.6611 3.78899 23.6611C3.62924 23.6611 3.57299 23.7399 3.53249 23.9806L3.43349 23.9694L3.52574 23.1414L3.62474 23.1526L3.62475 23.1549Z" fill="#4B4545"/>
<path d="M5.44276 27.2903H5.54176L5.54851 26.3543H5.44951C5.42701 26.6423 5.40901 26.6715 5.10526 26.6693L3.69226 26.658C3.39076 26.6558 3.37052 26.6265 3.35252 26.3363H3.25351L3.24677 27.2723H3.34577C3.36827 26.982 3.39076 26.955 3.69002 26.9573L5.10301 26.9685C5.40451 26.9708 5.42476 27 5.44276 27.2903Z" fill="#4B4545"/>
<path fill-rule="evenodd" clip-rule="evenodd" d="M40.5945 41.4675H13.3987C13.284 41.4675 13.1895 41.373 13.1895 41.2583C13.1895 41.1435 13.284 41.049 13.3987 41.049H23.6452C24.1627 40.7723 24.5452 40.482 24.6037 40.1895C24.7657 39.3795 25.0897 37.602 24.6037 35.9033C24.1177 34.632 22.896 33.759 21.4875 33.1605C21.069 33.2213 20.565 33.3945 20.1577 33.813C20.5155 34.1168 20.772 34.2743 20.8035 34.2923C20.8035 34.2923 19.3365 35.3273 18.9967 36.2003C18.783 35.9235 17.9437 35.0843 17.6107 34.9673C17.766 34.6388 18.5535 33.4598 19.4422 33.084C19.53 33.2235 19.674 33.381 19.8337 33.5318C20.0902 33.291 20.4277 33.0548 20.8575 32.9153C19.3545 32.3753 17.7412 32.1098 16.6095 31.9793C16.5802 32.3708 16.5825 32.8095 16.6162 33.3765C14.3347 32.9985 11.9812 33.9773 11.9812 33.9773C11.9587 33.8603 11.5087 31.5315 12.0375 30.1973C13.0207 29.8328 15.5812 30.2423 16.8817 30.5213C16.776 30.8858 16.7017 31.2075 16.6545 31.5473C17.7637 31.3763 18.7762 31.3493 19.692 31.4168C19.3477 30.9375 18.7267 30.2963 17.649 29.8058C16.6095 29.331 15.8445 28.7168 15.354 28.2443C14.8837 28.4423 14.4405 28.683 14.1727 28.881C13.9455 27.4905 13.1782 25.5263 12.222 24.6983C12.222 24.6983 14.6272 24.12 15.6262 23.3663C15.6375 23.4428 15.6465 23.5238 15.6577 23.607C15.8175 24.8085 16.0942 26.874 16.7985 27.8505C16.4452 27.8573 16.0605 27.9563 15.5902 28.1453C16.2315 28.692 17.019 29.178 18.189 29.4863C18.1305 29.2208 18.0742 28.818 18.1395 28.3028C17.955 28.3028 17.8672 28.3208 17.6715 28.3545C17.6085 27.783 17.5432 26.6648 17.7435 26.2598C18.3397 26.091 19.3207 26.3858 19.3702 26.4015C19.3702 26.4015 18.846 27.369 18.909 28.3658C18.6525 28.3253 18.6412 28.3275 18.4635 28.323C18.432 28.899 18.4837 29.2568 18.639 29.592C20.0452 30.0398 20.7 30.9263 21.1162 31.5968C21.924 31.7475 22.527 31.923 23.1435 32.1435C23.1322 31.878 23.1052 31.437 22.9117 31.0725C22.7542 31.1153 22.6327 31.1715 22.4505 31.2593C22.2772 30.276 21.5415 29.457 21.5415 29.457C21.5932 29.4278 22.473 28.9148 23.0895 28.9373C23.3797 29.286 23.5777 30.3885 23.6497 30.9578C23.4315 30.9713 23.409 30.9578 23.2087 31.0095C23.4405 31.4888 23.508 31.8938 23.5507 32.2943C23.9872 32.4608 24.372 32.625 24.7027 32.7668L24.8377 32.8253C25.137 30.4695 23.9805 28.5458 23.1862 27.5355C22.6462 27.9383 22.131 28.3703 21.9127 28.593C21.4875 26.9505 19.062 24.786 19.062 24.786C19.1587 24.7388 21.1117 23.7195 21.7597 22.8938C23.2785 23.7533 24.4462 26.0393 24.6645 26.6625C24.399 26.7233 23.9467 26.9955 23.4787 27.3263C23.832 27.5873 24.2572 27.9585 24.7117 28.4805C24.9232 28.7213 25.11 29.0003 25.2832 29.3063C25.5127 29.1038 25.8232 28.782 26.0482 28.3635C25.7197 28.2488 25.4092 28.1543 25.2517 28.1228C25.9402 27.369 26.2372 25.4318 26.2372 25.4318C26.2935 25.4655 27.45 26.1158 28.08 26.172C28.1452 27.2205 27.3757 28.5638 27.1305 28.8765C27.0067 28.755 26.6895 28.6065 26.3452 28.4715C26.217 28.899 25.9672 29.3715 25.5622 29.8395C25.9447 30.6495 26.2485 31.5855 26.5432 32.499C26.6242 32.7465 26.703 32.9918 26.784 33.2325C29.7022 30.8003 28.8607 26.2823 28.2577 24.1853C27.8595 24.4463 27.4455 24.7725 26.9212 25.2428C25.668 22.9838 23.1795 21.6068 23.1795 21.6068C23.265 21.5055 24.9907 19.4963 26.523 19.0305C27.5265 19.638 28.944 22.1625 29.6032 23.4945C29.2005 23.6588 28.8585 23.823 28.521 24.0233C29.232 25.0245 29.7337 26.2778 30.0195 27.5738C30.402 27.2048 30.8587 26.865 31.293 26.577C31.1332 26.4488 30.9892 26.3475 30.8902 26.3138C31.0477 25.9853 31.8352 24.8063 32.724 24.4305C33.0277 24.9233 34.0335 25.6095 34.083 25.6388C34.083 25.6388 32.616 26.6738 32.2785 27.5468C32.1615 27.3983 31.8622 27.0855 31.5607 26.8088C30.888 27.6278 30.465 28.6898 30.2647 29.286C30.3412 30.3638 30.2647 31.3988 30.0195 32.2628C30.699 31.8398 31.635 31.5765 32.6677 31.4348C32.7757 30.4448 33.6015 29.6888 34.3102 29.2185C34.0245 28.8698 33.7297 28.5908 33.3607 28.2803C34.2832 27.3218 36.1732 25.5465 37.1947 25.299C38.3782 26.109 39.312 28.2893 39.357 28.4018C39.357 28.4018 36.8595 28.908 35.181 30.4988C34.9267 30.069 34.7062 29.7338 34.4902 29.448C33.8535 30.2198 33.6577 30.996 33.6015 31.3403C34.8412 31.2525 36.1507 31.3088 37.2982 31.4505C37.4017 30.8768 37.4602 30.3413 37.4017 30.0713C38.0587 30.0015 40.6237 30.0983 42.0435 31.1108C41.5687 32.0468 41.4697 34.2473 41.4675 34.3553C41.4675 34.3553 38.4795 33.0705 36.8145 33.3788C36.9202 33.0975 37.0867 32.4855 37.2195 31.851C34.8615 31.8083 33.3787 32.1345 32.2042 32.7353C32.9895 32.805 33.5025 32.9108 33.8332 33.0143C33.948 32.7668 34.0312 32.5395 34.038 32.4068C34.398 32.4653 35.7502 32.8928 36.3577 33.6398C35.9685 34.0695 35.5927 35.226 35.577 35.2845C35.577 35.2845 34.173 34.164 33.2415 34.083C33.354 33.9255 33.5025 33.714 33.6847 33.3383C33.1222 33.1875 32.3032 33.0705 31.5472 33.192C31.113 33.471 30.7507 33.687 30.3457 34.0425C29.8507 34.4745 29.4795 35.0483 29.2252 35.6805C29.4165 35.9618 29.538 36.3645 29.538 36.8168C29.538 37.548 29.2252 38.1555 28.8045 38.3108C28.8607 39.3233 29.169 40.2323 29.7045 40.7588C29.8125 40.8555 29.943 40.9545 30.0982 41.0468H40.5922C40.707 41.0468 40.8015 41.1413 40.8015 41.256C40.8015 41.3708 40.707 41.4653 40.5922 41.4653L40.5945 41.4675ZM28.9327 36.6548C28.971 36.2273 28.8202 35.8628 28.5952 35.8448C28.3702 35.8245 28.1565 36.1553 28.1182 36.5828C28.0822 37.0103 28.233 37.3725 28.4557 37.3928C28.6807 37.413 28.8922 37.0823 28.9327 36.6548Z" fill="#4B4545"/>
<path d="M27.8685 5.45627L27.8618 5.55527L28.7978 5.61376L28.8045 5.51476C28.5165 5.47651 28.4895 5.45627 28.5075 5.15251L28.5953 3.74176C28.6133 3.44251 28.6425 3.42226 28.935 3.41776L28.9418 3.31876L28.0058 3.26251L27.999 3.36151C28.287 3.39976 28.314 3.42451 28.296 3.72376L28.2105 5.13451C28.1925 5.43376 28.1633 5.45401 27.8708 5.45851L27.8685 5.45627Z" fill="#4B4545"/>
<path d="M31.7542 5.04888C31.5405 5.04663 31.5225 5.06238 31.4887 5.26713L31.4415 5.56413C31.4212 5.68563 31.4077 5.79813 31.4122 5.89489L31.3515 5.89939C31.1355 5.91739 30.8655 5.93764 30.609 5.89939C29.8417 5.77564 29.4052 5.21539 29.5177 4.52464C29.6482 3.71463 30.3615 3.42663 31.0455 3.53689C31.2907 3.57738 31.5112 3.66964 31.6395 3.72139C31.662 3.73039 31.6823 3.73939 31.698 3.74614C31.689 3.86989 31.6755 4.06564 31.6665 4.29964L31.5652 4.30414C31.5495 3.86539 31.3042 3.70789 30.9735 3.65389C30.4402 3.56839 29.9857 3.89464 29.8822 4.54039C29.8012 5.04214 30.0037 5.67664 30.6765 5.78464C30.7957 5.80489 30.9082 5.79589 30.9915 5.77114C31.068 5.74414 31.1152 5.70814 31.14 5.56189L31.1872 5.26489C31.2277 5.01289 31.2075 4.98814 30.87 4.90489L30.8857 4.81039L31.7722 4.95439L31.7565 5.04889L31.7542 5.04888Z" fill="#4B4545"/>
<path d="M34.6815 4.82408C34.74 4.68008 34.8345 4.65983 35.028 4.70708L35.0572 4.61258L34.2585 4.37182L34.2292 4.46632C34.4587 4.54957 34.5262 4.61932 34.497 4.77682C34.479 4.87357 34.4452 5.03332 34.3507 5.34607L34.0987 6.17857H34.0875L33.1898 4.05007L32.688 3.89932L32.6587 3.99382C32.814 4.05457 32.8793 4.10407 32.922 4.20982C32.958 4.30882 32.9603 4.32457 32.886 4.57207L32.661 5.31682C32.5665 5.62732 32.508 5.78707 32.4653 5.88832C32.3978 6.04807 32.301 6.06832 32.1008 6.01882L32.0715 6.11332L32.8725 6.35632L32.9018 6.26182C32.6768 6.17857 32.6115 6.11557 32.6452 5.93782C32.6655 5.83657 32.7038 5.67232 32.7982 5.35957L33.0548 4.51132H33.0615L33.966 6.72082L34.0717 6.75232L34.4835 5.38882C34.578 5.07382 34.632 4.92307 34.6747 4.82632L34.6815 4.82408Z" fill="#4B4545"/>
<path fill-rule="evenodd" clip-rule="evenodd" d="M38.7608 9.11473C39.3008 9.47023 40.0028 9.37573 40.4235 8.73898C40.8128 8.14948 40.6193 7.46098 40.1175 7.13023C39.4988 6.72073 38.8013 6.96823 38.4503 7.49923C38.0768 8.06623 38.2275 8.76148 38.7608 9.11473ZM38.8913 9.04948C38.475 8.77498 38.439 8.16973 38.8035 7.61623C39.168 7.06498 39.6563 6.97948 39.9848 7.19773C40.3718 7.45198 40.4775 7.99873 40.068 8.61973C39.6945 9.18674 39.2175 9.26548 38.8913 9.04948Z" fill="#4B4545"/>
<path d="M43.452 9.9586C43.2832 9.83035 43.1887 9.8146 43.0808 9.91135C43.011 9.9766 42.9053 10.0868 42.6915 10.3321L42.498 10.5526C42.2235 10.8676 41.9783 11.0521 41.6835 11.0791C41.4495 11.0993 41.2223 11.0003 41.0468 10.8473C40.8915 10.7123 40.77 10.5413 40.7318 10.3478C40.6778 10.0868 40.779 9.82135 41.049 9.5086L41.6295 8.8426C41.8388 8.60184 41.8275 8.5726 41.6318 8.37235L41.697 8.2981L42.3878 8.89885L42.3225 8.9731C42.0998 8.8021 42.066 8.79985 41.8568 9.0406L41.328 9.6481C40.9545 10.0778 40.9118 10.4716 41.2425 10.7596C41.6273 11.0948 42.0255 10.8788 42.408 10.4378L42.5835 10.2353C42.7973 9.9901 42.8873 9.87085 42.948 9.7786C43.0223 9.6616 42.9953 9.5806 42.8198 9.4051L42.885 9.33085L43.5195 9.88435L43.4543 9.9586H43.452Z" fill="#4B4545"/>
<path d="M45.2318 12.2332C45.3578 12.141 45.4478 12.1747 45.5873 12.3165L45.6615 12.2512L45.1103 11.6257L45.036 11.691C45.1868 11.8822 45.207 11.9767 45.099 12.096C45.0315 12.1702 44.919 12.2872 44.6738 12.501L44.0213 13.0747L44.0145 13.0657L44.3745 10.7887L44.028 10.395L43.9538 10.4602C44.0528 10.5952 44.082 10.6717 44.064 10.782C44.0415 10.8855 44.037 10.9012 43.8435 11.07L43.2585 11.583C43.0132 11.7967 42.8805 11.9025 42.7905 11.9655C42.6487 12.0667 42.5565 12.0307 42.4125 11.8845L42.3383 11.9497L42.8918 12.5797L42.966 12.5145C42.8175 12.3255 42.795 12.2355 42.9188 12.1027C42.9885 12.0262 43.11 11.907 43.353 11.6932L44.019 11.1082L44.0235 11.1127L43.6275 13.4662L43.6995 13.5495L44.7705 12.609C45.018 12.393 45.1417 12.2917 45.2295 12.2332H45.2318Z" fill="#4B4545"/>
<path fill-rule="evenodd" clip-rule="evenodd" d="M46.7078 13.7363C46.9553 14.1098 47.0633 14.4383 47.0115 14.7353C46.9665 14.9738 46.8203 15.2191 46.5435 15.4036C46.1903 15.6376 45.837 15.6758 45.5175 15.5633C45.2003 15.4553 44.9325 15.2123 44.6918 14.8501L44.2283 14.1526L44.307 14.1008C44.4938 14.3416 44.5253 14.3551 44.7773 14.1886L45.9585 13.4056C46.2128 13.2368 46.2083 13.2053 46.0755 12.9668L46.161 12.9106L46.71 13.7386L46.7078 13.7363ZM44.9663 14.4271C44.7435 14.5756 44.7503 14.7106 44.8943 14.9243C45.2588 15.4756 45.8415 15.4553 46.3118 15.1426C46.6155 14.9423 46.8023 14.6543 46.7843 14.3281C46.782 14.1391 46.7033 13.9456 46.5728 13.7476C46.4918 13.6238 46.4265 13.5563 46.386 13.5406C46.3455 13.5248 46.3073 13.5383 46.1925 13.6148L44.9685 14.4271L44.9663 14.4271Z" fill="#4B4545"/>
<path fill-rule="evenodd" clip-rule="evenodd" d="M46.4378 17.667L46.35 17.712L46.737 18.4882L46.8248 18.4432C46.7415 18.2272 46.7483 18.1732 46.971 17.937C47.2635 17.6288 47.574 17.3047 47.8778 16.9875C48.042 16.8165 48.2063 16.6455 48.3615 16.4812L48.285 16.398L46.2983 16.569C45.9653 16.596 45.9248 16.5622 45.7965 16.3777L45.7088 16.4227L46.0508 17.109L46.1385 17.064C46.0418 16.8165 46.0598 16.7715 46.2938 16.7422C46.44 16.7175 46.5908 16.6995 46.7505 16.6815H46.7708L47.106 17.352C47.0655 17.3947 47.025 17.4375 46.9845 17.478C46.8765 17.5927 46.7798 17.6917 46.7033 17.7682C46.5998 17.8717 46.5615 17.856 46.4355 17.6692L46.4378 17.667ZM47.8845 16.551V16.5577L47.2185 17.2372L46.9283 16.6545C47.2343 16.6208 47.5605 16.5848 47.8845 16.551Z" fill="#4B4545"/>
<path d="M49.1063 19.8676C49.2525 19.7731 49.3245 19.7123 49.3628 19.6538C49.4235 19.5706 49.4258 19.5076 49.3358 19.2578L49.2503 19.0216L47.6168 19.6178C47.3535 19.7146 47.331 19.7528 47.4255 20.0746L47.3333 20.1083L46.9845 19.1543L47.0768 19.1206C47.2073 19.4153 47.25 19.4311 47.5133 19.3343L49.1468 18.7381L49.0725 18.5311C48.9713 18.2543 48.9195 18.1981 48.8295 18.1846C48.7575 18.1643 48.6563 18.1733 48.4943 18.1846L48.4583 18.0878C48.663 18.0316 48.8858 17.9686 49.0703 17.9101L49.095 17.9776C49.0365 18.0518 49.0455 18.0968 49.0793 18.1913L49.5585 19.5031C49.5923 19.5931 49.6215 19.6111 49.7048 19.6426L49.7295 19.7123C49.5765 19.7686 49.3403 19.8743 49.1535 19.9598L49.1085 19.8676L49.1063 19.8676Z" fill="#4B4545"/>
<path d="M47.727 21.0443L47.6303 21.0691L47.8688 21.9758L47.9655 21.9511C47.9115 21.6653 47.9228 21.6338 48.2153 21.5573L49.5833 21.1973C49.8735 21.1208 49.9005 21.1433 49.995 21.4178L50.0918 21.3931L49.8533 20.4863L49.7565 20.5111C49.8105 20.7968 49.797 20.8306 49.5068 20.9071L48.1388 21.2671C47.8485 21.3436 47.8193 21.3211 47.727 21.0466V21.0443Z" fill="#4B4545"/>
<path fill-rule="evenodd" clip-rule="evenodd" d="M49.5405 24.6216C48.7868 24.7409 48.2423 24.2841 48.1433 23.6451C48.0443 23.0129 48.4583 22.4324 49.1288 22.3289C49.7565 22.2299 50.409 22.5786 50.5238 23.3121C50.616 23.9061 50.2403 24.5114 49.5405 24.6216ZM49.2795 22.6686C48.6225 22.7721 48.2018 23.2063 48.2783 23.6991C48.339 24.0861 48.7193 24.3853 49.3898 24.2796C50.1255 24.1649 50.4585 23.7193 50.3865 23.2603C50.3258 22.8688 49.9343 22.5651 49.2818 22.6686H49.2795Z" fill="#4B4545"/>
<path d="M50.4697 27.3712C50.625 27.3802 50.6745 27.4634 50.6925 27.6614H50.7915L50.7622 26.8244L50.6632 26.8289C50.6587 27.0742 50.616 27.1597 50.4562 27.1822C50.3572 27.1957 50.1952 27.2159 49.8712 27.2272L49.0027 27.2587V27.2474L50.7217 25.7107L50.7037 25.1887L50.6047 25.1932C50.5957 25.3597 50.571 25.4384 50.4855 25.5127C50.4022 25.5802 50.3887 25.5869 50.1322 25.5959L49.356 25.6229C49.0297 25.6342 48.861 25.6297 48.7507 25.6229C48.5775 25.6117 48.528 25.5239 48.5099 25.3192L48.4109 25.3237L48.4402 26.1607L48.5392 26.1562C48.5437 25.9154 48.5842 25.8322 48.7642 25.8097C48.8655 25.7962 49.0365 25.7782 49.3604 25.7669L50.247 25.7354V25.7422L48.4492 27.3127L48.4537 27.4229L49.8779 27.3712C50.2064 27.3599 50.3662 27.3599 50.472 27.3712L50.4697 27.3712Z" fill="#4B4545"/>
<path d="M12.609 22.7722C12.1455 21.5347 10.089 20.0587 10.089 20.0587C10.161 20.0137 11.5875 19.0642 12.0217 18.3712C13.2705 18.9134 14.3617 20.5874 14.58 21.0509C14.1052 21.2129 12.9172 22.3852 12.609 22.7722Z" fill="#4B4545"/>
<path d="M41.949 16.5555C41.949 16.5555 40.6013 17.5657 40.0523 18.9922C39.3323 18.5107 38.9385 18.342 38.3355 18.1867C38.6145 17.352 39.2378 15.759 39.7755 15.3202C40.7025 15.4665 41.8635 16.4835 41.9445 16.5555H41.949Z" fill="#4B4545"/>
<path d="M26.6378 15.8467C27.2025 15.9052 28.485 15.5947 28.89 15.3877C28.7663 15.9502 29.2748 17.8717 29.5403 18.5714C29.2163 18.4544 28.0553 18.7582 27.2903 19.0304C27.3983 17.5882 26.6378 15.8467 26.6378 15.8467Z" fill="#4B4545"/>
<path d="M31.4033 22.1467C31.2188 23.2717 30.8205 24.39 30.0578 25.0965C30.6203 24.0097 30.7845 22.7565 30.8565 21.933C30.4065 21.7777 29.9565 21.6742 29.6258 21.6787C30.2963 20.673 30.4988 18.594 30.6158 17.3902C30.6248 17.307 30.6315 17.2282 30.6383 17.1517C31.6665 17.8695 34.0898 18.36 34.0898 18.36C33.1628 19.2217 32.4653 21.2107 32.2875 22.6102C32.0738 22.464 31.7588 22.2952 31.4033 22.1445V22.1467Z" fill="#4B4545"/>
<path d="M32.49 17.3161C32.9783 16.3351 34.0043 13.6171 33.9053 12.7801C34.4655 13.1423 36.2835 13.7858 37.1138 13.7813C37.1138 13.7813 35.7525 16.2046 35.6963 18.3173C34.623 17.8066 32.9805 17.1946 32.49 17.3161Z" fill="#4B4545"/>
<path d="M38.8462 23.7488C40.1737 22.8983 41.8477 21.2355 42.2707 19.8833C42.2707 19.8833 43.9334 22.095 45.1529 22.788C45.0809 22.833 45.0022 22.878 44.9189 22.9275C43.7602 23.625 41.7599 24.8288 41.0714 25.9875C40.7249 25.2293 39.5234 24.1358 38.8462 23.7488Z" fill="#4B4545"/>
<path d="M41.3167 30.5663C41.4517 30.0016 40.7385 28.1206 40.1445 26.8921C42.5722 26.8133 45.342 25.2338 45.342 25.2338C45.3442 26.1878 46.0957 28.2691 46.5142 28.9103C45.5535 28.8023 42.4372 29.9993 41.3167 30.5686V30.5663Z" fill="#4B4545"/>
<path d="M34.128 22.374C35.622 21.573 37.1543 18.7042 37.1543 18.7042C37.224 18.7875 38.673 20.4435 39.6315 20.8777C39.1545 22.5562 37.2105 24.2347 36.6548 24.5902C36.5468 24.3697 36.1598 23.9715 35.7773 23.6272C35.2575 24.12 34.8098 24.7927 34.4498 26.1045C34.3665 24.9907 34.8098 23.9962 35.4083 23.3212C34.866 22.8622 34.4115 22.5405 34.1303 22.3717L34.128 22.374Z" fill="#4B4545"/>
<path d="M18.4973 16.8817C18.4973 16.8817 17.1608 14.9489 16.0223 14.4989C16.3868 14.2199 17.496 13.1354 17.6535 12.6967C18.081 12.9059 19.6178 13.9499 20.097 15.1154C19.4445 15.5069 18.54 16.8164 18.4995 16.8817L18.4973 16.8817Z" fill="#4B4545"/>
<path d="M31.815 15.624C30.7417 15.4687 30.2062 15.489 29.4412 15.6397C29.304 14.5462 29.1465 12.4042 29.52 11.6167C30.6585 11.277 32.5485 11.8125 32.643 11.8417C32.643 11.8417 31.6665 13.7137 31.815 15.624Z" fill="#4B4545"/>
<path d="M19.8405 22.5968C19.0462 22.6441 17.4487 23.0963 16.7872 23.6341C16.686 22.2593 15.408 20.2546 14.6655 19.0891C14.6115 19.0036 14.5597 18.9248 14.5125 18.8483C15.9412 18.7718 18.468 17.5051 18.468 17.5051C18.2407 18.9338 19.0125 21.2153 19.8382 22.5968H19.8405Z" fill="#4B4545"/>
<path d="M12.5753 26.4871C12.2693 26.8898 12.1703 28.6381 12.2108 29.8283C10.251 29.0341 7.48578 29.3153 7.48578 29.3153C7.82103 28.5548 7.95828 26.6311 7.85028 25.9741C8.57928 26.3993 11.4818 26.5456 12.5753 26.4871Z" fill="#4B4545"/>
<path d="M23.4675 18.3464C22.5608 16.1819 20.4503 14.6902 20.4503 14.6902C20.538 14.6069 22.2953 12.9644 23.7263 12.6967C24.5723 13.3447 25.6005 15.7634 26.0663 17.0324C25.5645 17.1764 25.4003 17.2057 24.9615 17.4352C25.1843 17.7862 25.209 18.4049 25.092 18.8729C25.002 18.4184 24.597 17.8919 24.417 17.7412C24.138 17.9054 23.8275 18.0922 23.472 18.3464H23.4675Z" fill="#4B4545"/>
<path d="M28.305 13.8982C27.351 13.8375 26.6963 13.8915 25.4183 14.229C25.3035 12.033 23.823 10.0462 23.823 10.0462C23.9333 10.0012 26.145 9.11248 27.5805 9.33073C28.1565 10.1722 28.3005 12.6337 28.305 13.8982Z" fill="#4B4545"/>
<path d="M19.17 18.6818C19.17 18.6818 20.8305 17.946 21.4493 17.2688C21.4583 17.298 21.4673 17.3273 21.4785 17.3565C21.4875 17.3835 21.4965 17.4128 21.5055 17.442C21.7823 18.288 22.2548 19.7415 22.8938 20.3535C22.3583 20.4615 21.4808 21.069 21.132 21.4448C20.7833 20.4706 19.9665 19.1543 19.1678 18.6841L19.17 18.6818Z" fill="#4B4545"/>
<path fill-rule="evenodd" clip-rule="evenodd" d="M0 27C0 12.087 12.0893 0 27 0C41.9108 0 54 12.087 54 27C54 41.913 41.913 54 27 54C12.0893 54 0 41.913 0 27ZM0.742501 27C0.742501 41.5012 12.4988 53.2575 27 53.2575C41.5012 53.2575 53.2575 41.5012 53.2575 27C53.2575 12.4987 41.5035 0.742497 27 0.742497C12.4965 0.742497 0.742501 12.4988 0.742501 27Z" fill="#4B4545"/>
<path d="M30.5573 46.7572C30.5573 47.1397 30.4853 47.4727 30.3412 47.7539C30.1973 48.0352 30.0105 48.2647 29.781 48.4447C29.5493 48.6247 29.2882 48.7597 28.998 48.8474C28.7078 48.9352 28.4085 48.9802 28.1002 48.9802H26.235V48.7552C26.2958 48.7552 26.3768 48.7507 26.4735 48.7394C26.5725 48.7259 26.6378 48.7124 26.6692 48.6989C26.7322 48.6719 26.7772 48.6314 26.8065 48.5774C26.8358 48.5234 26.8515 48.4559 26.8515 48.3817V45.1349C26.8515 45.0629 26.838 44.9977 26.8132 44.9414C26.7907 44.8852 26.7412 44.8402 26.6715 44.8064C26.6062 44.7749 26.5342 44.7502 26.46 44.7367C26.3835 44.7209 26.3182 44.7119 26.2642 44.7074V44.4824H28.2308C28.5007 44.4824 28.7685 44.5252 29.0295 44.6084C29.2928 44.6917 29.52 44.8019 29.7135 44.9437C29.979 45.1327 30.186 45.3779 30.3345 45.6817C30.4852 45.9854 30.5595 46.3454 30.5595 46.7572H30.5573ZM29.781 46.7549C29.781 46.4534 29.7405 46.1789 29.6595 45.9359C29.5785 45.6907 29.4615 45.4769 29.3085 45.2947C29.1623 45.1214 28.9823 44.9842 28.7685 44.8852C28.557 44.7862 28.3208 44.7367 28.062 44.7367C27.9765 44.7367 27.8775 44.7367 27.7673 44.7434C27.6593 44.7434 27.5783 44.7479 27.5265 44.7502V48.2107C27.5265 48.4042 27.5828 48.5369 27.6953 48.6112C27.8078 48.6854 27.9788 48.7214 28.2128 48.7214C28.4805 48.7214 28.7168 48.6742 28.917 48.5797C29.1173 48.4852 29.2815 48.3524 29.4053 48.1837C29.5358 48.0059 29.6325 47.8012 29.691 47.5694C29.7518 47.3354 29.7833 47.0632 29.7833 46.7572L29.781 46.7549Z" fill="#4B4545"/>
<path d="M25.1033 48.9801H23.67V48.7709C23.7645 48.7597 23.8455 48.7507 23.9108 48.7394C23.9783 48.7281 24.012 48.7011 24.012 48.6561C24.012 48.6381 24.0008 48.6066 23.9805 48.5684C23.9603 48.5279 23.9378 48.4919 23.9175 48.4581C23.8635 48.3749 23.7915 48.2646 23.6993 48.1274C23.6093 47.9879 23.4968 47.8214 23.364 47.6301C23.2538 47.7674 23.1525 47.9024 23.0603 48.0329C22.968 48.1611 22.869 48.2984 22.7678 48.4446C22.752 48.4649 22.7363 48.4919 22.7205 48.5234C22.7048 48.5549 22.698 48.5796 22.698 48.5999C22.698 48.6471 22.7273 48.6854 22.7858 48.7169C22.8465 48.7461 22.9388 48.7664 23.058 48.7776V48.9801H21.8993V48.7844C22.0433 48.7416 22.158 48.6921 22.2458 48.6314C22.3335 48.5706 22.4168 48.4941 22.4888 48.4064C22.554 48.3209 22.6463 48.2061 22.761 48.0576C22.8803 47.9091 23.031 47.7089 23.2178 47.4546C23.1098 47.2994 22.977 47.1127 22.8218 46.8899C22.6665 46.6649 22.5405 46.4804 22.437 46.3319C22.383 46.2509 22.3178 46.1879 22.2458 46.1384C22.176 46.0889 22.077 46.0619 21.9465 46.0619V45.8526H23.3078V46.0619C23.2403 46.0619 23.1728 46.0664 23.1075 46.0754C23.0423 46.0844 23.0085 46.1024 23.0085 46.1316C23.0085 46.1496 23.0153 46.1721 23.0265 46.1946C23.0378 46.2171 23.0558 46.2441 23.0738 46.2711C23.121 46.3431 23.193 46.4534 23.2898 46.6041C23.3888 46.7549 23.4968 46.9124 23.6093 47.0789C23.6835 46.9776 23.769 46.8584 23.8658 46.7234C23.9648 46.5884 24.057 46.4601 24.138 46.3364C24.147 46.3229 24.156 46.3026 24.1628 46.2824C24.1718 46.2599 24.1763 46.2374 24.1763 46.2149C24.1763 46.1699 24.1403 46.1362 24.066 46.1092C23.994 46.0822 23.9243 46.0619 23.859 46.0529V45.8504H25.0133V46.0462C24.8513 46.0889 24.723 46.1384 24.633 46.1991C24.543 46.2554 24.4643 46.3229 24.4013 46.3994C24.3315 46.4849 24.2483 46.5929 24.1515 46.7189C24.057 46.8449 23.922 47.0227 23.7488 47.2522C23.9423 47.5222 24.0975 47.7449 24.219 47.9182C24.3405 48.0914 24.462 48.2692 24.5835 48.4537C24.6443 48.5459 24.7118 48.6202 24.786 48.6764C24.8625 48.7282 24.966 48.7597 25.0965 48.7687V48.9779L25.1033 48.9801Z" fill="#4B4545"/>
<path d="M20.9948 48.9802H18.9675V48.7552C19.0238 48.7507 19.107 48.7439 19.215 48.7372C19.323 48.7282 19.3995 48.7169 19.4423 48.6989C19.512 48.6719 19.5638 48.6337 19.5953 48.5887C19.6268 48.5392 19.6425 48.4739 19.6425 48.3884V45.1282C19.6425 45.0539 19.6313 44.9932 19.6065 44.9437C19.584 44.8942 19.5278 44.8514 19.4423 44.8177C19.3793 44.7929 19.2983 44.7682 19.2015 44.7479C19.107 44.7254 19.0283 44.7119 18.9675 44.7074V44.4824H20.9948V44.7074C20.9295 44.7074 20.8508 44.7187 20.7608 44.7322C20.6708 44.7457 20.5898 44.7614 20.5223 44.7817C20.4413 44.8064 20.3873 44.8492 20.3603 44.9054C20.3333 44.9617 20.3198 45.0269 20.3198 45.0967V48.3524C20.3198 48.4222 20.3355 48.4852 20.3648 48.5392C20.3963 48.5909 20.4503 48.6337 20.5223 48.6652C20.5673 48.6809 20.6393 48.7012 20.7383 48.7214C20.8395 48.7394 20.925 48.7507 20.9948 48.7529V48.9779L20.9948 48.9802Z" fill="#4B4545"/>
<path d="M31.464 44.4802V44.7052C31.5203 44.7097 31.5968 44.7232 31.6935 44.7435C31.7903 44.7637 31.869 44.7885 31.9253 44.8155C31.9995 44.8492 32.0468 44.8942 32.0715 44.9482C32.094 45 32.1075 45.063 32.1075 45.1327V48.3795C32.1075 48.456 32.0918 48.5212 32.0625 48.5752C32.0355 48.627 31.9905 48.6675 31.9275 48.6967C31.896 48.7125 31.8263 48.7237 31.7205 48.735C31.6148 48.744 31.5293 48.7485 31.4663 48.753V48.978H33.417V48.753C33.363 48.753 33.282 48.7395 33.1763 48.717C33.0705 48.6967 33.0008 48.6787 32.9693 48.663C32.8995 48.6293 32.85 48.5842 32.823 48.5302C32.796 48.4762 32.7825 48.4133 32.7825 48.3435V46.7932H33.0818C33.5048 46.7932 33.6038 46.845 33.669 46.899C33.7118 46.935 33.75 46.9935 33.786 47.0745C33.8243 47.1555 33.849 47.2207 33.8535 47.2477H34.0943V46.08H33.8535C33.8423 46.1565 33.8197 46.2285 33.7837 46.2982C33.75 46.3657 33.7117 46.4152 33.669 46.4467C33.6082 46.494 33.5047 46.5367 33.0818 46.5367H32.7825V44.739H33.984C34.407 44.739 34.506 44.7907 34.5712 44.8447C34.614 44.8807 34.6522 44.9392 34.6882 45.0202C34.7265 45.1012 34.7557 45.1935 34.7557 45.1935H34.9965V44.478H31.4662L31.464 44.4802Z" fill="#4B4545"/>
<path d="M9.47699 41.4742C9.41399 41.4742 9.35324 41.4473 9.31049 41.3955C6.48899 37.9305 4.75874 33.7567 4.31099 29.322C4.29974 29.205 4.38524 29.0992 4.50224 29.088C4.62149 29.0768 4.72499 29.1623 4.73624 29.2793C5.17499 33.6308 6.87149 37.728 9.64124 41.1255C9.71549 41.2178 9.70199 41.3528 9.60974 41.427C9.56924 41.4585 9.52199 41.4742 9.47474 41.4742H9.47699Z" fill="#4B4545"/>
<path d="M44.523 41.4742C44.4758 41.4742 44.4285 41.4585 44.388 41.427C44.2958 41.3528 44.2823 41.2178 44.3565 41.1255C47.1263 37.7258 48.8228 33.6308 49.2615 29.2793C49.2727 29.1622 49.3763 29.0768 49.4955 29.088C49.6125 29.0992 49.698 29.205 49.6868 29.322C49.239 33.7567 47.511 37.9328 44.6873 41.3955C44.6445 41.4472 44.5838 41.4742 44.5208 41.4742H44.523Z" fill="#4B4545"/>
<path d="M36.9248 5.39994L36.873 5.50344C36.8977 5.51919 36.9293 5.54169 36.9675 5.57319C37.008 5.60469 37.0373 5.63394 37.0575 5.65869C37.0845 5.69019 37.0958 5.72169 37.0935 5.75319C37.0935 5.78244 37.0823 5.81394 37.0665 5.84544L36.324 7.32594C36.306 7.35969 36.2858 7.38669 36.2588 7.40469C36.234 7.42269 36.2048 7.42944 36.1688 7.42944C36.1508 7.42944 36.117 7.41819 36.0653 7.40019C36.0158 7.37994 35.9753 7.36419 35.946 7.35069L35.8943 7.45419L36.783 7.89969L36.8348 7.79619C36.81 7.78269 36.7763 7.75794 36.7335 7.72419C36.6908 7.69044 36.6638 7.66569 36.6525 7.65218C36.6278 7.62069 36.6165 7.58919 36.6165 7.55769C36.6165 7.52619 36.6255 7.49469 36.6413 7.46319L36.9968 6.75669L37.134 6.82419C37.3275 6.92093 37.3613 6.96819 37.377 7.00644C37.3882 7.03344 37.3927 7.06944 37.3905 7.11444C37.3905 7.15943 37.386 7.19544 37.3815 7.20894L37.4917 7.26518L37.7595 6.73194L37.6492 6.67569C37.6267 6.70943 37.5997 6.73644 37.5683 6.75893C37.5367 6.78144 37.5097 6.79494 37.4827 6.79943C37.4445 6.80618 37.3882 6.80393 37.1947 6.70718L37.0575 6.63968L37.4693 5.81843L38.0183 6.09293C38.2117 6.18968 38.2455 6.23693 38.2612 6.27518C38.2725 6.30218 38.277 6.33818 38.2747 6.38318C38.2747 6.42818 38.2657 6.47768 38.2657 6.47768L38.376 6.53393L38.5402 6.20768L36.9292 5.39993L36.9248 5.39994Z" fill="#4B4545"/>
</svg>
