<svg width="39" height="26" viewBox="0 0 39 26" fill="none" xmlns="http://www.w3.org/2000/svg">
<path d="M22.5586 25.4912L22.709 13.1216C22.734 10.7404 23.2103 8.72266 24.1377 7.06836C25.0651 5.389 26.2306 4.03548 27.6343 3.00781C29.063 1.95508 30.5544 1.19059 32.1084 0.714355C33.6875 0.238118 35.1413 0 36.4697 0C37.3721 0 38.1366 0.0877279 38.7632 0.263184L38.4624 6.01562C36.6326 6.26628 35.3543 6.9681 34.6274 8.12109C33.9006 9.27409 33.4368 10.5524 33.2363 11.9561H38.4624L37.936 25.4912H22.5586ZM0 25.4912L0.150391 13.1216C0.175456 10.7404 0.651693 8.72266 1.5791 7.06836C2.50651 5.389 3.67204 4.03548 5.07568 3.00781C6.50439 1.95508 7.99577 1.19059 9.5498 0.714355C11.1289 0.238118 12.5827 0 13.9111 0C14.8135 0 15.578 0.0877279 16.2046 0.263184L15.9038 6.01562C14.0741 6.26628 12.7957 6.9681 12.0688 8.12109C11.342 9.27409 10.8783 10.5524 10.6777 11.9561H15.9038L15.3774 25.4912H0Z" fill="#343637"/>
</svg>
