<svg width="24" height="24" viewBox="0 0 24 24" fill="none" xmlns="http://www.w3.org/2000/svg">
<g filter="url(#filter0_d_121_271)">
<path d="M12.0027 15.8048C16.3132 15.697 19.7203 12.1153 19.6125 7.80484C19.5047 3.49436 15.9229 0.0874005 11.6123 0.195197C7.30173 0.302994 3.8947 3.88472 4.00249 8.1952C4.11029 12.5057 7.69209 15.9126 12.0027 15.8048Z" fill="#FFCE00"/>
<path d="M14.7141 7.33456C14.6609 7.30389 14.5958 7.35441 14.6079 7.41466C14.701 7.88334 15.1639 8.23944 15.7224 8.23944C16.2807 8.23944 16.7433 7.88316 16.8364 7.41466C16.8486 7.35441 16.7839 7.30389 16.7299 7.33456C16.4429 7.4962 16.0962 7.59127 15.7224 7.59127C15.3486 7.59127 15.0015 7.49602 14.7141 7.33456Z" fill="#562912"/>
<path d="M6.95043 7.33456C6.89685 7.30389 6.83191 7.35441 6.844 7.41466C6.93744 7.88334 7.39981 8.23944 7.95851 8.23944C8.51721 8.23944 8.97957 7.88316 9.07301 7.41466C9.0851 7.35441 9.02016 7.30389 8.96658 7.33456C8.6792 7.4962 8.33229 7.59127 7.95868 7.59127C7.58454 7.59127 7.23781 7.49602 6.95043 7.33456Z" fill="#562912"/>
<path d="M6.47634 6.07811C6.43232 6.07811 6.3874 6.06674 6.34663 6.04275C6.22594 5.97095 6.18589 5.8149 6.25769 5.69367C6.68542 4.97207 7.47683 4.50268 8.21178 4.50773C8.35231 4.51026 8.46434 4.62608 8.46218 4.76697C8.45965 4.90714 8.34275 5.01555 8.20348 5.01717C8.19681 5.01699 8.18977 5.017 8.1831 5.017C7.62458 5.017 7.02908 5.39096 6.69552 5.95345C6.64808 6.03355 6.56329 6.07811 6.47634 6.07811Z" fill="#562912"/>
<path d="M17.2026 6.07807C17.1157 6.07807 17.0311 6.03351 16.9833 5.95341C16.6502 5.39092 16.0547 5.01696 15.4962 5.01696C15.4879 5.01696 15.4803 5.01768 15.4715 5.01713C15.333 5.01713 15.2193 4.90583 15.217 4.76693C15.2146 4.62622 15.3268 4.51022 15.4673 4.50769C15.4766 4.50769 15.4859 4.50769 15.4951 4.50769C16.2281 4.50769 16.9991 4.98105 17.4214 5.69363C17.4931 5.81486 17.4532 5.97073 17.3321 6.04271C17.2914 6.06652 17.2466 6.07807 17.2026 6.07807Z" fill="#562912"/>
</g>
<path d="M8.98008 11.6216C9.79485 10.9162 11.9584 10.0665 14.5572 11.5669C14.7963 11.705 14.8778 12.0104 14.7398 12.2495C14.6018 12.4887 14.2964 12.5711 14.0572 12.4331C11.8566 11.1626 10.1533 11.9282 9.63437 12.3775C9.4257 12.5582 9.1101 12.5362 8.92929 12.3277C8.74852 12.1189 8.77133 11.8024 8.98008 11.6216Z" fill="#562912"/>
<defs>
<filter id="filter0_d_121_271" x="0" y="0.192749" width="23.615" height="23.6146" filterUnits="userSpaceOnUse" color-interpolation-filters="sRGB">
<feFlood flood-opacity="0" result="BackgroundImageFix"/>
<feColorMatrix in="SourceAlpha" type="matrix" values="0 0 0 0 0 0 0 0 0 0 0 0 0 0 0 0 0 0 127 0" result="hardAlpha"/>
<feOffset dy="4"/>
<feGaussianBlur stdDeviation="2"/>
<feComposite in2="hardAlpha" operator="out"/>
<feColorMatrix type="matrix" values="0 0 0 0 0 0 0 0 0 0 0 0 0 0 0 0 0 0 0.25 0"/>
<feBlend mode="normal" in2="BackgroundImageFix" result="effect1_dropShadow_121_271"/>
<feBlend mode="normal" in="SourceGraphic" in2="effect1_dropShadow_121_271" result="shape"/>
</filter>
</defs>
</svg>
